<svg width="141" height="141" viewBox="0 0 141 141" fill="none" xmlns="http://www.w3.org/2000/svg">
<path d="M13.7944 70.4917L27.9708 70.4301L42.1472 70.4077L70.5 70.3657L98.8528 70.4077L113.029 70.4301L127.206 70.4917L113.029 70.5561L98.8528 70.5785L70.5 70.6205L42.1472 70.5785L27.9708 70.5561L13.7944 70.4917Z" fill="#EBEBEB"/>
<path d="M13.7944 61.6101L27.9708 61.5485L42.1472 61.5261L70.5 61.4841L98.8528 61.5261L113.029 61.5485L127.206 61.6101L113.029 61.6745L98.8528 61.6969L70.5 61.7389L42.1472 61.6969L27.9708 61.6745L13.7944 61.6101Z" fill="#EBEBEB"/>
<path d="M13.7944 52.7313L27.9708 52.6669L42.1472 52.6445L70.5 52.6025L98.8528 52.6445L113.029 52.6669L127.206 52.7313L113.029 52.7929L98.8528 52.8153L70.5 52.8573L42.1472 52.8153L27.9708 52.7929L13.7944 52.7313Z" fill="#EBEBEB"/>
<path d="M13.7944 43.8497L27.9708 43.7853L42.1472 43.7629L70.5 43.7209L98.8528 43.7629L113.029 43.7853L127.206 43.8497L113.029 43.9113L98.8528 43.9337L70.5 43.9785L42.1472 43.9337L27.9708 43.9113L13.7944 43.8497Z" fill="#EBEBEB"/>
<path d="M13.7944 34.9682L27.9708 34.9066L42.1472 34.8814L70.5 34.8394L98.8528 34.8814L113.029 34.9038L127.206 34.9682L113.029 35.0298L98.8528 35.0522L70.5 35.097L42.1472 35.0522L27.9708 35.0298L13.7944 34.9682Z" fill="#EBEBEB"/>
<path d="M13.7944 26.0866L27.9708 26.025L42.1472 26.0026L70.5 25.9578L98.8528 25.9998L113.029 26.025L127.206 26.0866L113.029 26.1482L98.8528 26.1734L70.5 26.2154L42.1472 26.1706L27.9708 26.1482L13.7944 26.0866Z" fill="#EBEBEB"/>
<path d="M13.7944 79.3817L27.9708 79.3201L42.1472 79.2977L70.5 79.2529L98.8528 79.2977L113.029 79.3201L127.206 79.3817L113.029 79.4433L98.8528 79.4685L70.5 79.5105L42.1472 79.4657L27.9708 79.4433L13.7944 79.3817Z" fill="#EBEBEB"/>
<path d="M13.7944 88.2716L27.9708 88.21L42.1472 88.1848L70.5 88.1428L98.8528 88.1848L113.029 88.2072L127.206 88.2716L113.029 88.3332L98.8528 88.3556L70.5 88.4004L42.1472 88.3556L27.9708 88.3332L13.7944 88.2716Z" fill="#EBEBEB"/>
<path d="M13.7944 97.159L27.9708 97.0974L42.1472 97.075L70.5 97.033L98.8528 97.075L113.029 97.0974L127.206 97.159L113.029 97.2234L98.8528 97.2458L70.5 97.2878L42.1472 97.2458L27.9708 97.2234L13.7944 97.159Z" fill="#EBEBEB"/>
<path d="M13.7944 106.049L27.9708 105.987L42.1472 105.965L70.5 105.92L98.8528 105.965L113.029 105.987L127.206 106.049L113.029 106.113L98.8528 106.136L70.5 106.178L42.1472 106.136L27.9708 106.113L13.7944 106.049Z" fill="#EBEBEB"/>
<path d="M127.203 79.2529H13.7944V88.1429H127.203V79.2529Z" fill="#DBDBDB"/>
<path d="M80.1824 16.3677L80.2524 26.6661L80.2776 34.3969L80.3224 83.5257L80.2776 98.9845L80.2524 106.715L80.1824 114.443L80.1152 106.715L80.09 98.9845L80.0424 83.5257L80.09 34.3969L80.1152 26.6661L80.1824 16.3677Z" fill="#EBEBEB"/>
<path d="M70.5 16.3677L70.5672 26.6661L70.5924 34.3969L70.64 83.5257L70.5924 98.9845L70.57 106.715L70.5 114.443L70.43 106.715L70.4076 98.9845L70.36 83.5257L70.4076 34.3969L70.4328 26.6661L70.5 16.3677Z" fill="#EBEBEB"/>
<path d="M60.8176 16.3677L60.8848 26.6661L60.91 34.3969L60.9548 83.5257L60.91 98.9845L60.8848 106.715L60.8176 114.443L60.7476 106.715L60.7224 98.9845L60.6776 83.5257L60.7224 34.3969L60.7476 26.6661L60.8176 16.3677Z" fill="#EBEBEB"/>
<path d="M51.1324 16.3677L51.1996 26.6661L51.2248 34.3969L51.2724 83.5257L51.2248 98.9845L51.2024 106.715L51.1324 114.443L51.0652 106.715L51.04 98.9845L50.9924 83.5257L51.04 34.3969L51.0652 26.6661L51.1324 16.3677Z" fill="#EBEBEB"/>
<path d="M109.235 16.3677L109.302 26.6661L109.328 34.3969L109.375 83.5257L109.328 98.9845L109.302 106.715L109.235 114.443L109.165 106.715L109.14 98.9845L109.095 83.5257L109.143 34.3969L109.165 26.6661L109.235 16.3677Z" fill="#EBEBEB"/>
<path d="M99.55 16.3677L99.62 26.6661L99.6424 34.3969L99.69 83.5257L99.6424 98.9845L99.62 106.715L99.55 114.443L99.4828 106.715L99.4576 98.9845L99.41 83.5257L99.4576 34.3969L99.4828 26.6661L99.55 16.3677Z" fill="#EBEBEB"/>
<path d="M89.8676 16.3677L89.9348 26.6661L89.96 34.3969L90.0076 83.5257L89.96 98.9845L89.9348 106.715L89.8676 114.443L89.7976 106.715L89.7752 98.9845L89.7276 83.5257L89.7752 34.3969L89.8004 26.6661L89.8676 16.3677Z" fill="#EBEBEB"/>
<path d="M118.918 16.3677L118.985 26.6661L119.01 34.3969L119.058 83.5257L119.01 98.9845L118.988 106.715L118.918 114.443L118.85 106.715L118.825 98.9845L118.778 83.5257L118.825 34.3969L118.85 26.6661L118.918 16.3677Z" fill="#EBEBEB"/>
<path d="M109.235 16.3677L109.302 26.6661L109.328 34.3969L109.375 83.5257L109.328 98.9845L109.302 106.715L109.235 114.443L109.165 106.715L109.14 98.9845L109.095 83.5257L109.143 34.3969L109.165 26.6661L109.235 16.3677Z" fill="#EBEBEB"/>
<path d="M41.45 16.3677L41.5172 26.6661L41.5424 34.3969L41.59 83.5257L41.5424 98.9845L41.5172 106.715L41.45 114.443L41.38 106.715L41.3548 98.9845L41.31 83.5257L41.3576 34.3969L41.38 26.6661L41.45 16.3677Z" fill="#EBEBEB"/>
<path d="M31.7648 16.3677L31.8348 26.6661L31.8572 34.3969L31.9048 83.5257L31.86 98.9845L31.8348 106.715L31.7648 114.443L31.6976 106.715L31.6724 98.9845L31.6248 83.5257L31.6724 34.3969L31.6976 26.6661L31.7648 16.3677Z" fill="#EBEBEB"/>
<path d="M22.0824 16.3677L22.1496 26.6661L22.1748 34.3969L22.2224 83.5257L22.1748 98.9845L22.1496 106.715L22.0824 114.443L22.0124 106.715L21.99 98.9845L21.9424 83.5257L21.99 34.3969L22.0124 26.6661L22.0824 16.3677Z" fill="#EBEBEB"/>
<path d="M15.2616 51.9416H60.812L62.2764 17.7788H13.7944L15.2616 51.9416Z" fill="#EBEBEB"/>
<path d="M37.068 48.8028H18.6468L17.4456 21.0828H37.068V48.8028ZM18.9156 48.5228H36.788V21.3628H17.748L18.9156 48.5228Z" fill="#DBDBDB"/>
<path d="M35.4048 39.6273H33.4924V29.6201H35.4048V39.6273ZM33.7724 39.3473H35.1248V29.9001H33.7724V39.3473Z" fill="#DBDBDB"/>
<path d="M57.424 48.8028H39.0028V21.0828H58.6252L57.424 48.8028ZM39.2828 48.5228H57.1552L58.3312 21.3628H39.2912L39.2828 48.5228Z" fill="#DBDBDB"/>
<path d="M42.5784 39.6273H40.666V29.6201H42.5784V39.6273ZM40.946 39.3473H42.2984V29.9001H40.946V39.3473Z" fill="#DBDBDB"/>
<path d="M70.5 125.727C101.378 125.727 126.41 124.066 126.41 122.017C126.41 119.968 101.378 118.307 70.5 118.307C39.6215 118.307 14.5896 119.968 14.5896 122.017C14.5896 124.066 39.6215 125.727 70.5 125.727Z" fill="#EBEBEB"/>
<path d="M70.2984 113.777L69.8084 113.511L71.2952 110.772H94.3392L95.8288 113.511L95.336 113.777L94.006 111.332H71.6284L70.2984 113.777Z" fill="#263238"/>
<path d="M74.3612 113.743L73.8348 113.547L74.8652 110.772H90.7692L91.7996 113.547L91.276 113.743L90.38 111.332H75.2544L74.3612 113.743Z" fill="#263238"/>
<path d="M122.35 113.777L121.02 111.332H98.6428L97.3128 113.777L96.8228 113.511L98.3096 110.772H121.354L122.843 113.511L122.35 113.777Z" fill="#263238"/>
<path d="M118.29 113.743L117.394 111.332H102.269L101.376 113.743L100.849 113.547L101.88 110.772H117.784L118.814 113.547L118.29 113.743Z" fill="#263238"/>
<path d="M124.112 113.043H68.68V114.488H124.112V113.043Z" fill="#455A64"/>
<path d="M12.8788 114.443L27.2848 114.376L41.688 114.351L70.5 114.303L99.3092 114.351L113.715 114.376L128.121 114.443L113.715 114.513L99.3092 114.536L70.5 114.583L41.688 114.536L27.2848 114.51L12.8788 114.443Z" fill="#263238"/>
<path d="M119.55 34.9958H74.7504V38.4426H119.55V34.9958Z" fill="#FED5ED"/>
<path d="M97.814 44.6755H96.484V61.4867H97.814V44.6755Z" fill="#C7C7C7"/>
<path d="M100.74 60.7532H93.5496L93.18 70.8024H101.118L100.74 60.7532ZM95.63 69.6236H94.8824V62.1896H95.63V69.6236ZM97.5116 69.6236H96.7668V62.1896H97.5116V69.6236ZM99.3932 69.6236H98.6484V62.1896H99.3932V69.6236Z" fill="#C7C7C7"/>
<path d="M98.5868 46.3304H95.7952L95.5152 35.9172H98.8668L98.5868 46.3304Z" fill="#263238"/>
<path d="M97.1924 37.7287C97.4429 37.7287 97.646 37.5256 97.646 37.2751C97.646 37.0246 97.4429 36.8215 97.1924 36.8215C96.9419 36.8215 96.7388 37.0246 96.7388 37.2751C96.7388 37.5256 96.9419 37.7287 97.1924 37.7287Z" fill="#FED5ED"/>
<path d="M111.89 44.6755H110.56V58.2051H111.89V44.6755Z" fill="#C7C7C7"/>
<path d="M115.034 62.1167C115.034 64.9391 113.194 67.5347 111.226 67.5347C109.258 67.5347 107.415 64.9391 107.415 62.1167C107.415 59.2943 109.669 57.8999 111.226 57.8999C112.783 57.8999 115.034 59.2999 115.034 62.1167Z" fill="#C7C7C7"/>
<path d="M112.662 46.3304H109.871L109.591 35.9172H112.942L112.662 46.3304Z" fill="#263238"/>
<path d="M111.268 37.7287C111.519 37.7287 111.722 37.5256 111.722 37.2751C111.722 37.0246 111.519 36.8215 111.268 36.8215C111.017 36.8215 110.814 37.0246 110.814 37.2751C110.814 37.5256 111.017 37.7287 111.268 37.7287Z" fill="#FED5ED"/>
<path d="M74.7252 50.4463V66.9663H84.8276V44.6335H82.7332V50.4463H74.7252ZM76.1532 52.7423C76.1526 52.6232 76.1875 52.5065 76.2533 52.4071C76.3191 52.3078 76.4129 52.2302 76.5229 52.1842C76.6328 52.1382 76.754 52.1259 76.8709 52.1488C76.9879 52.1717 77.0954 52.2288 77.1799 52.3129C77.2644 52.397 77.322 52.5042 77.3454 52.6211C77.3689 52.7379 77.3571 52.8591 77.3116 52.9693C77.2662 53.0794 77.189 53.1736 77.0899 53.2399C76.9909 53.3062 76.8744 53.3415 76.7552 53.3415C76.596 53.3415 76.4433 53.2785 76.3305 53.1662C76.2177 53.0539 76.1539 52.9015 76.1532 52.7423Z" fill="#C7C7C7"/>
<path d="M82.386 46.3304H85.1776L85.4576 35.9172H82.106L82.386 46.3304Z" fill="#263238"/>
<path d="M83.7832 37.7287C84.0337 37.7287 84.2368 37.5256 84.2368 37.2751C84.2368 37.0246 84.0337 36.8215 83.7832 36.8215C83.5327 36.8215 83.3296 37.0246 83.3296 37.2751C83.3296 37.5256 83.5327 37.7287 83.7832 37.7287Z" fill="#FED5ED"/>
<path d="M89.1648 21.0826V34.9958H110.915V21.0826H89.1648Z" fill="#FED5ED"/>
<path opacity="0.2" d="M89.1648 21.0826V34.9958H110.915V21.0826H89.1648Z" fill="black"/>
<path d="M116.68 26.1816C115.597 26.1816 114.594 27.1084 113.581 27.1084H110.915V28.9704H113.581C114.594 28.9704 115.597 29.9028 116.68 29.9028C117.963 29.9028 118.92 29.186 118.92 28.0408C118.92 26.8956 117.963 26.1816 116.68 26.1816ZM116.974 28.738C116.836 28.7386 116.7 28.6979 116.584 28.6212C116.469 28.5445 116.379 28.4352 116.325 28.3072C116.272 28.1792 116.258 28.0382 116.285 27.9022C116.312 27.7661 116.379 27.6411 116.477 27.5431C116.575 27.445 116.7 27.3783 116.836 27.3514C116.972 27.3244 117.113 27.3385 117.241 27.3919C117.369 27.4452 117.478 27.5353 117.555 27.6509C117.632 27.7664 117.672 27.9022 117.672 28.0408C117.67 28.2243 117.597 28.4 117.468 28.5303C117.339 28.6606 117.163 28.7351 116.98 28.738H116.974Z" fill="#FED5ED"/>
<g opacity="0.2">
<path d="M116.68 26.1816C115.597 26.1816 114.594 27.1084 113.581 27.1084H110.915V28.9704H113.581C114.594 28.9704 115.597 29.9028 116.68 29.9028C117.963 29.9028 118.92 29.186 118.92 28.0408C118.92 26.8956 117.963 26.1816 116.68 26.1816ZM116.974 28.738C116.836 28.7386 116.7 28.6979 116.584 28.6212C116.469 28.5445 116.379 28.4352 116.325 28.3072C116.272 28.1792 116.258 28.0382 116.285 27.9022C116.312 27.7661 116.379 27.6411 116.477 27.5431C116.575 27.445 116.7 27.3783 116.836 27.3514C116.972 27.3244 117.113 27.3385 117.241 27.3919C117.369 27.4452 117.478 27.5353 117.555 27.6509C117.632 27.7664 117.672 27.9022 117.672 28.0408C117.67 28.2243 117.597 28.4 117.468 28.5303C117.339 28.6606 117.163 28.7351 116.98 28.738H116.974Z" fill="black"/>
</g>
<path d="M95.0308 28.2424C95.0308 28.2424 92.1664 33.5988 91.6092 34.3268C91.052 35.0548 89.6996 34.996 88.8624 34.996H82.0192C81.1792 34.996 79.8296 35.0576 79.2724 34.3268C78.7152 33.596 75.8508 28.2424 75.8508 28.2424H95.0308Z" fill="#455A64"/>
<path d="M41.2484 57.2394C39.2884 55.3578 32.6972 55.4922 29.872 58.6394C25.9772 62.9654 31.1012 71.4914 37.292 69.3634C43.4828 67.2354 42.752 58.6898 41.2484 57.2394Z" fill="#263238"/>
<path d="M30.2808 67.0757C29.1804 65.4825 28.3572 63.6793 28.1612 61.8453C28.0406 60.9588 28.1963 60.0567 28.6072 59.262C29.0181 58.4673 29.6641 57.8186 30.4572 57.4045C31.2642 56.9473 32.1286 56.5998 33.0276 56.3713C33.9248 56.1147 34.8481 55.9606 35.78 55.9121C37.6906 55.8021 39.5906 56.2642 41.2372 57.2393C39.798 55.9065 37.7792 55.2093 35.7772 55.1729C34.771 55.1518 33.7664 55.2639 32.7896 55.5061C31.8011 55.7352 30.85 56.1028 29.9644 56.5981C29.0381 57.1228 28.2879 57.91 27.8084 58.8605C27.3649 59.8228 27.2318 60.8992 27.4276 61.9405C27.7944 63.9621 28.906 65.7065 30.2808 67.0757Z" fill="#263238"/>
<path d="M48.912 70.0326C53.6524 75.725 57.5752 82.9826 59.678 84.741C60.7756 85.6594 76.758 87.0734 78.5696 87.4318C81.3332 87.975 77.4244 102.132 75.5624 101.608C74.3472 101.269 55.9848 98.7298 52.6024 94.905C50.004 91.9622 45.8992 79.2782 44.8072 73.7062C43.5976 67.5098 47.022 67.7618 48.912 70.0326Z" fill="#EB9481"/>
<path d="M82.4084 102.283C79.239 102.248 76.0859 101.824 73.02 101.02C71.34 100.541 72.18 87.3506 73.9048 86.8578C79.2248 85.3262 86.5356 86.4182 88.9772 88.3698C91.4188 90.3214 85.5808 102.28 82.4084 102.283Z" fill="#EB9481"/>
<path d="M121.799 79.5274C118.82 81.2998 115.112 82.0838 111.803 83.019C109.988 83.5286 108.166 84.0064 106.334 84.4526C105.494 84.6598 104.654 84.853 103.814 85.0434C103.305 85.161 102.51 85.4886 101.972 85.3402C101.911 85.3259 101.856 85.2933 101.814 85.2467C101.772 85.2002 101.745 85.142 101.737 85.0798C101.734 85.0444 101.734 85.0088 101.737 84.9734C101.717 84.6626 110.417 82.1146 112.937 78.9254C114.211 77.3042 115.328 74.6358 114.102 72.6814C113.368 71.5166 111.884 71.3346 110.655 71.679C109.372 72.0402 108.017 73.5102 109.227 74.1038C109.344 73.891 109.739 73.9806 109.658 74.2466C109.412 74.8794 108.051 75.2602 107.334 74.423C106.183 73.0874 107.006 70.951 107.925 69.915C110.492 67.003 116.734 67.0478 118.817 70.9006C120.032 69.9934 121.639 70.3826 122.233 71.777C123.375 70.727 125.033 71.9226 125.313 73.3814C125.828 75.9574 123.871 78.301 121.799 79.5274Z" fill="#FED5ED"/>
<path d="M106.449 69.9961C106.169 69.6657 103.627 70.2593 104.234 71.4549C104.842 72.6505 106.872 70.4749 106.449 69.9961Z" fill="#FED5ED"/>
<path d="M105.035 73.1656C104.696 73.0452 103.551 74.5292 104.327 74.966C105.102 75.4028 105.318 73.2664 105.035 73.1656Z" fill="#FED5ED"/>
<path d="M119.13 69.94C119.458 69.7944 119.265 67.9268 118.402 68.1452C117.54 68.3636 118.853 70.0548 119.13 69.94Z" fill="#FED5ED"/>
<path d="M104.22 72.4601C104.089 72.2865 103.425 72.5049 103.677 72.8829C103.929 73.2609 104.38 72.6729 104.22 72.4601Z" fill="#FED5ED"/>
<path d="M118.811 67.4648C119.021 67.4116 119.091 66.7172 118.635 66.8012C118.178 66.8852 118.568 67.5264 118.811 67.4648Z" fill="#FED5ED"/>
<path d="M96.0668 88.0058L71.6536 96.025L70.766 92.9086L95.434 85.7742L96.0668 88.0058Z" fill="#A6A6A6"/>
<path d="M124.431 77.5225C124.431 77.5225 125.075 84.0773 122.79 84.7297L110.588 88.2017L98.3852 91.6737C96.1004 92.3233 93.1968 86.4125 93.1968 86.4125L124.431 77.5225Z" fill="#455A64"/>
<path d="M75.358 86.5357C75.358 86.5357 88.42 81.2465 88.14 86.8913C88.056 88.5713 85.7096 95.3585 84.3376 94.9133C82.5652 94.3393 83.016 91.3237 83.5984 89.4729C83.5984 89.4729 79.7848 91.7885 77.3796 89.6129C76.461 88.7707 75.7663 87.7132 75.358 86.5357Z" fill="#EB9481"/>
<path d="M88.14 86.4209C88.1853 87.0829 88.1334 87.7479 87.986 88.3949C87.8545 89.0449 87.6806 89.6857 87.4652 90.3129C87.0502 91.577 86.5255 92.8025 85.8972 93.9753C85.7285 94.2833 85.5174 94.5661 85.27 94.8153C85.1245 94.9618 84.9472 95.0729 84.752 95.1401C84.6473 95.1798 84.5364 95.2007 84.4244 95.2017C84.3139 95.2022 84.2041 95.1843 84.0996 95.1485C83.7228 95.0192 83.4043 94.7602 83.2008 94.4177C83.0221 94.1003 82.899 93.7546 82.8368 93.3957C82.735 92.714 82.7502 92.0199 82.8816 91.3433C82.9966 90.6786 83.1613 90.0234 83.3744 89.3833L83.716 89.6465C83.2698 89.8948 82.801 90.1001 82.316 90.2597C81.8367 90.4217 81.3424 90.5352 80.8404 90.5985C80.3386 90.6555 79.8312 90.6395 79.334 90.5509C78.8372 90.4629 78.362 90.2804 77.934 90.0133C78.3765 90.2159 78.8496 90.3436 79.334 90.3913C79.8161 90.4303 80.3013 90.4029 80.776 90.3101C81.2553 90.2244 81.7245 90.0893 82.176 89.9069C82.6209 89.7305 83.0483 89.513 83.4528 89.2573L83.9484 88.9381L83.7944 89.5205C83.6148 90.1396 83.4772 90.7701 83.3828 91.4077C83.2743 92.0278 83.2677 92.6615 83.3632 93.2837C83.4668 93.8661 83.7608 94.4597 84.2452 94.6109C84.6596 94.7817 85.1048 94.2133 85.4212 93.6841C85.7498 93.1262 86.0488 92.5514 86.3172 91.9621C86.5972 91.3713 86.8772 90.7777 87.1124 90.1701C87.58 88.9801 88.0644 87.7369 88.14 86.4209Z" fill="#263238"/>
<path d="M84.6176 86.1325C83.2316 86.9725 85.0152 88.1262 85.0152 88.1262C85.0152 88.1262 82.0472 87.0845 80.9524 88.5041C79.8996 89.8761 82.106 91.195 82.2628 91.2902C82.1032 91.237 79.3508 90.3521 78.3988 91.8921C77.4076 93.4937 79.8492 94.4346 80.0088 94.4962C79.8436 94.4962 77.6652 94.4765 77.2088 95.8121C76.422 98.1053 81.9912 98.2985 83.2708 99.7909C83.2708 99.7909 82.232 102.207 82.1816 102.291C82.1816 102.291 86.236 102.622 88.1484 100.788C88.4336 100.527 88.6199 100.175 88.676 99.7926C88.7321 99.41 88.6546 99.0198 88.4564 98.6878C88.4564 98.6878 90.1532 98.9677 90.94 97.7805C91.3432 97.1701 90.7244 95.9802 90.7244 95.9802C90.7244 95.9802 92.0936 96.1509 92.7292 95.0505C93.2388 94.1713 92.5388 93.1157 92.5388 93.1157C92.5388 93.1157 93.9388 92.6705 94.1572 91.6037C94.622 89.4561 87.58 84.3349 84.6176 86.1325Z" fill="#EB9481"/>
<path d="M92.4492 92.931C92.4533 92.9354 92.459 92.9381 92.465 92.9384C92.4711 92.9386 92.4769 92.9365 92.4814 92.9324C92.4859 92.9283 92.4885 92.9226 92.4888 92.9166C92.489 92.9105 92.4869 92.9046 92.4828 92.9002C90.5816 90.6602 87.804 88.7646 84.9228 88.0534C84.8276 88.031 84.7492 88.1738 84.85 88.2186C87.678 89.5178 90.0804 90.8954 92.4492 92.931Z" fill="#263238"/>
<path d="M90.7664 95.9801C90.7944 96.0025 90.8308 95.9605 90.8056 95.9325C88.8456 93.6253 85.6452 91.5869 82.232 91.1585C82.1172 91.1445 81.9968 91.2481 82.1312 91.2733C84.3768 91.7409 88.644 94.1489 90.7664 95.9801Z" fill="#263238"/>
<path d="M79.7596 94.5494C83.016 95.0842 85.7712 96.6102 88.378 98.587C88.4116 98.6122 88.4452 98.5618 88.4228 98.531C87.4092 97.2178 85.6228 96.1342 84.1528 95.4062C82.8051 94.7052 81.297 94.3701 79.7792 94.4346C79.7176 94.4374 79.6896 94.5354 79.7596 94.5494Z" fill="#263238"/>
<path d="M85.0152 88.14C84.4276 87.9927 83.8278 87.899 83.2232 87.86C82.6382 87.799 82.0475 87.8957 81.5124 88.14C81.2728 88.2637 81.088 88.4724 80.9944 88.7252C80.9023 88.9826 80.8773 89.2591 80.9216 89.5288C80.9893 89.7922 81.1115 90.0385 81.2803 90.2516C81.4491 90.4648 81.6607 90.6402 81.9016 90.7664L83.0524 91.4356L81.7392 91.2088C81.1568 91.1021 80.5609 91.0917 79.9752 91.178C79.7026 91.2038 79.4385 91.2864 79.1997 91.4204C78.961 91.5545 78.753 91.7371 78.5892 91.9564C78.4402 92.1633 78.3662 92.4147 78.3795 92.6692C78.3927 92.9238 78.4924 93.1662 78.662 93.3564C79.0527 93.7733 79.5432 94.0836 80.0872 94.258L81.5684 94.79L80.0004 94.7732C79.5637 94.7668 79.1279 94.8166 78.704 94.9216C78.2985 95.0062 77.9266 95.2077 77.6344 95.5012C77.5094 95.6397 77.4254 95.8102 77.3918 95.9936C77.3582 96.1771 77.3762 96.3663 77.444 96.54C77.6576 96.8988 77.9682 97.19 78.34 97.38C79.1402 97.8197 79.9745 98.1942 80.8348 98.5C81.2632 98.6708 81.6944 98.8416 82.1144 99.032C82.5508 99.1989 82.9461 99.4577 83.2736 99.7908C82.9171 99.5009 82.5071 99.284 82.0668 99.1524C81.6356 98.9956 81.196 98.8584 80.7564 98.7212C79.8577 98.4681 78.9848 98.1306 78.1496 97.7132C77.6923 97.4961 77.3087 97.1495 77.0464 96.7164C76.9299 96.4653 76.889 96.1857 76.9288 95.9117C76.9685 95.6377 77.0872 95.3813 77.2704 95.1736C77.6218 94.7984 78.077 94.5362 78.578 94.4204C79.0486 94.2963 79.5333 94.2333 80.02 94.2328L79.9332 94.748C79.2915 94.55 78.7124 94.1881 78.2532 93.698C78.0043 93.4184 77.8599 93.0613 77.8444 92.6872C77.844 92.3202 77.9532 91.9614 78.158 91.6568C78.3641 91.3773 78.6271 91.1447 78.9298 90.9743C79.2324 90.8039 79.5677 90.6997 79.9136 90.6684C80.5595 90.5833 81.2151 90.605 81.854 90.7328L81.6916 91.1724C81.3996 91.0044 81.148 90.7745 80.9545 90.4987C80.761 90.223 80.6303 89.9082 80.5716 89.5764C80.5306 89.2416 80.5779 88.9018 80.7088 88.5908C80.8448 88.2736 81.0916 88.0168 81.4032 87.8684C81.9941 87.6364 82.6381 87.5744 83.2624 87.6892C83.8618 87.7728 84.4498 87.9241 85.0152 88.14Z" fill="#263238"/>
<path d="M72.5328 85.6734L70.248 101.099C70.248 101.099 53.8428 98.2986 51.1632 95.2186C48.4836 92.1386 45.7564 79.897 44.4432 73.7286C43.13 67.5602 46.5544 65.6282 50.34 70.755C54.1256 75.8818 58.4348 83.6938 59.4372 84.153C60.4396 84.6122 72.5328 85.6734 72.5328 85.6734Z" fill="#FED5ED"/>
<path opacity="0.1" d="M65.9416 100.27C60.8848 99.2141 52.9552 97.2821 51.1632 95.2297C48.4808 92.1497 45.7592 79.9081 44.4432 73.7425C43.7768 70.5981 44.3396 68.5541 45.5632 67.9885C48.4052 72.3873 60.0308 90.3997 65.9416 100.27Z" fill="black"/>
<path d="M74.4564 85.5304C74.4172 85.4464 69.7608 84.6372 69.7608 84.6372C69.7608 84.6372 65.5608 92.06 65.5608 92.9504C65.5608 93.8408 65.4684 100.603 65.5384 100.687C65.6084 100.771 71.2028 102.238 71.3176 102.087C71.4324 101.936 71.8104 94.6444 71.83 94.0872C71.8496 93.53 74.4564 85.5304 74.4564 85.5304Z" fill="#FED5ED"/>
<path opacity="0.2" d="M74.4564 85.5304C74.4172 85.4464 69.7608 84.6372 69.7608 84.6372C69.7608 84.6372 65.5608 92.06 65.5608 92.9504C65.5608 93.8408 65.4684 100.603 65.5384 100.687C65.6084 100.771 71.2028 102.238 71.3176 102.087C71.4324 101.936 71.8104 94.6444 71.83 94.0872C71.8496 93.53 74.4564 85.5304 74.4564 85.5304Z" fill="black"/>
<path d="M56.962 114.488L53.602 96.123C53.602 96.123 56.962 93.043 56.6148 87.5438C56.43 84.5814 51.0596 73.9778 48.1812 70.265C45.4792 66.7846 39.6412 66.9722 36.0404 71.3402C24.412 85.4466 20.8196 104.167 19.3244 114.488H56.962Z" fill="#FED5ED"/>
<path d="M39.8596 71.0432C40.8046 72.1429 41.9435 73.0597 43.2196 73.748C44.4776 74.4504 45.8778 74.86 47.316 74.9464C48.0316 74.9775 48.7483 74.9267 49.4524 74.7952L49.976 74.6804H50.032C50.0568 74.6819 50.0809 74.6896 50.102 74.7028C50.1156 74.7112 50.1279 74.7215 50.1384 74.7336L50.1552 74.756C50.1714 74.7775 50.1864 74.8 50.2 74.8232L50.27 74.9464C50.3148 75.0304 50.354 75.1116 50.3932 75.1956C50.5472 75.5288 50.6872 75.8648 50.8216 76.2008C51.3516 77.5539 51.8087 78.9344 52.1908 80.3364C52.5796 81.7369 52.8863 83.1589 53.1092 84.5952C53.3341 86.0341 53.4278 87.4905 53.3892 88.9464C53.367 90.4118 53.105 91.8637 52.6136 93.2444C52.1178 94.636 51.2312 95.8552 50.06 96.7556L50.1104 96.6436L51.1128 105.542L52.076 114.446L50.956 105.562L49.8724 96.6716V96.6016L49.9284 96.5596C51.0635 95.6838 51.9212 94.4985 52.398 93.1464C52.8761 91.7921 53.1286 90.3685 53.1456 88.9324C53.21 86.054 52.7088 83.1812 51.9612 80.398C51.5848 79.0048 51.1343 77.6327 50.6116 76.2876C50.48 75.9516 50.3316 75.6184 50.1916 75.2936C50.1524 75.2124 50.116 75.1312 50.074 75.0528C50.0544 75.0164 50.0348 74.9772 50.0124 74.9408C49.99 74.9044 49.99 74.9072 49.9844 74.896C50.0014 74.906 50.0207 74.9118 50.0404 74.9128L49.5028 75.0276C48.7804 75.1553 48.0454 75.1966 47.3132 75.1508C45.8449 75.0448 44.4204 74.6032 43.1496 73.86C41.8894 73.1309 40.7741 72.1761 39.8596 71.0432Z" fill="#263238"/>
<path d="M43.34 82.3498C43.34 82.5159 43.2907 82.6783 43.1984 82.8164C43.1061 82.9546 42.9749 83.0622 42.8215 83.1258C42.668 83.1894 42.4991 83.206 42.3361 83.1736C42.1732 83.1412 42.0235 83.0612 41.906 82.9437C41.7886 82.8263 41.7086 82.6766 41.6761 82.5136C41.6437 82.3507 41.6604 82.1818 41.7239 82.0283C41.7875 81.8748 41.8952 81.7436 42.0333 81.6513C42.1715 81.559 42.3339 81.5098 42.5 81.5098C42.7228 81.5098 42.9364 81.5983 43.094 81.7558C43.2515 81.9133 43.34 82.127 43.34 82.3498Z" fill="#263238"/>
<path d="M51.2612 82.7865C51.2612 82.9527 51.2119 83.1151 51.1196 83.2532C51.0273 83.3914 50.8961 83.499 50.7427 83.5626C50.5892 83.6262 50.4203 83.6428 50.2573 83.6104C50.0944 83.578 49.9447 83.498 49.8272 83.3805C49.7098 83.263 49.6297 83.1134 49.5973 82.9504C49.5649 82.7875 49.5816 82.6186 49.6451 82.4651C49.7087 82.3116 49.8164 82.1804 49.9545 82.0881C50.0927 81.9958 50.2551 81.9465 50.4212 81.9465C50.644 81.9465 50.8576 82.035 51.0152 82.1926C51.1727 82.3501 51.2612 82.5638 51.2612 82.7865Z" fill="#263238"/>
<path d="M42.22 88.6274C42.22 88.7935 42.1707 88.9559 42.0784 89.094C41.9861 89.2322 41.8549 89.3398 41.7015 89.4034C41.548 89.467 41.3791 89.4836 41.2161 89.4512C41.0532 89.4188 40.9035 89.3388 40.786 89.2213C40.6686 89.1039 40.5885 88.9542 40.5561 88.7912C40.5237 88.6283 40.5404 88.4594 40.6039 88.3059C40.6675 88.1524 40.7752 88.0212 40.9133 87.9289C41.0515 87.8366 41.2139 87.7874 41.38 87.7874C41.6028 87.7874 41.8164 87.8759 41.974 88.0334C42.1315 88.1909 42.22 88.4046 42.22 88.6274Z" fill="#263238"/>
<path d="M39.5852 96.123C39.5852 96.2891 39.5359 96.4515 39.4436 96.5896C39.3513 96.7278 39.2201 96.8354 39.0667 96.899C38.9132 96.9626 38.7443 96.9792 38.5813 96.9468C38.4184 96.9144 38.2687 96.8344 38.1512 96.7169C38.0338 96.5994 37.9537 96.4498 37.9213 96.2868C37.8889 96.1239 37.9056 95.955 37.9691 95.8015C38.0327 95.648 38.1404 95.5168 38.2785 95.4245C38.4167 95.3322 38.5791 95.283 38.7452 95.283C38.968 95.283 39.1816 95.3715 39.3392 95.529C39.4967 95.6865 39.5852 95.9002 39.5852 96.123Z" fill="#263238"/>
<path d="M39.3164 103.504C39.3164 103.67 39.2671 103.832 39.1748 103.97C39.0825 104.109 38.9513 104.216 38.7978 104.28C38.6444 104.343 38.4755 104.36 38.3125 104.328C38.1496 104.295 37.9999 104.215 37.8824 104.098C37.765 103.98 37.6849 103.831 37.6525 103.668C37.6201 103.505 37.6368 103.336 37.7003 103.182C37.7639 103.029 37.8716 102.898 38.0097 102.805C38.1479 102.713 38.3103 102.664 38.4764 102.664C38.6992 102.664 38.9128 102.752 39.0704 102.91C39.2279 103.067 39.3164 103.281 39.3164 103.504Z" fill="#263238"/>
<path d="M50.7712 89.2602C50.7712 89.4263 50.7219 89.5887 50.6296 89.7268C50.5373 89.865 50.4061 89.9726 50.2527 90.0362C50.0992 90.0998 49.9303 90.1164 49.7673 90.084C49.6044 90.0516 49.4547 89.9716 49.3372 89.8541C49.2198 89.7367 49.1398 89.587 49.1073 89.424C49.0749 89.2611 49.0916 89.0922 49.1551 88.9387C49.2187 88.7852 49.3264 88.654 49.4645 88.5617C49.6027 88.4694 49.7651 88.4202 49.9312 88.4202C50.154 88.4202 50.3676 88.5087 50.5252 88.6662C50.6827 88.8237 50.7712 89.0374 50.7712 89.2602Z" fill="#263238"/>
<path d="M48.0832 103.347C48.0832 103.513 48.0339 103.675 47.9416 103.814C47.8493 103.952 47.7181 104.059 47.5646 104.123C47.4112 104.186 47.2423 104.203 47.0793 104.171C46.9164 104.138 46.7667 104.058 46.6492 103.941C46.5318 103.823 46.4518 103.674 46.4193 103.511C46.3869 103.348 46.4036 103.179 46.4671 103.025C46.5307 102.872 46.6384 102.741 46.7765 102.648C46.9147 102.556 47.0771 102.507 47.2432 102.507C47.466 102.507 47.6796 102.595 47.8372 102.753C47.9947 102.91 48.0832 103.124 48.0832 103.347Z" fill="#263238"/>
<path d="M38.9328 111.663C39.3921 111.663 39.7644 111.291 39.7644 110.831C39.7644 110.372 39.3921 110 38.9328 110C38.4735 110 38.1012 110.372 38.1012 110.831C38.1012 111.291 38.4735 111.663 38.9328 111.663Z" fill="#263238"/>
<path d="M48.5312 110.674C48.5312 110.841 48.4819 111.003 48.3896 111.141C48.2973 111.279 48.1661 111.387 48.0127 111.451C47.8592 111.514 47.6903 111.531 47.5273 111.498C47.3644 111.466 47.2147 111.386 47.0972 111.268C46.9798 111.151 46.8997 111.001 46.8673 110.838C46.8349 110.675 46.8516 110.507 46.9151 110.353C46.9787 110.2 47.0864 110.068 47.2245 109.976C47.3627 109.884 47.5251 109.834 47.6912 109.834C47.914 109.834 48.1276 109.923 48.2852 110.08C48.4427 110.238 48.5312 110.452 48.5312 110.674Z" fill="#263238"/>
<path d="M48.2792 96.4057C48.2792 96.5718 48.2299 96.7342 48.1376 96.8724C48.0453 97.0105 47.9141 97.1182 47.7607 97.1817C47.6072 97.2453 47.4383 97.2619 47.2753 97.2295C47.1124 97.1971 46.9627 97.1171 46.8452 96.9996C46.7278 96.8822 46.6477 96.7325 46.6153 96.5696C46.5829 96.4066 46.5996 96.2377 46.6631 96.0842C46.7267 95.9307 46.8344 95.7995 46.9725 95.7072C47.1107 95.6149 47.2731 95.5657 47.4392 95.5657C47.662 95.5657 47.8756 95.6542 48.0332 95.8117C48.1907 95.9692 48.2792 96.1829 48.2792 96.4057Z" fill="#263238"/>
<path d="M48.7384 67.7897C48.7384 67.7897 49.8584 72.8857 48.926 73.1265C46.0924 73.8741 42.234 70.4469 41.954 69.8505C41.884 69.6965 41.4528 65.6701 41.114 62.5369C40.9012 60.5237 40.736 58.8801 40.736 58.8801L48.786 61.8705L48.7328 67.3949L48.7384 67.7897Z" fill="#EB9481"/>
<path d="M48.7972 61.8705L48.744 67.3949C47.2041 67.1658 45.7297 66.6147 44.417 65.7777C43.1043 64.9406 41.9827 63.8364 41.1252 62.5369C40.9124 60.5237 40.7472 58.8801 40.7472 58.8801L41.7552 59.2161L48.7972 61.8705Z" fill="#263238"/>
<path d="M55.3632 53.6469C56.4832 63.2817 50.8384 65.0373 48.7608 65.2753C46.8736 65.4937 40.4252 65.9921 38.3168 56.5253C36.2084 47.0585 40.3356 43.4913 44.6252 42.7689C48.9148 42.0465 54.26 44.0121 55.3632 53.6469Z" fill="#EB9481"/>
<path d="M53.6216 52.8993C53.3996 52.8742 53.179 52.8378 52.9608 52.7901C52.7232 52.784 52.4941 52.7005 52.3084 52.5521C52.2594 52.4934 52.231 52.4203 52.2274 52.344C52.2239 52.2676 52.2455 52.1922 52.2888 52.1293C52.3951 52.0187 52.529 51.9384 52.6766 51.8965C52.8242 51.8547 52.9803 51.8529 53.1288 51.8913C53.439 51.9228 53.7264 52.0685 53.9352 52.3001C53.9812 52.3557 54.0098 52.4237 54.0173 52.4956C54.0248 52.5674 54.011 52.6399 53.9775 52.7038C53.944 52.7678 53.8923 52.8205 53.829 52.8553C53.7657 52.89 53.6936 52.9053 53.6216 52.8993Z" fill="#263238"/>
<path d="M47.0108 53.325C47.227 53.2701 47.4401 53.2038 47.6492 53.1262C47.8849 53.0875 48.1013 52.9723 48.2652 52.7986C48.3053 52.7337 48.3229 52.6574 48.3154 52.5814C48.3078 52.5055 48.2754 52.4342 48.2232 52.3786C48.1038 52.2845 47.9616 52.2238 47.8111 52.2027C47.6605 52.1815 47.5071 52.2007 47.3664 52.2582C47.0629 52.3317 46.7974 52.5153 46.6216 52.7734C46.5851 52.8347 46.5671 52.9054 46.5699 52.9767C46.5727 53.0481 46.5961 53.1171 46.6372 53.1754C46.6784 53.2338 46.7356 53.279 46.8019 53.3055C46.8682 53.332 46.9407 53.3388 47.0108 53.325Z" fill="#263238"/>
<path d="M48.5816 55.1365C48.5816 55.1113 48.5312 55.1701 48.534 55.1981C48.6012 55.8533 48.5648 56.6177 47.974 56.8781C47.9544 56.8781 47.96 56.9201 47.974 56.9145C48.7132 56.7633 48.7496 55.7469 48.5816 55.1365Z" fill="#263238"/>
<path d="M47.946 54.4868C46.8792 54.4868 46.9436 56.612 47.9292 56.6176C48.9148 56.6232 48.8364 54.4952 47.946 54.4868Z" fill="#263238"/>
<path d="M47.54 54.6128C47.358 54.7388 47.1816 54.9572 46.9604 54.9852C46.7392 55.0132 46.4984 54.8032 46.322 54.5932C46.3024 54.5708 46.2856 54.5932 46.2856 54.6184C46.2856 55.0272 46.462 55.4416 46.9016 55.4892C47.3412 55.5368 47.5764 55.1616 47.666 54.75C47.6716 54.6716 47.6044 54.5624 47.54 54.6128Z" fill="#263238"/>
<path d="M52.2496 54.8594C52.2496 54.8342 52.3028 54.8902 52.3028 54.9182C52.3028 55.579 52.398 56.335 53 56.5422C53.0196 56.5422 53.0196 56.5814 53 56.5786C52.2664 56.5002 52.1376 55.4838 52.2496 54.8594Z" fill="#263238"/>
<path d="M52.8236 54.1565C53.8848 54.0529 54.0136 56.1809 53.0308 56.2761C52.048 56.3713 51.936 54.2433 52.8236 54.1565Z" fill="#263238"/>
<path d="M53.2772 54.26C53.4508 54.3608 53.63 54.5568 53.8372 54.5568C54.0444 54.5568 54.2292 54.316 54.3636 54.0864C54.3776 54.064 54.3972 54.0864 54.3972 54.1088C54.4336 54.5148 54.3272 54.9488 53.9408 55.0496C53.5544 55.1504 53.3052 54.8088 53.182 54.4084C53.154 54.3468 53.2044 54.2292 53.2772 54.26Z" fill="#263238"/>
<path d="M48.5984 60.3388C48.7552 60.4956 48.9092 60.7112 49.1584 60.7336C49.4036 60.7328 49.646 60.6803 49.8696 60.5796C49.8741 60.5773 49.8793 60.5765 49.8843 60.5776C49.8893 60.5786 49.8938 60.5813 49.8971 60.5852C49.9003 60.5891 49.9022 60.594 49.9023 60.5991C49.9024 60.6042 49.9007 60.6092 49.8976 60.6132C49.8017 60.7411 49.673 60.8407 49.5251 60.9014C49.3772 60.962 49.2157 60.9814 49.0576 60.9576C48.9234 60.9212 48.8032 60.8454 48.7124 60.7402C48.6216 60.6349 48.5644 60.5049 48.548 60.3668C48.5256 60.3276 48.576 60.3164 48.5984 60.3388Z" fill="#263238"/>
<path d="M51.2584 57.8385C51.2584 57.8385 51.4348 58.8185 51.4544 59.2833C51.4544 59.3253 51.3452 59.3505 51.1884 59.3673C51.1884 59.3673 51.1884 59.3673 51.1688 59.3673C50.7731 59.4561 50.3606 59.4343 49.9764 59.3044C49.5922 59.1746 49.2511 58.9416 48.9904 58.6309C48.9843 58.6219 48.9815 58.6111 48.9824 58.6002C48.9833 58.5894 48.9879 58.5792 48.9955 58.5713C49.003 58.5634 49.013 58.5584 49.0238 58.557C49.0346 58.5556 49.0455 58.558 49.0548 58.5637C49.6652 58.9439 50.3822 59.1168 51.0988 59.0565C51.124 58.9277 50.7376 57.3905 50.8188 57.3765C51.1815 57.3945 51.5402 57.4604 51.8856 57.5725C51.5748 55.5201 50.9392 53.5349 50.662 51.4881C50.6616 51.4737 50.666 51.4597 50.6745 51.4481C50.6831 51.4365 50.6952 51.4281 50.7091 51.4242C50.7229 51.4204 50.7377 51.4213 50.7509 51.4267C50.7642 51.4322 50.7753 51.442 50.7824 51.4545C51.5944 53.4873 52.0032 55.8393 52.3784 57.9505C52.4204 58.2193 51.46 57.9001 51.2584 57.8385Z" fill="#263238"/>
<path d="M50.9448 59.1628C50.7282 59.5266 50.4216 59.8284 50.0544 60.0392C49.8508 60.1466 49.6191 60.1886 49.3908 60.1596C48.8896 60.0896 48.8308 59.6472 48.87 59.258C48.8942 59.0504 48.9431 58.8464 49.0156 58.6504C49.5878 59.0221 50.2636 59.2016 50.9448 59.1628Z" fill="#263238"/>
<path d="M50.06 60.0392C49.8564 60.1466 49.6247 60.1886 49.3964 60.1596C48.8952 60.0896 48.8364 59.6472 48.8756 59.258C49.3936 59.2496 49.9508 59.538 50.06 60.0392Z" fill="#FF9CBD"/>
<path d="M38.2048 56.6149C39.8372 56.7409 40.2096 53.3221 40.2096 53.3221C40.2096 53.3221 43.522 53.3221 44.6168 48.5621C44.6168 48.5621 44.544 50.7797 43.1496 52.5017C43.1496 52.5017 48.9904 51.8829 51.4516 46.9941C51.4516 46.9941 50.4688 49.4833 49.5504 50.3709C49.5504 50.3709 52.0004 49.6849 53.1904 47.6969C53.1904 47.6969 54.2152 50.5193 55.002 51.2977C55.002 51.2977 54.7612 41.0777 45.2916 42.1641C45.2916 42.1641 39.3612 42.5561 37.2332 47.2517C35.1052 51.9473 38.2048 56.6149 38.2048 56.6149Z" fill="#263238"/>
<path d="M39.9352 57.0852C39.9352 57.0852 37.7316 54.1228 36.3792 54.9152C35.0268 55.7076 36.746 60.0504 38.3756 60.6048C38.5797 60.6898 38.7989 60.7327 39.02 60.7308C39.2412 60.729 39.4596 60.6825 39.6623 60.5941C39.865 60.5057 40.0477 60.3772 40.1995 60.2165C40.3513 60.0557 40.469 59.8659 40.5456 59.6584L39.9352 57.0852Z" fill="#EB9481"/>
<path d="M36.9 56.1472C36.8941 56.1472 36.8884 56.1496 36.8842 56.1538C36.88 56.158 36.8776 56.1637 36.8776 56.1696C36.8776 56.1756 36.88 56.1813 36.8842 56.1855C36.8884 56.1897 36.8941 56.192 36.9 56.192C38.0452 56.6148 38.6696 57.648 39.1176 58.712C38.7704 58.306 38.3056 58.0876 37.7568 58.5048C37.7288 58.5272 37.7568 58.572 37.7904 58.5636C37.9874 58.4947 38.201 58.4887 38.4016 58.5464C38.6023 58.604 38.78 58.7226 38.9104 58.8856C39.1277 59.159 39.3154 59.4546 39.4704 59.7676C39.5264 59.8656 39.7056 59.8068 39.6636 59.692V59.6668C39.6328 58.2332 38.454 56.248 36.9 56.1472Z" fill="#263238"/>
<path d="M39.2716 60.1402C39.2723 60.1848 39.2642 60.2291 39.2476 60.2705C39.2311 60.3119 39.2065 60.3496 39.1752 60.3814C39.1439 60.4132 39.1066 60.4385 39.0655 60.4557C39.0244 60.4729 38.9802 60.4818 38.9356 60.4818C38.8911 60.4818 38.847 60.473 38.8059 60.456C38.7648 60.439 38.7275 60.414 38.696 60.3826C38.6646 60.3511 38.6396 60.3138 38.6226 60.2727C38.6056 60.2315 38.5968 60.1875 38.5968 60.143C38.5968 60.0985 38.6056 60.0544 38.6226 60.0133C38.6396 59.9722 38.6646 59.9349 38.696 59.9034C38.7275 59.872 38.7648 59.847 38.8059 59.83C38.847 59.813 38.8911 59.8042 38.9356 59.8042C39.0247 59.8042 39.1102 59.8396 39.1732 59.9026C39.2362 59.9656 39.2716 60.0511 39.2716 60.1402Z" fill="white"/>
<path d="M38.3196 59.5634C38.3202 59.6063 38.3079 59.6483 38.2844 59.6842C38.261 59.7201 38.2273 59.7482 38.1878 59.7648C38.1483 59.7815 38.1047 59.786 38.0626 59.7778C38.0206 59.7696 37.9819 59.749 37.9516 59.7186C37.9212 59.6883 37.9007 59.6496 37.8924 59.6076C37.8842 59.5655 37.8887 59.5219 37.9054 59.4824C37.922 59.4429 37.9501 59.4092 37.986 59.3858C38.0219 59.3623 38.0639 59.3501 38.1068 59.3506C38.1632 59.3506 38.2174 59.373 38.2573 59.4129C38.2972 59.4528 38.3196 59.507 38.3196 59.5634Z" fill="white"/>
<path d="M36.9924 52.8965C36.8776 52.8209 26.4084 38.4065 25.5124 37.0765C25.112 36.4857 28.3124 27.2765 33.6128 24.7565C37.4376 22.9225 44.39 24.4317 45.6724 24.9973C47.1984 25.6749 53.0336 44.2725 53.0336 44.2725L43.9168 48.0357L36.9924 52.8965Z" fill="#FED5ED"/>
<g opacity="0.1">
<path d="M37.6476 50.175C37.4465 50.0034 37.2761 49.7989 37.1436 49.5702C36.9896 49.3462 36.8328 49.1222 36.6704 48.9066C36.3392 48.474 35.976 48.0669 35.584 47.6886C35.2963 47.3435 34.9025 47.1033 34.464 47.0054C34.2706 46.9844 34.0754 47.0225 33.904 47.1146C33.7898 47.1648 33.6855 47.2349 33.596 47.3218C33.5344 47.4002 33.498 47.5262 33.442 47.6018C33.4252 47.6298 33.4728 47.655 33.4868 47.627C33.5279 47.4913 33.619 47.3762 33.7416 47.305C33.841 47.2534 33.9463 47.2139 34.0552 47.1874C34.2893 47.1393 34.5329 47.1802 34.7384 47.3022C35.1195 47.5531 35.4555 47.8664 35.7324 48.229C36.0432 48.579 36.3596 48.929 36.6732 49.279C36.9868 49.629 37.2136 50.0266 37.6084 50.217C37.642 50.245 37.6812 50.1974 37.6476 50.175Z" fill="black"/>
<path d="M38.7284 50.0602C38.0788 49.1512 37.4255 48.244 36.7684 47.3386C36.0733 46.4496 35.4824 45.4838 35.0072 44.4602C35.0072 44.4294 34.9456 44.4602 34.9596 44.4742C35.352 45.5368 35.864 46.5513 36.4856 47.4982C37.1469 48.4259 37.8809 49.2994 38.6808 50.1106C38.6875 50.117 38.6964 50.1204 38.7056 50.1201C38.7148 50.1198 38.7235 50.1159 38.7298 50.1092C38.7361 50.1026 38.7395 50.0936 38.7392 50.0845C38.739 50.0753 38.7351 50.0666 38.7284 50.0602Z" fill="black"/>
<path d="M41.4416 47.2601C40.8592 46.4985 40.2012 45.7957 39.5516 45.0929C38.9825 44.4729 38.3349 43.9297 37.6252 43.4773C37.5972 43.4605 37.572 43.5025 37.5972 43.5221C38.2916 44.0261 38.8068 44.7261 39.378 45.3589C39.9996 46.0505 40.6268 46.7589 41.3128 47.3833C41.3297 47.3976 41.3513 47.4052 41.3734 47.4045C41.3956 47.4039 41.4167 47.395 41.4327 47.3797C41.4487 47.3644 41.4585 47.3437 41.4601 47.3216C41.4618 47.2995 41.4552 47.2776 41.4416 47.2601Z" fill="black"/>
<path d="M43.7012 38.4737C43.569 38.4167 43.4259 38.3896 43.2821 38.3943C43.1383 38.399 42.9972 38.4355 42.8691 38.501C42.741 38.5665 42.6289 38.6596 42.5409 38.7734C42.4529 38.8873 42.3911 39.0192 42.36 39.1597C42.1892 39.8653 42.486 40.6689 42.724 41.3269C42.9867 42.0409 43.3345 42.7207 43.76 43.3513C44.2448 44.0612 44.8221 44.7034 45.4764 45.2609C45.4988 45.2833 45.5352 45.2609 45.5128 45.2273C44.6028 44.2324 43.8775 43.0832 43.3708 41.8337C43.1146 41.2226 42.9159 40.5889 42.7772 39.9409C42.6624 39.4005 42.7772 38.4513 43.5416 38.5409C44.2668 38.6361 44.6336 39.4733 45.174 39.8709C45.174 39.8709 45.1992 39.8709 45.174 39.8513C44.6392 39.4369 44.3704 38.7509 43.7012 38.4737Z" fill="black"/>
<path d="M49.0492 37.9698C48.7101 39.0384 48.7387 40.1897 49.1304 41.2402C49.3354 41.8257 49.6 42.3887 49.92 42.9202C50.2211 43.4878 50.5775 44.0242 50.984 44.5218C50.988 44.5258 50.9932 44.5284 50.9988 44.5291C51.0044 44.5298 51.0101 44.5286 51.0149 44.5257C51.0198 44.5228 51.0235 44.5183 51.0255 44.5131C51.0275 44.5078 51.0277 44.502 51.026 44.4966C50.7908 43.9366 50.4296 43.441 50.186 42.8922C49.9289 42.3423 49.7127 41.7743 49.5392 41.1926C49.3962 40.6763 49.2905 40.1504 49.2228 39.619C49.1543 39.0813 49.143 38.5379 49.1892 37.9978C49.1892 37.925 49.0744 37.8914 49.0492 37.9698Z" fill="black"/>
<path d="M47.722 42.1361C47.3442 41.248 46.9035 40.3881 46.4032 39.5629C46.3925 39.5476 46.3765 39.5367 46.3583 39.5325C46.3401 39.5282 46.3209 39.5309 46.3046 39.54C46.2882 39.549 46.2758 39.5638 46.2697 39.5815C46.2636 39.5992 46.2643 39.6185 46.2716 39.6357C46.6888 40.4953 47.0528 41.3801 47.4168 42.2621C47.7808 43.1441 48.0804 44.0429 48.4948 44.8885C48.5088 44.9165 48.5452 44.8885 48.5424 44.8689C48.3885 43.9263 48.1127 43.0076 47.722 42.1361Z" fill="black"/>
</g>
<path d="M52.86 42.22C52.2468 42.0044 44.796 42.2956 42.2004 43.9C39.896 45.314 35.8528 49.29 34.8392 50.9448C34.6712 51.2248 36.5192 54.1536 37.1184 54.4056C37.474 54.554 42.0828 50.4688 44.6532 48.7888C46.8456 47.3552 52.4932 46.8288 53.924 46.7504C54.1424 46.728 53.224 42.3432 52.86 42.22Z" fill="#FED5ED"/>
<path opacity="0.2" d="M52.86 42.22C52.2468 42.0044 44.796 42.2956 42.2004 43.9C39.896 45.314 35.8528 49.29 34.8392 50.9448C34.6712 51.2248 36.5192 54.1536 37.1184 54.4056C37.474 54.554 42.0828 50.4688 44.6532 48.7888C46.8456 47.3552 52.4932 46.8288 53.924 46.7504C54.1424 46.728 53.224 42.3432 52.86 42.22Z" fill="black"/>
<path d="M47.1732 74.2773C47.1732 74.2773 46.7868 71.6285 46.56 71.4045C46.3332 71.1805 43.1412 69.6573 41.6292 67.2577C41.2484 66.6529 39.7532 68.795 39.7532 68.795C39.7532 68.795 40.8732 71.8554 43.4632 73.4934C46.0532 75.1314 49.1528 74.7926 49.808 74.3334C50.0208 74.1878 49.29 69.761 49.2144 69.9598C49.0247 70.4878 48.7184 70.9663 48.3184 71.3598C48.2036 71.4774 48.6628 74.073 48.6628 74.073L47.1732 74.2773Z" fill="#FED5ED"/>
<path d="M36.4072 70.4722C31.0032 74.9298 14.612 92.9002 15.6396 98.7802C16.404 103.145 21.22 104.45 25.3696 102.613C28.9844 101.015 37.3928 81.7114 39.6944 76.2934C41.884 71.1246 41.7188 66.0958 36.4072 70.4722Z" fill="#EB9481"/>
<path d="M36.4072 70.4722C31.0032 74.9298 14.612 92.9002 15.6396 98.7802C16.404 103.145 21.22 104.45 25.3696 102.613C28.9844 101.015 37.3928 81.7114 39.6944 76.2934C41.884 71.1246 41.7188 66.0958 36.4072 70.4722Z" fill="#FED5ED"/>
<path d="M39.2352 77.808C39.2385 77.8002 39.2386 77.7914 39.2355 77.7835C39.2323 77.7757 39.2262 77.7694 39.2184 77.766C39.2106 77.7627 39.2018 77.7626 39.1939 77.7657C39.186 77.7689 39.1797 77.775 39.1764 77.7828C38.5856 79.152 37.9808 80.5156 37.3508 81.868C36.7208 83.2204 36.116 84.5868 35.4832 85.9392C34.2232 88.6347 32.8829 91.29 31.4624 93.9052C31.0648 94.6388 30.656 95.364 30.25 96.092C29.844 96.82 29.41 97.548 29.018 98.2928C29.018 98.3152 29.0376 98.3348 29.0516 98.3152C29.4912 97.7104 29.8916 97.0692 30.2836 96.4364C30.6756 95.8036 31.062 95.1764 31.4372 94.5352C32.1876 93.2556 32.9268 91.9648 33.624 90.6544C34.3212 89.344 35.024 87.986 35.6652 86.6308C36.1944 85.5332 36.7124 84.4216 37.1856 83.296C37.292 83.1448 37.3984 82.9908 37.502 82.834C37.7092 82.5176 37.9108 82.1956 38.1124 81.8736C38.51 81.2436 38.86 80.5884 39.2324 79.95C39.2548 79.9108 39.1876 79.866 39.1624 79.908C38.762 80.5352 38.3224 81.1428 37.95 81.7812L37.4712 82.582C38.1152 81.0028 38.6948 79.4096 39.2352 77.808Z" fill="#263238"/>
<path d="M16.9248 101.283C13.3632 97.4333 18.0448 93.3257 21.7016 93.2109C30.2948 92.9449 42.78 95.2521 49.6652 97.6573C52.0256 98.4805 52.5996 112.019 49.9256 111.937C45.1824 111.814 24.1516 109.093 16.9248 101.283Z" fill="#EB9481"/>
<path d="M46.2856 96.6914C46.2856 96.6914 47.1872 96.8202 52.062 96.7138C55.422 96.641 63.6848 98.6178 67.3276 107.354C68.7276 110.714 66.9832 113.147 64.914 109.924C63.458 107.653 62.6432 105.954 61.96 105.346C61.96 105.346 61.54 109.454 59.4596 110.635C57.6402 111.671 55.7491 112.575 53.8008 113.34C53.5801 113.015 53.38 112.677 53.2016 112.327C52.3371 112.72 51.3791 112.861 50.4378 112.734C49.4966 112.607 48.6104 112.216 47.8816 111.607L46.2856 96.6914Z" fill="#EB9481"/>
<path d="M55.2876 97.1589C56.6428 98.2789 59.4876 100.74 61.0976 103.549C62.898 106.671 65.5244 113.167 63.206 114.469C61.5092 115.426 60.2884 113.032 60.2884 113.032C60.2884 113.032 60.8064 115.947 59.0844 116.476C57.5108 116.958 56.6792 115.051 56.6792 115.051C56.6792 115.051 56.6792 116.871 55.086 117.045C53.1596 117.252 53.4508 113.405 51.3172 111.923C50.8384 111.596 55.2876 97.1589 55.2876 97.1589Z" fill="#EB9481"/>
<path d="M57.4828 104.901C58.5832 106.175 60.3388 109.711 60.3276 112.971C60.3276 113.046 60.2688 113.085 60.2548 113.018C59.6532 110.215 58.713 107.494 57.4548 104.918C57.4436 104.901 57.4716 104.887 57.4828 104.901Z" fill="#263238"/>
<path d="M54.386 106.811C55.226 108.006 56.8696 111.733 56.7436 115.037C56.7436 115.11 56.682 115.146 56.6708 115.076C56.2138 112.247 55.437 109.479 54.3552 106.825C54.3468 106.808 54.3748 106.794 54.386 106.811Z" fill="#263238"/>
<path d="M45.3588 94.8236L42.766 104.064L42.3768 112.78C42.3768 112.78 14.9368 105.895 15.606 98.29C15.8356 95.7252 18.2828 92.3092 24.006 92.1132C29.7292 91.9172 45.3588 94.8236 45.3588 94.8236Z" fill="#FED5ED"/>
<path d="M45.4344 95.0449C44.8408 94.8769 44.2584 94.6837 43.6592 94.5297C43.06 94.3757 42.4916 94.2329 41.9036 94.0985C40.722 93.8185 39.5208 93.6057 38.3252 93.4069C35.9588 93.0114 33.5739 92.7357 31.1796 92.5809C30.3032 92.3009 29.396 92.1021 28.5056 91.8613C28.4804 91.8613 28.4748 91.8949 28.5056 91.9033C29.2336 92.1105 29.956 92.3541 30.6868 92.5529C30.1268 92.5193 29.5668 92.4885 29.0236 92.4689C28.3516 92.4409 27.6768 92.4689 27.0048 92.4689C26.9824 92.4689 26.9796 92.5109 27.0048 92.5109C27.6012 92.5417 28.2004 92.6145 28.794 92.6705C29.3876 92.7265 30.0148 92.7713 30.6224 92.8301C31.832 92.9477 33.0388 93.0793 34.24 93.2361C36.6368 93.5525 39.0336 93.9165 41.4024 94.3925C42.066 94.5269 42.7324 94.6445 43.396 94.7789C44.0596 94.9133 44.7484 95.0281 45.4176 95.1765C45.4904 95.1793 45.5072 95.0645 45.4344 95.0449Z" fill="#263238"/>
<path d="M41.6852 112.562C40.54 112.226 39.4088 111.848 38.2664 111.5C37.124 111.153 35.9676 110.789 34.8308 110.4C32.5432 109.622 30.292 108.751 28.0296 107.902C26.7192 107.41 25.392 106.967 24.0816 106.477C24.048 106.463 24.0228 106.514 24.0592 106.528C24.6192 106.768 25.2044 107.026 25.7756 107.278C26.3468 107.53 26.8956 107.754 27.4556 107.998C28.5756 108.488 29.7292 108.944 30.8716 109.398C33.1198 110.295 35.4122 111.077 37.74 111.741C39.0392 112.111 40.3524 112.388 41.674 112.651C41.7272 112.662 41.7384 112.576 41.6852 112.562Z" fill="#263238"/>
<path d="M46.7644 94.8602C46.7196 94.765 41.7916 94.0706 41.7916 94.0706C41.7916 94.0706 37.8716 102.639 37.9276 103.638C37.9836 104.638 38.3168 112.273 38.3952 112.363C38.4736 112.453 44.4264 113.85 44.5384 113.668C44.6504 113.486 44.5776 105.254 44.5636 104.621C44.5496 103.988 46.7644 94.8602 46.7644 94.8602Z" fill="#FED5ED"/>
<path opacity="0.2" d="M46.7364 94.8602C46.6916 94.765 41.7608 94.0874 41.7608 94.0874C41.7608 94.0874 37.8604 102.667 37.9276 103.669C37.9948 104.671 38.342 112.301 38.4204 112.391C38.4988 112.481 44.4572 113.858 44.5804 113.676C44.7036 113.494 44.5944 105.262 44.5804 104.629C44.5664 103.997 46.7364 94.8602 46.7364 94.8602Z" fill="black"/>
<path d="M125.96 108.281V120.245C125.96 121.085 125.64 121.799 125.251 121.799H120.648H116.039C115.65 121.799 115.336 121.107 115.336 120.253V108.281C115.336 107.427 115.65 106.735 116.039 106.735H116.465V105.615H120.648H124.826V106.735H125.251C125.64 106.735 125.96 107.427 125.96 108.281Z" fill="#FED5ED"/>
<path d="M125.117 103.775H116.165V105.789H125.117V103.775Z" fill="#37474F"/>
<path d="M125.96 110.817H115.336V118.375H125.96V110.817Z" fill="#EBEBEB"/>
<path d="M114.155 119.691C114.155 121.259 113.567 121.799 113.267 121.799H110.632H108.16C107.86 121.799 107.27 121.261 107.267 119.691C107.267 117.831 108.597 116.717 108.597 115.698C108.597 115.037 107.956 112.979 108.23 112.979H113.172C113.452 112.979 112.814 115.034 112.814 115.698C112.816 116.72 114.152 117.82 114.155 119.691Z" fill="#C7C7C7"/>
<path d="M108.609 111.613L112.773 111.607C112.932 111.607 113.085 111.67 113.199 111.783C113.312 111.895 113.375 112.048 113.375 112.208L113.377 113.432C113.377 113.443 113.373 113.453 113.365 113.461C113.357 113.469 113.346 113.474 113.335 113.474L108.052 113.481C108.04 113.481 108.03 113.477 108.022 113.469C108.014 113.461 108.01 113.45 108.01 113.439L108.008 112.216C108.008 112.056 108.071 111.903 108.184 111.79C108.296 111.677 108.449 111.613 108.609 111.613Z" fill="#37474F"/>
<path d="M31.832 109.244L30.6364 108.28C31.5492 107.144 32.5964 105.69 32.7616 105.234C32.5824 104.083 31.5072 100.284 30.824 99.7544H26.344V98.22H30.9024C33.078 98.22 34.282 105.072 34.2904 105.142C34.3324 105.408 34.4108 106.038 31.832 109.244Z" fill="#EBEBEB"/>
<path d="M24.0536 119.405C16.306 119.405 14.4328 114.365 15.1972 110.837C15.9616 107.309 21.3712 104.276 21.4356 103.123C21.5 101.969 21.4356 96.7893 21.1556 96.4365C20.8756 96.0837 19.1032 95.4005 18.6356 95.4005C18.168 95.4005 18.154 94.8069 18.6356 94.8069H27.5676C28.0492 94.8069 28.0492 95.4005 27.5676 95.4005C27.086 95.4005 26.7836 95.9913 26.6996 96.6157C26.638 97.0553 26.5512 102.162 26.68 103.123C26.834 104.265 32.1484 107.303 32.9184 110.837C33.6884 114.37 31.7984 119.405 24.0536 119.405Z" fill="#EBEBEB"/>
<path d="M23.8632 118.212C17.3476 118.212 15.774 113.979 16.4152 111.011C17.0564 108.043 22.536 104.719 22.4296 103.756C22.41 103.568 22.396 99.7881 22.3876 99.3933H25.6328C25.6328 99.8049 25.6552 103.593 25.6776 103.756C25.8092 104.716 30.6588 108.037 31.3084 111.011C31.958 113.984 30.376 118.212 23.8632 118.212Z" fill="#FED5ED"/>
<path d="M53.8624 119.046C53.8507 119.48 53.7491 119.906 53.564 120.298C53.3789 120.689 53.1144 121.039 52.7872 121.323C51.3872 122.653 48.9456 123.395 46.3836 123.266C44.6476 123.176 42.4048 122.426 40.2404 121.687C38.076 120.948 35.9648 120.245 34.5396 120.259L17.678 120.416V119.382H18.0728V120.021L34.5396 119.867C36.032 119.853 38.1376 120.564 40.3692 121.317C42.5112 122.04 44.7232 122.787 46.406 122.874C48.8644 123 51.2052 122.297 52.5156 121.04C52.8041 120.793 53.0381 120.489 53.2024 120.147C53.3668 119.804 53.4581 119.432 53.4704 119.052L53.8624 119.046Z" fill="#A6A6A6"/>
<path d="M53.7 118.134C53.8114 118.425 53.8701 118.734 53.8736 119.047H53.4788C53.4575 118.669 53.3584 118.3 53.1879 117.963C53.0173 117.626 52.7789 117.327 52.4876 117.087C51.1548 115.857 48.8 115.197 46.3444 115.37C44.6644 115.485 42.4636 116.275 40.3356 117.05C38.1208 117.845 36.0292 118.596 34.534 118.607L18.07 118.761V119.399H17.6696V118.369L34.5284 118.212C35.9536 118.212 38.0172 117.459 40.2012 116.675C42.3852 115.891 44.5804 115.104 46.3136 114.995C48.8756 114.816 51.3536 115.516 52.7536 116.818C53.1658 117.178 53.4896 117.628 53.7 118.134Z" fill="#A6A6A6"/>
<path d="M53.8624 119.046C53.8563 119.26 53.8056 119.47 53.7135 119.663C53.6214 119.856 53.49 120.027 53.3276 120.166C52.1796 121.286 49.3824 121.989 46.3724 121.9C44.6476 121.846 42.4132 121.362 40.2544 120.892C38.0956 120.421 35.9732 119.959 34.5368 119.973L17.6752 120.13V119.388H18.07V119.735L34.5368 119.581C36.018 119.567 38.118 120.024 40.3412 120.508C42.4832 120.976 44.698 121.457 46.3892 121.508C49.2536 121.594 51.9892 120.928 53.056 119.886C53.1792 119.782 53.2796 119.654 53.3509 119.51C53.4222 119.365 53.4629 119.207 53.4704 119.046H53.8624Z" fill="#A6A6A6"/>
<path d="M53.7812 118.613C53.8345 118.751 53.862 118.898 53.8624 119.047V119.243L17.6696 119.581V118.641L34.5312 118.484C35.9676 118.47 38.0368 117.98 40.2292 117.462C42.3796 116.949 44.6056 116.423 46.3304 116.342C49.3376 116.196 52.146 116.837 53.3164 117.943C53.5193 118.129 53.6782 118.358 53.7812 118.613ZM53.4424 118.853C53.368 118.611 53.2274 118.393 53.0364 118.226C51.9556 117.207 49.2032 116.594 46.3416 116.734C44.6616 116.815 42.4468 117.339 40.3104 117.854C38.0984 118.377 36.0096 118.873 34.5256 118.887L18.0616 119.041V119.189L53.4424 118.853Z" fill="#A6A6A6"/>
<path d="M16.9164 121.085L30.2276 120.962L30.194 117.571L16.8072 117.697L16.9164 121.085Z" fill="#37474F"/>
</svg>
