<svg width="141" height="141" viewBox="0 0 141 141" fill="none" xmlns="http://www.w3.org/2000/svg">
<path d="M114.236 74.0252C113.593 74.8925 112.9 75.7218 112.161 76.5088C105.8 83.2848 95.2772 87.6807 85.9868 85.2924C80.4512 83.8671 76.5732 79.0148 71.7432 75.9544C65.6672 72.1072 57.9616 71.2308 51.0232 70.1416C41.6488 68.6688 32.9128 66.4764 26.9964 58.6028C22.06 52.0564 20.1896 43.0908 23.74 35.5644C27.1 28.4048 32.7 22.0768 38.9048 17.2188C44.2248 13.0356 49.948 11.4116 56.2452 14.8696C60.3556 17.132 63.5252 20.7216 66.7788 24.1096C70.4468 27.94 75.134 32.6888 80.6192 33.5176C85.8524 34.31 91.2592 31.7284 96.498 31.664C105.144 31.5548 113.365 37.3032 117.117 45.104C121.572 54.3552 120.264 65.8996 114.236 74.0252Z" fill="#FED5ED"/>
<path opacity="0.9" d="M114.236 74.0252C113.593 74.8925 112.9 75.7218 112.161 76.5088C105.8 83.2848 95.2772 87.6807 85.9868 85.2924C80.4512 83.8671 76.5732 79.0148 71.7432 75.9544C65.6672 72.1072 57.9616 71.2308 51.0232 70.1416C41.6488 68.6688 32.9128 66.4764 26.9964 58.6028C22.06 52.0564 20.1896 43.0908 23.74 35.5644C27.1 28.4048 32.7 22.0768 38.9048 17.2188C44.2248 13.0356 49.948 11.4116 56.2452 14.8696C60.3556 17.132 63.5252 20.7216 66.7788 24.1096C70.4468 27.94 75.134 32.6888 80.6192 33.5176C85.8524 34.31 91.2592 31.7284 96.498 31.664C105.144 31.5548 113.365 37.3032 117.117 45.104C121.572 54.3552 120.264 65.8996 114.236 74.0252Z" fill="white"/>
<path d="M70.5 120.217C100.483 120.217 124.789 118.798 124.789 117.047C124.789 115.297 100.483 113.878 70.5 113.878C40.5169 113.878 16.2108 115.297 16.2108 117.047C16.2108 118.798 40.5169 120.217 70.5 120.217Z" fill="#F5F5F5"/>
<path d="M54.6492 34.0018C52.468 35.7994 50.3372 38.6974 51.586 41.8418C52.8348 44.9862 60.826 45.3026 62.506 44.009C64.69 42.329 62.7608 34.8474 61.0584 34.8026C60.9296 32.0278 56.472 32.4982 54.6492 34.0018Z" fill="#263238"/>
<path d="M51.5944 64.2839C51.5944 64.2839 52.4708 80.2271 53.4368 88.8595C53.5348 96.9655 55.3968 115.278 55.3968 115.278H57.4436C57.788 106.192 60.3164 97.7075 58.6364 89.6939C62.5564 73.9579 59.8712 64.2951 59.8712 64.2951L51.5944 64.2839Z" fill="#FFB573"/>
<path d="M53.8232 64.2952C53.8232 64.2952 58.0372 81.98 59.1908 89.512C60.406 97.4248 62.2148 112.78 62.1308 115.272H63.8976C63.8976 115.272 66.8656 99.7376 64.1188 89.792C66.384 67.392 60.7952 64.312 60.7952 64.312L53.8232 64.2952Z" fill="#FFB573"/>
<path d="M43.718 43.8411C43.5864 42.8863 41.8336 42.8051 41.8336 42.8051L40.9936 42.3823C40.8461 42.292 40.6694 42.2625 40.5006 42.3001C40.3319 42.3378 40.1843 42.4395 40.0892 42.5839L39.8092 43.0487C39.7276 43.2316 39.7141 43.4377 39.7711 43.6297C39.8281 43.8217 39.9518 43.987 40.12 44.0959L40.3748 44.2807C40.8083 44.5905 41.3211 44.7702 41.8532 44.7987L42.6288 44.8407C42.7991 44.8505 42.9698 44.8296 43.1328 44.7791C43.3258 44.7184 43.4904 44.5901 43.5963 44.4177C43.7023 44.2454 43.7425 44.0407 43.7096 43.8411H43.718Z" fill="#FFB573"/>
<path d="M52.9496 49.4272C52.8432 49.5364 52.7872 49.5896 52.7088 49.6596L52.4876 49.8556C52.342 49.9788 52.1908 50.0936 52.0424 50.2084C51.74 50.4324 51.432 50.6396 51.1156 50.8356C50.4807 51.2177 49.8136 51.5438 49.122 51.81C47.7446 52.3458 46.2822 52.6303 44.8044 52.65H44.6756C44.6081 52.6486 44.5408 52.643 44.474 52.6332C44.3425 52.614 44.2137 52.5792 44.0904 52.5296C43.8828 52.444 43.6929 52.3206 43.5304 52.1656C43.32 51.9589 43.1483 51.7161 43.0236 51.4488C42.8489 51.0702 42.7184 50.6728 42.6344 50.2644C42.4859 49.5615 42.3923 48.8482 42.3544 48.1308C42.2786 46.7568 42.3066 45.379 42.4384 44.0092C42.454 43.8561 42.5253 43.7141 42.6388 43.6102C42.7523 43.5063 42.9 43.4477 43.0539 43.4456C43.2078 43.4435 43.357 43.4981 43.4733 43.5989C43.5895 43.6997 43.6647 43.8398 43.6844 43.9924V44.0092C43.8356 45.314 44.0092 46.6384 44.2444 47.9068C44.3481 48.5211 44.4912 49.1281 44.6728 49.724C44.7451 49.9677 44.8447 50.2026 44.9696 50.424C45.02 50.5052 45.0704 50.5444 45.048 50.5164C45.0109 50.4763 44.9649 50.4456 44.9136 50.4268C44.8682 50.4062 44.8201 50.392 44.7708 50.3848H44.6952C45.2971 50.3298 45.8942 50.2306 46.4816 50.088C47.0636 49.9426 47.6345 49.7555 48.1896 49.528C48.7424 49.2914 49.2752 49.0105 49.7828 48.688C50.0376 48.5312 50.284 48.366 50.522 48.1896C50.6396 48.1028 50.7516 48.0132 50.8636 47.9236L51.026 47.7892L51.1492 47.68L51.222 47.6156C51.4662 47.3969 51.7861 47.2822 52.1136 47.296C52.4411 47.3098 52.7503 47.451 52.9753 47.6894C53.2002 47.9279 53.3231 48.2447 53.3178 48.5725C53.3125 48.9002 53.1793 49.213 52.9468 49.444L52.9496 49.4272Z" fill="#FFB573"/>
<path d="M54.3272 46.3191C52.1124 45.9495 49.7884 47.4559 48.5844 48.6823C47.9628 50.5527 49.9536 52.8263 49.9536 52.8263C49.9536 52.8263 52.79 51.0847 53.812 49.8947C54.834 48.7047 55.604 46.5319 54.3272 46.3191Z" fill="#E0E0E0"/>
<path d="M61.1872 64.0823C61.1872 64.0823 64.312 66.2999 64.9 73.6723C65.1352 76.5759 65.558 88.1595 66.4484 93.1435C63.2424 95.4339 53.644 95.1203 52.1404 93.7819C52.566 83.7019 48.7132 70.3319 51.5076 64.1831C56.1332 63.6147 61.1872 64.0823 61.1872 64.0823Z" fill="#263238"/>
<path opacity="0.2" d="M58.0176 85.2251C58.0596 80.9887 57.4352 75.1591 55.5396 71.7039C56.1864 76.0159 58.0176 85.2251 58.0176 85.2251Z" fill="black"/>
<path d="M50.0404 49.7351C50.0404 52.1347 48.128 53.3947 50.2924 55.2427C50.4212 57.3147 50.5724 61.0247 51.208 64.4043C51.866 65.3199 56.6764 65.2443 61.6744 64.1607C61.022 61.2627 61.2628 56.5419 62.9736 50.0851C63.0647 49.7268 63.0809 49.3535 63.021 48.9886C62.9612 48.6238 62.8266 48.2752 62.6258 47.9647C62.425 47.6543 62.1622 47.3887 61.8539 47.1845C61.5457 46.9804 61.1986 46.8421 60.8344 46.7783C60.4228 46.7055 59.9944 46.6383 59.5408 46.5823C57.9777 46.3518 56.4 46.2339 54.82 46.2295C54.3104 46.2295 53.7812 46.2631 53.2772 46.2967C52.4016 46.3508 51.5795 46.7365 50.9782 47.3752C50.3769 48.014 50.0416 48.8578 50.0404 49.7351Z" fill="#E0E0E0"/>
<path d="M60.2509 53.9014L54.385 55.2298C54.1618 55.2803 54.0219 55.5022 54.0724 55.7255L55.9716 64.1119C56.0221 64.3351 56.2441 64.4751 56.4673 64.4245L62.3332 63.0961C62.5564 63.0456 62.6963 62.8237 62.6458 62.6005L60.7466 54.214C60.6961 53.9908 60.4741 53.8508 60.2509 53.9014Z" fill="#FED5ED"/>
<path d="M55.3996 49.3235C55.3996 49.3235 54.4504 50.4603 53.6664 50.7235L53.5768 51.2835C54.5682 51.1569 55.4832 50.685 56.1612 49.9507L55.3996 49.3235Z" fill="#FED5ED"/>
<path d="M52.8208 48.6376C52.8208 48.6376 52.7816 50.116 53.1904 50.8384L52.8852 51.32C52.2251 50.5688 51.8504 49.6093 51.8268 48.6096L52.8208 48.6376Z" fill="#FED5ED"/>
<path d="M59.3476 41.2568C58.9724 42.7464 58.5328 45.4932 59.5408 46.5768C59.5408 46.5768 55.786 47.6016 53.3388 50.9616C52.2188 47.4308 54.8312 46.224 54.8312 46.224C56.542 45.944 56.5644 44.6952 56.3292 43.4968L59.3476 41.2568Z" fill="#FFB573"/>
<path opacity="0.2" d="M58.1184 42.1724L56.332 43.5024C56.3897 43.7789 56.4235 44.06 56.4328 44.3424C57.0824 44.2976 58.0064 43.6564 58.1128 42.9872C58.1619 42.7179 58.1638 42.4422 58.1184 42.1724Z" fill="black"/>
<path d="M61.0892 38.6023C60.3696 41.0159 60.1176 42.0547 58.6028 43.0039C56.3236 44.4291 53.5628 42.9619 53.546 40.3691C53.546 38.0339 54.7136 34.4891 57.3092 34.1027C59.9048 33.7163 61.82 36.1859 61.0892 38.6023Z" fill="#FFB573"/>
<path d="M59.2076 35.0772C58.5272 37.404 59.1096 39.8372 60.4984 40.1172C62.4276 39.3976 62.3324 37.2556 61.8396 36.2756C61.3468 35.2956 59.5996 33.736 59.2076 35.0772Z" fill="#263238"/>
<path d="M60.2632 39.2576C59.1908 39.6132 58.9836 40.3328 58.9836 40.3328C58.9836 40.3328 59.72 39.812 60.4256 39.91C60.3232 39.7074 60.2677 39.4845 60.2632 39.2576Z" fill="#263238"/>
<path d="M57.5836 38.3756C57.536 38.5744 57.3932 38.7088 57.2616 38.678C57.13 38.6472 57.06 38.454 57.1076 38.2552C57.1552 38.0564 57.298 37.9192 57.4296 37.9528C57.5612 37.9864 57.62 38.1768 57.5836 38.3756Z" fill="#263238"/>
<path d="M55.1 37.7847C55.0524 37.9835 54.9096 38.1179 54.778 38.0843C54.6464 38.0507 54.5764 37.8631 54.624 37.6615C54.6716 37.4599 54.8144 37.3283 54.946 37.3619C55.0776 37.3955 55.1504 37.5831 55.1 37.7847Z" fill="#263238"/>
<path d="M55.0076 37.3871L54.5568 37.1267C54.5568 37.1267 54.7164 37.5635 55.0076 37.3871Z" fill="#263238"/>
<path d="M55.5704 38.1096C55.2857 38.5196 54.9445 38.8873 54.5568 39.2016C54.6419 39.3003 54.7472 39.3795 54.8655 39.4341C54.9839 39.4887 55.1125 39.5173 55.2428 39.518L55.5704 38.1096Z" fill="#ED893E"/>
<path d="M61.1032 41.0243C60.9549 41.1984 60.7709 41.3385 60.5636 41.4352C60.3563 41.5318 60.1307 41.5827 59.902 41.5843C59.3168 41.5675 59.216 40.8955 59.538 40.3439C59.818 39.8455 60.4788 39.2547 60.9884 39.5375C61.498 39.8203 61.5008 40.5707 61.1032 41.0243Z" fill="#FFB573"/>
<path d="M58.0512 37.5187C58.021 37.5038 57.9979 37.4777 57.9868 37.4459C57.9419 37.2995 57.864 37.1653 57.7592 37.0537C57.6543 36.9421 57.5253 36.8559 57.382 36.8019C57.351 36.7934 57.3246 36.7731 57.3084 36.7454C57.2922 36.7176 57.2875 36.6847 57.2952 36.6535C57.2987 36.6381 57.3054 36.6237 57.3148 36.611C57.3242 36.5983 57.3361 36.5877 57.3497 36.5798C57.3634 36.5719 57.3785 36.567 57.3942 36.5652C57.4099 36.5634 57.4257 36.5649 57.4408 36.5695C57.624 36.6333 57.7897 36.7393 57.9244 36.8789C58.0591 37.0184 58.1592 37.1878 58.2164 37.3731C58.2221 37.388 58.2246 37.4038 58.2238 37.4197C58.223 37.4356 58.2189 37.4511 58.2118 37.4653C58.2047 37.4795 58.1947 37.4921 58.1825 37.5023C58.1703 37.5124 58.1561 37.5199 58.1408 37.5243C58.1113 37.5338 58.0793 37.5318 58.0512 37.5187Z" fill="#263238"/>
<path d="M54.1984 36.592C54.1666 36.593 54.1356 36.582 54.1116 36.5612C54.0895 36.5382 54.0772 36.5076 54.0772 36.4758C54.0772 36.4439 54.0895 36.4133 54.1116 36.3904C54.2364 36.246 54.3943 36.134 54.5717 36.0638C54.7492 35.9936 54.941 35.9673 55.1308 35.9872C55.1628 35.9927 55.1914 36.0103 55.2107 36.0364C55.23 36.0625 55.2385 36.095 55.2344 36.1272C55.2296 36.1587 55.2124 36.1871 55.1867 36.206C55.1609 36.2249 55.1288 36.2328 55.0972 36.228C54.947 36.213 54.7953 36.2347 54.6554 36.2913C54.5154 36.3479 54.3912 36.4376 54.2936 36.5528C54.2815 36.5658 54.2667 36.576 54.2503 36.5828C54.2339 36.5895 54.2162 36.5927 54.1984 36.592Z" fill="#263238"/>
<path d="M57.4856 37.9807L57.0348 37.7175C57.0348 37.7175 57.1944 38.1571 57.4856 37.9807Z" fill="#263238"/>
<path d="M57.34 57.8608L55.1 57.4268L55.352 60C55.352 60 57.032 59.9272 57.9896 59.16L58.0792 58.824C57.9756 58.2668 57.8496 58.0624 57.34 57.8608Z" fill="#FFB573"/>
<path d="M53.7532 58.5244L54.0136 59.6136C54.0517 59.77 54.147 59.9065 54.2807 59.9961C54.4144 60.0858 54.5768 60.1221 54.736 60.098L55.3632 60L55.1112 57.4268L54.1564 57.774C54.009 57.828 53.8865 57.9342 53.8122 58.0725C53.7379 58.2108 53.7169 58.3716 53.7532 58.5244Z" fill="#FFB573"/>
<path d="M62.3492 48.6599C63.0298 49.9634 63.6238 51.3103 64.1272 52.6919C64.3792 53.3835 64.6172 54.0919 64.8076 54.8171C65.0152 55.5686 65.1558 56.3369 65.2276 57.1131C65.2444 57.3175 65.2528 57.5275 65.2556 57.7403V57.8159V57.9363C65.2488 58.0188 65.2338 58.1004 65.2108 58.1799C65.1697 58.3343 65.1055 58.4816 65.0204 58.6167C64.8907 58.818 64.721 58.9905 64.522 59.1235C64.2786 59.2855 64.0098 59.4057 63.7268 59.4791C63.5124 59.5384 63.2945 59.5842 63.0744 59.6163C62.3112 59.7123 61.5411 59.7414 60.7728 59.7031C59.3163 59.6359 57.8666 59.4619 56.4356 59.1823C56.2806 59.1567 56.1409 59.0735 56.0445 58.9494C55.9481 58.8254 55.902 58.6695 55.9155 58.513C55.9289 58.3564 56.0008 58.2107 56.117 58.1048C56.2331 57.999 56.3849 57.9408 56.542 57.9419C57.942 57.9167 59.3588 57.8803 60.7224 57.7767C61.3752 57.7315 62.0238 57.6379 62.6628 57.4967C62.7933 57.4666 62.9214 57.4273 63.0464 57.3791C63.1083 57.362 63.1657 57.3314 63.2144 57.2895C63.1607 57.3213 63.1162 57.3667 63.0856 57.4211C63.0484 57.4801 63.0201 57.5443 63.0016 57.6115C62.9917 57.6493 62.9842 57.6876 62.9792 57.7263C62.9777 57.745 62.9777 57.7637 62.9792 57.7823C62.9792 57.6395 62.954 57.5023 62.9316 57.3455C62.6867 56.0478 62.3047 54.7798 61.792 53.5627C61.2852 52.2999 60.7056 51.0147 60.112 49.8023V49.7799C59.9917 49.4869 59.9861 49.1594 60.0964 48.8624C60.2067 48.5655 60.4248 48.321 60.7073 48.1777C60.9898 48.0343 61.3159 48.0026 61.6206 48.0889C61.9254 48.1751 62.1865 48.373 62.352 48.6431L62.3492 48.6599Z" fill="#FFB573"/>
<path d="M60.98 46.8652C62.5844 47.162 63.2984 48.604 64.4632 51.4824C64.1076 53.42 61.26 54.4392 61.26 54.4392C61.26 54.4392 59.6248 51.5412 59.3 50.004C58.9752 48.4668 59.3616 46.5656 60.98 46.8652Z" fill="#E0E0E0"/>
<path d="M57.5892 115.3C57.5761 115.263 57.5506 115.231 57.517 115.21C57.4834 115.189 57.4437 115.18 57.4044 115.185L55.506 115.157C55.3117 115.144 55.1177 115.186 54.946 115.278C54.0769 115.82 53.1008 116.169 52.0844 116.3C51.6812 116.361 51.8632 117.042 52.8152 117.053C54.386 117.07 54.6716 116.952 56.0128 116.966C57.158 116.98 56.612 117.03 57.522 117.053C57.7404 117.053 57.9196 116.916 57.8916 116.773L57.5892 115.3Z" fill="#263238"/>
<path d="M64.1384 115.3C64.1249 115.263 64.0993 115.231 64.0658 115.211C64.0323 115.19 63.9928 115.181 63.9536 115.185L62.4052 115.157C62.2109 115.143 62.0166 115.185 61.8452 115.278C61.2852 115.667 61.3636 116.118 60.0868 116.3C59.6836 116.361 59.8824 117.042 60.8344 117.053C62.4052 117.07 62.31 116.966 62.9484 116.966C63.5868 116.966 63.1948 117.03 64.1076 117.053C64.326 117.053 64.5024 116.916 64.4688 116.773L64.1384 115.3Z" fill="#263238"/>
<path d="M54.3664 49.7546C55.1616 49.7882 56.6204 50.4406 57.088 51.1378C57.7488 50.4518 60.3304 48.8586 60.3752 46.6998C60.0592 46.396 59.661 46.1915 59.23 46.1118C59.23 46.1118 55.786 47.7778 54.3664 49.7546Z" fill="#FAFAFA"/>
<path d="M53.0784 49.6427C53.0784 49.6427 52.8628 47.8983 54.974 46.2043C54.7612 46.0307 53.9268 46.2267 53.9268 46.2267C53.9268 46.2267 51.46 47.2879 51.5328 50.0347C51.9773 49.7079 52.5318 49.5672 53.0784 49.6427Z" fill="#FAFAFA"/>
<path d="M52.7648 50.3819C52.4596 50.5247 52.3392 51.5187 52.7648 51.7511C53.1904 51.9835 53.1484 51.0343 53.3948 50.7095C53.6412 50.3847 53.2996 50.1327 52.7648 50.3819Z" fill="#FED5ED"/>
<path d="M53.14 50.7684C52.9216 51.0484 53.2044 52.0004 53.6748 51.9976C54.1452 51.9948 53.7392 51.1576 53.8316 50.7432C53.924 50.3288 53.5124 50.2756 53.14 50.7684Z" fill="#FED5ED"/>
<path d="M53.2044 51.4768C52.6808 50.6676 52.6444 54.932 53.9128 56.612C53.8288 54.9572 54.7164 52.6108 53.2044 51.4768Z" fill="#FED5ED"/>
<path d="M53.1568 51.4404C52.9244 50.6172 51.7568 54.2236 52.4036 55.9848C52.7704 54.5596 54.1396 52.8012 53.1568 51.4404Z" fill="#FED5ED"/>
<path d="M57.06 40.288C57.182 40.2349 57.2991 40.1712 57.41 40.0976C57.4163 40.0914 57.4212 40.084 57.4246 40.0758C57.428 40.0676 57.4298 40.0589 57.4298 40.05C57.4298 40.0412 57.428 40.0324 57.4246 40.0243C57.4212 40.0161 57.4163 40.0087 57.41 40.0024C57.3983 39.9875 57.3815 39.9775 57.3629 39.9744C57.3442 39.9713 57.3251 39.9753 57.3092 39.9856C57.0595 40.1531 56.7754 40.2624 56.4779 40.3055C56.1804 40.3486 55.877 40.3245 55.59 40.2348C55.5815 40.2311 55.5724 40.2291 55.5632 40.2289C55.554 40.2288 55.5448 40.2304 55.5362 40.2338C55.5276 40.2372 55.5198 40.2422 55.5132 40.2487C55.5065 40.2551 55.5012 40.2627 55.4976 40.2712C55.4913 40.2887 55.4922 40.3079 55.5 40.3247C55.5079 40.3415 55.5222 40.3545 55.5396 40.3608C56.038 40.5248 56.5795 40.4989 57.06 40.288Z" fill="#263238"/>
<path d="M48.9344 42.262H34.6292V42.7268H48.9344V42.262Z" fill="#FED5ED"/>
<path d="M48.5928 42.7268H34.9708L35.57 43.0516H47.9936L48.5928 42.7268Z" fill="#FED5ED"/>
<path opacity="0.2" d="M48.5928 42.7268H34.9708L35.57 43.0516H47.9936L48.5928 42.7268Z" fill="black"/>
<path d="M39.2128 29.8102C39.1291 29.8095 39.0491 29.7759 38.9899 29.7167C38.9307 29.6576 38.8971 29.5775 38.8964 29.4938V28.4326C38.8971 28.3489 38.9307 28.2689 38.9899 28.2097C39.0491 28.1505 39.1291 28.1169 39.2128 28.1162C39.2965 28.1169 39.3765 28.1505 39.4357 28.2097C39.4949 28.2689 39.5285 28.3489 39.5292 28.4326V29.4938C39.5285 29.5775 39.4949 29.6576 39.4357 29.7167C39.3765 29.7759 39.2965 29.8095 39.2128 29.8102Z" fill="#263238"/>
<path d="M39.7224 28.3683V28.2283C39.7224 28.0922 39.6121 27.9819 39.476 27.9819H38.9496C38.8135 27.9819 38.7032 28.0922 38.7032 28.2283V28.3683C38.7032 28.5044 38.8135 28.6147 38.9496 28.6147H39.476C39.6121 28.6147 39.7224 28.5044 39.7224 28.3683Z" fill="#263238"/>
<path d="M39.7196 32.1147V29.0879C39.7196 29.055 39.7067 29.0233 39.6837 28.9998C39.6607 28.9762 39.6293 28.9626 39.5964 28.9619H38.8292C38.7963 28.9626 38.7649 28.9762 38.7419 28.9998C38.7189 29.0233 38.706 29.055 38.706 29.0879V32.1147C38.7061 32.3422 38.658 32.5671 38.5648 32.7746C38.4717 32.9822 38.3356 33.1676 38.1656 33.3187C37.9962 33.4709 37.8606 33.657 37.7675 33.8648C37.6744 34.0727 37.6259 34.2978 37.6252 34.5255V42.2899H40.7976V34.5255C40.7974 34.2977 40.7491 34.0725 40.656 33.8645C40.5629 33.6566 40.427 33.4706 40.2572 33.3187C40.088 33.1671 39.9526 32.9815 39.86 32.7741C39.7673 32.5666 39.7195 32.3419 39.7196 32.1147Z" fill="#FED5ED"/>
<path d="M40.7976 35.4438H38.7032V40.4642H40.7976V35.4438Z" fill="#E0E0E0"/>
<path d="M43.7712 42.262H43.3932C43.5191 42.2704 43.6453 42.2704 43.7712 42.262Z" fill="#FED5ED"/>
<path d="M46.0532 42.262H45.6724C45.7992 42.2704 45.9264 42.2704 46.0532 42.262Z" fill="#FED5ED"/>
<path opacity="0.2" d="M43.2644 36.3398V37.6138C43.2644 38.6274 43.8412 39.4702 44.572 39.5738V41.8138C44.572 42.1582 44.236 42.2562 43.9756 42.2786H45.468C45.2076 42.2562 44.8716 42.1582 44.8716 41.8138V39.5738C45.6024 39.473 46.1792 38.6302 46.1792 37.6138V36.3398H43.2644Z" fill="#FED5ED"/>
<path d="M60.6132 35.1415C59.4932 35.6175 55.7412 35.7631 54.2712 35.4439C55.7916 33.2963 59.2076 32.6663 60.6132 35.1415Z" fill="#263238"/>
<path d="M64.144 42.8136C64.1332 42.8134 64.1225 42.8108 64.1128 42.8059C64.1031 42.8011 64.0947 42.7941 64.088 42.7856C64.0516 42.7352 63.2256 41.52 63.2088 38.2664C63.2088 36.9084 62.7916 35.8164 62.0888 35.2648C61.9062 35.1139 61.6907 35.0079 61.4598 34.9554C61.2288 34.9029 60.9887 34.9053 60.7588 34.9624C60.7498 34.9644 60.7405 34.9646 60.7314 34.9631C60.7223 34.9615 60.7136 34.9581 60.7058 34.9532C60.698 34.9482 60.6912 34.9418 60.6859 34.9343C60.6806 34.9267 60.6768 34.9182 60.6748 34.9092C60.6728 34.9002 60.6725 34.8909 60.6741 34.8818C60.6757 34.8727 60.6791 34.864 60.684 34.8562C60.6889 34.8484 60.6954 34.8416 60.7029 34.8363C60.7105 34.831 60.719 34.8272 60.728 34.8252C60.9778 34.7657 61.238 34.7643 61.4885 34.8211C61.7389 34.8779 61.973 34.9914 62.1728 35.1528C62.9148 35.7324 63.3432 36.8664 63.3516 38.2636C63.3684 41.4668 64.1916 42.6932 64.1916 42.7044C64.197 42.7119 64.2008 42.7204 64.2029 42.7294C64.2049 42.7384 64.2052 42.7478 64.2036 42.7569C64.2021 42.766 64.1987 42.7747 64.1938 42.7825C64.1888 42.7903 64.1824 42.7971 64.1748 42.8024C64.1654 42.8083 64.1549 42.8121 64.144 42.8136Z" fill="#263238"/>
<path d="M84.2928 26.3301C85.074 27.3997 85.0712 29.0657 84.8052 29.9701C83.4052 29.3345 83.6236 27.5089 83.6236 27.5089L84.2928 26.3301Z" fill="#263238"/>
<path d="M88.4788 39.5685L89.2852 40.4561L90.1252 41.3577C90.6852 41.9541 91.2452 42.5365 91.822 43.0965C92.102 43.3765 92.382 43.6565 92.6816 43.9029C92.9812 44.1493 93.2416 44.4125 93.5356 44.6393C93.8296 44.8661 94.0956 45.0677 94.356 45.2413C94.552 45.3728 94.758 45.4889 94.972 45.5885L94.5436 45.5213C94.4166 45.506 94.2881 45.5347 94.1796 45.6025C94.1796 45.6025 94.2468 45.6025 94.342 45.5465C94.602 45.3873 94.8434 45.1994 95.0616 44.9865C95.635 44.4418 96.171 43.859 96.666 43.2421C97.2008 42.6009 97.7216 41.9177 98.2396 41.2261C98.7576 40.5345 99.2756 39.8261 99.7852 39.1289L99.8104 39.0981C99.9889 38.8626 100.244 38.6972 100.532 38.6306C100.82 38.564 101.122 38.6005 101.386 38.7337C101.65 38.867 101.859 39.0885 101.976 39.3597C102.093 39.6309 102.112 39.9347 102.028 40.2181C101.744 41.103 101.416 41.9731 101.045 42.8249C100.678 43.6649 100.272 44.5049 99.8132 45.3449C99.3368 46.2186 98.7859 47.0495 98.1668 47.8285C97.7975 48.2891 97.3808 48.7095 96.9236 49.0829C96.6206 49.3279 96.2886 49.5348 95.9352 49.6989C95.416 49.9409 94.8473 50.0579 94.2748 50.0405C94.1692 50.0366 94.0642 50.0225 93.9612 49.9985L93.8436 49.9733C93.2302 49.8263 92.6369 49.6054 92.0768 49.3153C91.6077 49.0763 91.1541 48.8079 90.7188 48.5117C89.9204 47.9744 89.159 47.3841 88.4396 46.7449C87.734 46.1317 87.0788 45.4905 86.4432 44.8381C86.1296 44.5077 85.816 44.1773 85.5164 43.8357C85.2168 43.4941 84.9284 43.1609 84.612 42.7717C84.2589 42.2589 84.1081 41.6334 84.1888 41.016C84.2695 40.3986 84.5759 39.8329 85.0489 39.428C85.522 39.0231 86.1282 38.8077 86.7507 38.8233C87.3732 38.8389 87.9678 39.0844 88.42 39.5125L88.4788 39.5685Z" fill="#E0E0E0"/>
<path d="M101.04 40.641L103.534 40.7614L102.725 37.4014C102.725 37.4014 100.404 37.5722 100.032 38.765C99.9926 38.898 100.001 39.0403 100.054 39.1682L100.513 40.2686C100.557 40.3742 100.629 40.4653 100.722 40.5312C100.816 40.5971 100.926 40.6352 101.04 40.641Z" fill="#FF8B7B"/>
<path d="M105.76 38.7677L105.279 37.6477C105.185 37.4306 105.018 37.2537 104.806 37.1481C104.594 37.0426 104.352 37.0152 104.122 37.0709L102.722 37.4153L103.532 40.7753L105.212 40.0977C105.337 40.0484 105.45 39.9744 105.546 39.8802C105.642 39.786 105.717 39.6734 105.768 39.5493C105.82 39.4252 105.845 39.292 105.844 39.1577C105.843 39.0234 105.814 38.8908 105.76 38.7677Z" fill="#FF8B7B"/>
<path d="M82.5792 87.1713C79.9304 75.5205 78.2924 61.4729 78.2924 61.4729L89.1536 61.2993C89.1536 61.2993 89.0024 80.2301 89.0248 88.1597C89.0528 96.4057 89.624 114.553 89.624 114.553H86.3284C86.3284 114.553 82.0752 97.3633 82.5792 87.1713Z" fill="#263238"/>
<path d="M81.7336 71.0964L80.0144 73.6444C80.5268 76.8252 81.1344 80.328 81.8428 83.7608C82.1396 78.4856 82.0892 72.3564 81.7336 71.0964Z" fill="black"/>
<path d="M94.02 116.168C94.02 116.168 89.4812 115.099 89.1396 114.379H86.6196L86.6364 117.047H88.1932L88.4312 116.801L88.826 117.047C90.086 117.047 93.4348 116.997 94.2272 116.714C94.2429 116.613 94.2321 116.509 94.1958 116.414C94.1595 116.318 94.0989 116.233 94.02 116.168Z" fill="#263238"/>
<path d="M72.4768 86.8438C73.734 75.1258 73.6948 67.297 75.2264 61.5234L85.116 61.375C85.116 61.375 80.9972 79.9614 79.0848 87.695C77.1724 95.4286 73.8992 114.547 73.8992 114.547H70.8472C70.8472 114.547 69.8868 95.9046 72.4768 86.8438Z" fill="#263238"/>
<path d="M74.4424 63.8052C74.224 65.2052 73.4456 73.4876 72.6392 76.5032C79.2332 79.4292 89.3132 78.2784 89.624 76.38C89.5316 72.8632 89.344 63.8052 89.344 63.8052H74.4424Z" fill="#E0E0E0"/>
<path opacity="0.1" d="M74.8092 65.3425C75.2696 66.0887 75.826 66.7712 76.464 67.3725C76.464 67.3725 75.0416 67.1177 74.8092 65.3425Z" fill="black"/>
<path opacity="0.1" d="M88.0644 67.294C88.4425 66.7303 88.7491 66.1217 88.9772 65.4824C88.9772 65.4824 89.0416 66.9132 88.0644 67.294Z" fill="black"/>
<path opacity="0.1" d="M74.8708 66.3982C75.0229 66.959 75.2479 67.4975 75.54 67.9998C75.2735 67.8378 75.0652 67.5955 74.945 67.3078C74.8248 67.0201 74.7988 66.7016 74.8708 66.3982Z" fill="black"/>
<path d="M76.744 116.168C76.744 116.168 73.9132 115.099 73.5884 114.379H71.0684L71.018 117.047H73.0816L73.3252 116.801L73.7144 117.047C74.9744 117.047 76.1364 116.997 76.9372 116.714C76.9563 116.614 76.9485 116.511 76.9145 116.415C76.8806 116.319 76.8217 116.234 76.744 116.168Z" fill="#263238"/>
<path d="M74.8624 38.1462C78.3568 37.7122 83.3464 37.7542 86.6924 38.331C87.5284 38.4825 88.2957 38.8931 88.8856 39.5046C89.4755 40.1161 89.8582 40.8976 89.9796 41.7386C90.6824 46.7926 90.0776 55.6238 89.6296 64.5138C81.9856 67.129 73.9216 64.4774 73.9216 64.4774C73.6416 62.6854 74.2688 56.8082 74.6888 53.6722C74.0588 50.4326 72.7288 46.7226 71.8384 42.419C71.7303 41.9375 71.7245 41.4388 71.8213 40.955C71.9182 40.4712 72.1155 40.0131 72.4005 39.6103C72.6856 39.2076 73.052 38.8691 73.4761 38.6169C73.9001 38.3647 74.3724 38.2043 74.8624 38.1462Z" fill="#263238"/>
<path opacity="0.1" d="M74.8624 38.1462C78.3568 37.7122 83.3464 37.7542 86.6924 38.331C87.5284 38.4825 88.2957 38.8931 88.8856 39.5046C89.4755 40.1161 89.8582 40.8976 89.9796 41.7386C90.6824 46.7926 90.0776 55.6238 89.6296 64.5138C81.9856 67.129 73.9216 64.4774 73.9216 64.4774C73.6416 62.6854 74.2688 56.8082 74.6888 53.6722C74.0588 50.4326 72.7288 46.7226 71.8384 42.419C71.7303 41.9375 71.7245 41.4388 71.8213 40.955C71.9182 40.4712 72.1155 40.0131 72.4005 39.6103C72.6856 39.2076 73.052 38.8691 73.4761 38.6169C73.9001 38.3647 74.3724 38.2043 74.8624 38.1462Z" fill="white"/>
<path d="M78.3204 31.4736L82.2964 34.7356C81.7812 36.1048 81.6188 37.5356 83.8644 38.076C84.4244 38.818 83.5844 40.12 82.5876 40.6268C80.23 40.0892 78.872 39.4564 77.9564 38.1992C78.2448 37.2136 78.704 33.498 78.3204 31.4736Z" fill="#FF8B7B"/>
<path opacity="0.2" d="M79.978 32.8345L82.2964 34.7329C82.1708 35.0494 82.077 35.3777 82.0164 35.7129C81.1176 35.7773 79.8688 34.8729 79.8128 34.0497C79.7924 33.6379 79.8484 33.2259 79.978 32.8345Z" fill="black"/>
<path d="M77.7492 29.2504C78.1132 31.7452 78.1972 33.2236 79.572 34.394C81.6412 36.1552 84.6428 34.7216 85.0348 32.154C85.3848 29.8496 84.7324 26.1564 82.1928 25.3836C81.6294 25.2122 81.0317 25.1868 80.4558 25.3098C79.8798 25.4327 79.3446 25.7001 78.9004 26.0867C78.4561 26.4733 78.1174 26.9664 77.916 27.5198C77.7147 28.0732 77.6573 28.6687 77.7492 29.2504Z" fill="#FF8B7B"/>
<path d="M77.7268 30.4013C77.9831 30.6791 78.3143 30.8768 78.6804 30.9707C79.0466 31.0646 79.432 31.0506 79.7904 30.9305C79.1912 30.3229 79.7736 28.0997 79.1744 27.1953C80.3336 27.4249 84.8472 28.0801 85.2784 26.5149C85.746 24.8349 83.8784 23.4937 82.8312 23.3677C83.1392 24.0677 83.1112 24.5745 81.9632 24.3477C80.8152 24.1209 76.0832 23.0289 76.6068 25.2465C75.0836 25.2465 74.98 27.4641 76.0944 28.5253C76.7049 29.0897 77.2522 29.7187 77.7268 30.4013Z" fill="#263238"/>
<path d="M76.8868 25.1402C75.974 24.9134 76.2596 24.0734 76.464 23.9866C75.61 24.1938 75.2992 25.0338 76.3296 25.4202C77.36 25.8066 76.8868 25.1402 76.8868 25.1402Z" fill="#263238"/>
<path d="M77.0464 30.782C77.1313 31.0553 77.2696 31.3092 77.4532 31.5288C77.6368 31.7484 77.862 31.9295 78.116 32.0616C78.802 32.4116 79.3004 31.8348 79.236 31.1124C79.1828 30.46 78.7656 29.494 78.0152 29.4324C77.8501 29.4241 77.6856 29.4574 77.5368 29.5292C77.3879 29.601 77.2594 29.7089 77.163 29.8432C77.0666 29.9774 77.0055 30.1337 76.9851 30.2977C76.9647 30.4617 76.9858 30.6282 77.0464 30.782Z" fill="#FF8B7B"/>
<path d="M81.252 29.3401C81.2688 29.5445 81.392 29.7013 81.532 29.6901C81.672 29.6789 81.7616 29.4997 81.7448 29.2981C81.728 29.0965 81.6048 28.9369 81.4648 28.9481C81.3248 28.9593 81.2352 29.1357 81.252 29.3401Z" fill="#263238"/>
<path d="M83.6936 29.2812C83.7104 29.4856 83.8336 29.6424 83.9736 29.6284C84.1136 29.6144 84.2004 29.4408 84.1836 29.2364C84.1668 29.032 84.0436 28.878 83.9036 28.8892C83.7636 28.9004 83.6768 29.0768 83.6936 29.2812Z" fill="#263238"/>
<path d="M83.198 29.5557C83.4926 30.1575 83.8695 30.7154 84.318 31.2133C83.9848 31.5829 83.3576 31.4933 83.3576 31.4933L83.198 29.5557Z" fill="#FF5652"/>
<path d="M80.874 28.6906C80.8548 28.696 80.8344 28.696 80.8152 28.6906C80.8002 28.685 80.7865 28.6765 80.775 28.6655C80.7634 28.6545 80.7542 28.6413 80.7479 28.6266C80.7416 28.6119 80.7384 28.5961 80.7384 28.5802C80.7384 28.5642 80.7417 28.5484 80.748 28.5338C80.8152 28.354 80.9241 28.1927 81.0657 28.0633C81.2074 27.9338 81.3777 27.8398 81.5628 27.789C81.5944 27.7827 81.6271 27.7892 81.6539 27.807C81.6807 27.8249 81.6993 27.8526 81.7056 27.8842C81.7119 27.9157 81.7054 27.9485 81.6876 27.9753C81.6697 28.0021 81.642 28.0207 81.6104 28.027C81.4639 28.0684 81.3294 28.1442 81.2179 28.2478C81.1064 28.3515 81.0212 28.4803 80.9692 28.6234C80.9603 28.6417 80.9469 28.6575 80.9303 28.6693C80.9136 28.681 80.8943 28.6884 80.874 28.6906Z" fill="#263238"/>
<path d="M85.1104 28.3657C85.0902 28.3658 85.0703 28.3608 85.0527 28.3509C85.035 28.3411 85.0202 28.3269 85.0096 28.3097C84.9351 28.1789 84.8304 28.0676 84.7043 27.9853C84.5782 27.903 84.4342 27.852 84.2844 27.8365C84.2686 27.8362 84.253 27.8327 84.2385 27.8263C84.2241 27.8199 84.211 27.8107 84.2001 27.7993C84.1891 27.7879 84.1806 27.7744 84.1749 27.7596C84.1692 27.7449 84.1664 27.7292 84.1668 27.7133C84.1683 27.6812 84.1823 27.6508 84.2058 27.6288C84.2294 27.6069 84.2606 27.595 84.2928 27.5957C84.4825 27.613 84.6654 27.6754 84.8261 27.7777C84.9868 27.88 85.1208 28.0192 85.2168 28.1837C85.2327 28.211 85.2375 28.2434 85.2302 28.2742C85.2229 28.3049 85.2041 28.3317 85.1776 28.3489C85.1579 28.3623 85.1341 28.3683 85.1104 28.3657Z" fill="#263238"/>
<path d="M77.9564 38.1994C77.9564 38.1994 82.036 44.3986 83.5872 48.7722C85.116 43.6398 85.2924 39.5322 83.8672 38.0762C83.408 38.6558 81.56 39.4398 77.9564 38.1994Z" fill="#E0E0E0"/>
<path d="M76.5648 42.7802L76.17 43.9002L75.778 45.065C75.5176 45.8406 75.2796 46.619 75.0584 47.3834C74.9464 47.767 74.8484 48.1477 74.7588 48.5229C74.6692 48.8981 74.5824 49.2705 74.5208 49.6261C74.4592 49.9817 74.4116 50.3262 74.3808 50.6342C74.3648 50.87 74.3648 51.1067 74.3808 51.3426L74.2352 50.9337C74.1176 50.7125 73.9972 50.6537 73.9916 50.6537C73.986 50.6537 74.0308 50.7097 74.1176 50.7713C74.3782 50.9251 74.6553 51.049 74.9436 51.141C75.6882 51.3911 76.4487 51.5913 77.22 51.7401C78.0404 51.9025 78.886 52.0202 79.74 52.1601C80.594 52.3001 81.4732 52.3981 82.3188 52.5185H82.358C82.6533 52.5608 82.9241 52.7062 83.1224 52.9291C83.3207 53.1519 83.4338 53.4378 83.4415 53.736C83.4492 54.0342 83.3511 54.3255 83.1646 54.5582C82.978 54.791 82.7151 54.9503 82.4224 55.0077C81.51 55.1809 80.5896 55.308 79.6644 55.3885C78.7404 55.4725 77.808 55.5146 76.8644 55.509C75.8694 55.5071 74.8765 55.42 73.8964 55.2485C73.3209 55.1412 72.758 54.9751 72.2164 54.7529C71.8556 54.6042 71.515 54.4104 71.2028 54.1761C70.7427 53.8362 70.3687 53.3932 70.1108 52.8826C70.0632 52.7875 70.0248 52.6881 69.996 52.5858L69.9652 52.471C69.8017 51.8614 69.7124 51.2343 69.6992 50.6034C69.6856 50.0772 69.7053 49.5507 69.758 49.0269C69.8475 48.0703 70.0019 47.1207 70.22 46.185C70.4188 45.2722 70.6708 44.3902 70.9424 43.5194C71.0824 43.0854 71.2224 42.6542 71.3792 42.2258C71.536 41.7974 71.6928 41.3857 71.886 40.9237C72.1387 40.3202 72.6162 39.8386 73.2176 39.5808C73.8189 39.323 74.497 39.3092 75.1084 39.5423C75.7197 39.7755 76.2164 40.2372 76.4935 40.83C76.7705 41.4227 76.8061 42.1 76.5928 42.7185L76.5648 42.7802Z" fill="#E0E0E0"/>
<path d="M82.7164 52.8797L85.1916 53.1877L83.8252 56.3545C83.8252 56.3545 81.5656 55.7945 81.4032 54.5513C81.3871 54.4138 81.4198 54.2751 81.4956 54.1593L82.134 53.1541C82.1954 53.0581 82.2826 52.9815 82.3857 52.9329C82.4887 52.8844 82.6033 52.8659 82.7164 52.8797Z" fill="#FF8B7B"/>
<path d="M87.048 55.5313L86.3816 56.5617C86.2524 56.7598 86.0571 56.9056 85.8305 56.9733C85.6039 57.0409 85.3607 57.0261 85.144 56.9313L83.8252 56.3545L85.1916 53.1877L86.7344 54.1425C86.8472 54.2122 86.945 54.3037 87.022 54.4116C87.099 54.5195 87.1537 54.6417 87.1829 54.7711C87.2121 54.9004 87.2152 55.0343 87.1921 55.1648C87.1689 55.2953 87.1199 55.42 87.048 55.5313Z" fill="#FF8B7B"/>
<path d="M78.1552 37.2361C77.635 37.3187 77.1582 37.5753 76.8028 37.9641C77.9115 39.4437 79.4919 40.5006 81.2828 40.9601C81.154 40.5317 81.5404 39.2801 81.966 38.8321C80.4008 38.5997 78.1552 37.2361 78.1552 37.2361Z" fill="#FAFAFA"/>
<path d="M82.456 37.3901C82.9869 37.4866 83.4915 37.6936 83.9372 37.9977C83.9372 37.9977 85.5052 39.7477 83.6572 40.7361C83.7832 40.3077 82.8172 39.1653 81.952 38.8321C83.5144 38.5997 82.456 37.3901 82.456 37.3901Z" fill="#FAFAFA"/>
<path d="M82.1256 39.8289C80.888 39.1653 79.3564 38.4457 79.782 39.6077C80.2076 40.7697 79.6448 41.1729 80.1992 41.5677C80.7536 41.9625 81.8792 40.8789 82.2516 40.7277C82.624 40.5765 82.1256 39.8289 82.1256 39.8289Z" fill="#FED5ED"/>
<path d="M83.002 39.8204C83.9456 39.1848 85.1272 38.496 84.9172 39.63C84.7072 40.764 85.228 41.1588 84.8164 41.5424C84.4048 41.926 83.3464 40.8536 83.0104 40.7024C82.6744 40.5512 83.002 39.8204 83.002 39.8204Z" fill="#FED5ED"/>
<path d="M81.9576 39.7394C82.2376 39.5714 82.9208 39.3586 83.2596 39.815C83.5984 40.2714 83.4892 41.0358 83.0216 41.1282C82.8546 41.1619 82.6815 41.1498 82.5208 41.0931C82.3601 41.0364 82.2177 40.9372 82.1088 40.8061C82.2127 40.6388 82.2544 40.4403 82.2268 40.2453C82.1991 40.0503 82.1039 39.8712 81.9576 39.7394Z" fill="#FED5ED"/>
<path d="M74.07 114.637L70.6736 114.732L70.4944 112.808L74.4396 113.043L74.07 114.637Z" fill="black"/>
<path d="M89.7444 114.631L86.0764 114.732L85.6704 113.066L89.7668 112.668L89.7444 114.631Z" fill="black"/>
<path d="M81.7504 52.2274C80.0352 51.7203 78.2667 51.4149 76.4808 51.3174C76.1 51.3398 75.9544 59.9442 75.9852 63.4638C75.9852 63.9398 81.462 63.8446 82.862 63.629C82.9404 62.6462 82.9572 55.4726 83.3212 53.2298C83.349 53.0543 83.3172 52.8746 83.2309 52.7193C83.1446 52.564 83.0088 52.4421 82.8452 52.373C82.4983 52.2331 82.1218 52.1831 81.7504 52.2274Z" fill="white"/>
<path d="M110.42 38.4541H94.874V38.8965H110.42V38.4541Z" fill="#FED5ED"/>
<path d="M110.095 38.8965H95.1988L95.77 39.2073H109.526L110.095 38.8965Z" fill="#FED5ED"/>
<path opacity="0.2" d="M110.095 38.8965H95.1988L95.77 39.2073H109.526L110.095 38.8965Z" fill="black"/>
<path d="M103.288 32.2046C103.289 32.3315 103.251 32.4557 103.181 32.5616C103.111 32.6674 103.011 32.75 102.894 32.799C102.777 32.8479 102.648 32.861 102.523 32.8366C102.399 32.8122 102.284 32.7513 102.194 32.6618C102.104 32.5722 102.043 32.458 102.018 32.3335C101.993 32.209 102.006 32.08 102.054 31.9626C102.103 31.8453 102.185 31.745 102.29 31.6744C102.396 31.6038 102.52 31.5662 102.647 31.5662C102.731 31.5658 102.814 31.582 102.892 31.614C102.97 31.6459 103.04 31.6928 103.1 31.7522C103.16 31.8115 103.207 31.882 103.239 31.9596C103.271 32.0373 103.288 32.1205 103.288 32.2046Z" fill="#FED5ED"/>
<path d="M109.367 36.4017C108.935 35.0647 108.114 33.887 107.009 33.0193L107.183 32.7981C108.333 33.7009 109.187 34.9265 109.636 36.3177L109.367 36.4017Z" fill="#FED5ED"/>
<path d="M106.038 32.3754C105.724 32.2021 105.397 32.0533 105.06 31.9302L105.156 31.667C105.506 31.7988 105.846 31.9569 106.172 32.1402L106.038 32.3754Z" fill="#FED5ED"/>
<path d="M102.647 32.2046C100.96 32.2046 99.343 32.8745 98.1504 34.067C96.9579 35.2595 96.288 36.8769 96.288 38.5634H109.006C109.006 36.8769 108.336 35.2595 107.143 34.067C105.951 32.8745 104.333 32.2046 102.647 32.2046Z" fill="#FED5ED"/>
<path opacity="0.3" d="M97.1644 37.995H98.808C98.8648 37.994 98.9196 37.9734 98.963 37.9366C99.0063 37.8999 99.0357 37.8493 99.046 37.7934C99.3764 36.0518 100.415 34.5342 102.067 33.2154C102.105 33.1853 102.131 33.1438 102.143 33.0972C102.155 33.0505 102.151 33.0014 102.132 32.9571C102.114 32.9128 102.081 32.8758 102.04 32.8516C101.998 32.8275 101.95 32.8176 101.902 32.8234C100.653 32.9883 99.4909 33.5553 98.5923 34.4388C97.6936 35.3223 97.1069 36.4742 96.9208 37.7206C96.9164 37.7551 96.9194 37.7901 96.9297 37.8233C96.9399 37.8565 96.9572 37.8871 96.9803 37.9131C97.0033 37.9391 97.0317 37.9599 97.0635 37.974C97.0952 37.9881 97.1296 37.9953 97.1644 37.995Z" fill="white"/>
<path d="M82.4168 32.2213C82.5478 32.227 82.679 32.2205 82.8088 32.2017C82.8262 32.1983 82.8416 32.1882 82.8516 32.1735C82.8615 32.1588 82.8653 32.1407 82.862 32.1233C82.8574 32.1051 82.8464 32.0891 82.8309 32.0783C82.8155 32.0675 82.7967 32.0626 82.778 32.0645C82.4855 32.108 82.187 32.0847 81.9048 31.9965C81.6226 31.9082 81.364 31.7573 81.1484 31.5549C81.1421 31.5482 81.1345 31.5429 81.1261 31.5392C81.1177 31.5356 81.1086 31.5337 81.0994 31.5337C81.0902 31.5337 81.0811 31.5356 81.0727 31.5392C81.0643 31.5429 81.0567 31.5482 81.0504 31.5549C81.0382 31.5683 81.0314 31.5858 81.0314 31.6039C81.0314 31.622 81.0382 31.6395 81.0504 31.6529C81.4208 32.0034 81.9071 32.2057 82.4168 32.2213Z" fill="#263238"/>
</svg>
