<svg width="141" height="141" viewBox="0 0 141 141" fill="none" xmlns="http://www.w3.org/2000/svg">
<path d="M70.5 120.217C100.483 120.217 124.789 118.798 124.789 117.047C124.789 115.297 100.483 113.878 70.5 113.878C40.5169 113.878 16.2108 115.297 16.2108 117.047C16.2108 118.798 40.5169 120.217 70.5 120.217Z" fill="#F5F5F5"/>
<path d="M72.4852 24.3533C72.2421 24.225 71.976 24.1461 71.7023 24.1209C71.4286 24.0957 71.1526 24.1247 70.8901 24.2064C70.6276 24.2881 70.3839 24.4208 70.1728 24.5968C69.9617 24.7729 69.7874 24.9889 69.66 25.2325C69.1708 24.9873 68.6048 24.944 68.0839 25.1118C67.5631 25.2795 67.1288 25.645 66.8746 26.1296C66.6204 26.6142 66.5665 27.1792 66.7245 27.7031C66.8825 28.2271 67.2398 28.6681 67.7196 28.9313L71.4184 30.8717L73.3588 27.1729C73.4868 26.9304 73.5657 26.6651 73.591 26.3921C73.6163 26.1192 73.5876 25.8439 73.5065 25.582C73.4253 25.3201 73.2934 25.0768 73.1181 24.866C72.9429 24.6552 72.7278 24.4809 72.4852 24.3533Z" fill="#FED5ED"/>
<path d="M68.8508 32.633C68.6967 32.3415 68.4331 32.1232 68.1181 32.0261C67.803 31.9289 67.4623 31.9609 67.1708 32.115C67.0108 31.8352 66.7483 31.6285 66.4388 31.5385C66.1292 31.4485 65.7968 31.4822 65.5117 31.6326C65.2266 31.7829 65.011 32.0382 64.9105 32.3445C64.8099 32.6507 64.8323 32.9841 64.9728 33.2742L66.132 35.4694L68.33 34.3102C68.6212 34.1566 68.8396 33.8937 68.9372 33.5793C69.0349 33.2649 69.0038 32.9245 68.8508 32.633Z" fill="#FED5ED"/>
<path d="M55.3968 36.4603C53.6468 38.5967 53.9576 40.5427 54.4532 42.3403C52.2888 41.0355 50.4268 43.9671 51.0232 45.1403C48.2652 47.0275 50.6508 50.5051 53.5964 49.6623C54.9964 52.8907 61.876 53.1651 61.8424 51.3003C67.4984 52.5687 65.0624 46.3331 63.3488 45.7619C65.7092 45.3139 65.362 42.4299 63.7464 41.4611C65.6336 39.2211 64.6984 36.5163 62.296 36.1691C60.1064 33.6603 56.822 34.7215 55.3968 36.4603Z" fill="#263238"/>
<path d="M66.3448 53.0279C66.3448 54.1479 66.3896 55.3071 66.4736 56.4327C66.5382 57.5377 66.6899 58.6359 66.9272 59.7171C66.9524 59.8487 66.9888 59.9719 67.0252 60.0951L67.1176 60.4171C67.1336 60.4874 67.1631 60.554 67.2044 60.6131C67.266 60.7195 67.6552 60.8371 68.1256 60.8091C69.1976 60.7004 70.2482 60.4373 71.2448 60.0279L71.928 61.1843C71.648 61.3915 71.41 61.5595 71.1384 61.7443C70.8668 61.9291 70.5952 62.0719 70.2984 62.2175C69.7014 62.5291 69.0659 62.7607 68.4084 62.9063C68.0269 62.9885 67.6361 63.0196 67.2464 62.9987C66.7647 62.9706 66.2974 62.8245 65.8856 62.5731C65.4402 62.2901 65.087 61.8834 64.8692 61.4027L64.7992 61.2431L64.7544 61.1255L64.6648 60.8875C64.606 60.7307 64.5472 60.5711 64.5024 60.4143C64.138 59.1944 63.896 57.9413 63.78 56.6735C63.7184 56.0575 63.6652 55.4443 63.6456 54.8283C63.626 54.2123 63.6092 53.6131 63.6316 52.9663L66.3448 53.0279Z" fill="#7F3E3B"/>
<path d="M65.0876 49.9731C67.378 51.9807 67.0476 55.4527 67.0476 55.4527L62.66 56.2003C62.66 56.2003 61.568 52.6163 62.1896 51.3703C62.8448 50.0599 63.7968 48.8447 65.0876 49.9731Z" fill="#FED5ED"/>
<path opacity="0.3" d="M65.0876 49.9731C67.378 51.9807 67.0476 55.4527 67.0476 55.4527L62.66 56.2003C62.66 56.2003 61.568 52.6163 62.1896 51.3703C62.8448 50.0599 63.7968 48.8447 65.0876 49.9731Z" fill="white"/>
<path opacity="0.4" d="M63.8612 53.1848L62.2148 54.3244C62.408 55.3436 62.6684 56.2004 62.6684 56.2004L64.1692 55.9456C64.1613 55.0172 64.0581 54.0921 63.8612 53.1848Z" fill="#FED5ED"/>
<path d="M70.99 60.2687L72.67 58.7847L73.3644 61.3243C73.3644 61.3243 71.9644 61.9571 70.7408 61.1927L70.99 60.2687Z" fill="#7F3E3B"/>
<path d="M74.8932 58.6838L75.0556 60.6662L73.3756 61.3242L72.6812 58.7846L74.8932 58.6838Z" fill="#7F3E3B"/>
<path d="M47.4196 114.899L49.8836 115.137L51.5776 109.35L49.1108 109.112L47.4196 114.899Z" fill="#7F3E3B"/>
<path d="M31.7256 105.147L33.4336 106.978L37.6532 102.913L35.9424 101.082L31.7256 105.147Z" fill="#7F3E3B"/>
<path d="M33.8396 106.97L32.6328 104.413C32.6121 104.37 32.5765 104.335 32.5324 104.315C32.4883 104.295 32.4386 104.291 32.392 104.304L30.2304 104.968C30.1763 104.987 30.1268 105.017 30.0852 105.056C30.0435 105.095 30.0106 105.143 29.9887 105.196C29.9667 105.249 29.9562 105.306 29.9578 105.363C29.9594 105.42 29.9731 105.476 29.998 105.528C30.4348 106.413 30.6896 106.816 31.2216 107.941C31.5464 108.633 32.168 110.212 32.6216 111.167C33.0752 112.122 34.0412 111.727 33.9404 111.29C33.4812 109.33 33.6604 108.261 33.8816 107.421C33.9221 107.27 33.9072 107.11 33.8396 106.97Z" fill="#263238"/>
<path d="M50.144 114.387H47.1564C47.1027 114.388 47.0507 114.406 47.0082 114.439C46.9658 114.471 46.9352 114.517 46.9212 114.569L46.2716 116.93C46.2559 116.985 46.2535 117.044 46.2644 117.101C46.2754 117.158 46.2996 117.211 46.3349 117.257C46.3703 117.303 46.4159 117.34 46.4681 117.366C46.5203 117.391 46.5776 117.404 46.6356 117.403C47.6884 117.403 48.1868 117.403 49.5 117.403H53.5152C54.6072 117.403 54.834 116.3 54.3832 116.199C52.3588 115.751 51.1912 115.135 50.5668 114.544C50.4511 114.44 50.2998 114.384 50.144 114.387Z" fill="#263238"/>
<path opacity="0.2" d="M51.5776 109.35L50.704 112.335H48.1672L49.108 109.115L51.5776 109.35Z" fill="black"/>
<path opacity="0.2" d="M35.9424 101.082L37.6532 102.913L35.4776 105.007L33.7668 103.176L35.9424 101.082Z" fill="black"/>
<path d="M64.382 49.5698C64.382 49.5698 65.4404 50.1298 60.8316 64.3594L50.7236 62.811C51.5244 58.723 51.9164 56.189 51.2416 47.4474C52.7016 47.3714 54.1652 47.4013 55.6208 47.537C57.1652 47.6626 58.6988 47.8974 60.21 48.2398C61.6224 48.612 63.0148 49.0559 64.382 49.5698Z" fill="#FED5ED"/>
<path opacity="0.3" d="M64.382 49.5698C64.382 49.5698 65.4404 50.1298 60.8316 64.3594L50.7236 62.811C51.5244 58.723 51.9164 56.189 51.2416 47.4474C52.7016 47.3714 54.1652 47.4013 55.6208 47.537C57.1652 47.6626 58.6988 47.8974 60.21 48.2398C61.6224 48.612 63.0148 49.0559 64.382 49.5698Z" fill="white"/>
<path d="M56.8668 42.4412C56.9312 43.9616 56.8052 46.7112 55.6208 47.5372C55.6208 47.5372 57.9812 50.5472 59.0732 53.5544C60.4508 51.8324 60.21 48.2344 60.21 48.2344C58.6224 47.5904 58.852 46.3752 59.3168 45.272L56.8668 42.4412Z" fill="#7F3E3B"/>
<path opacity="0.2" d="M57.8636 43.5974L59.314 45.2774C59.1989 45.5333 59.1052 45.7984 59.034 46.0698C58.418 45.8822 57.5584 45.1738 57.592 44.5046C57.6285 44.1886 57.7204 43.8815 57.8636 43.5974Z" fill="black"/>
<path d="M55.6936 39.994C56.164 42.4468 56.3124 43.494 57.7236 44.6028C59.8516 46.2828 62.7636 45.1628 63.0436 42.6092C63.2872 40.3188 62.4836 36.69 59.9272 36.0208C59.3654 35.867 58.7734 35.8598 58.208 36.0001C57.6426 36.1404 57.1227 36.4234 56.6979 36.822C56.2731 37.2207 55.9578 37.7216 55.7819 38.277C55.6061 38.8323 55.5757 39.4235 55.6936 39.994Z" fill="#7F3E3B"/>
<path d="M55.1644 37.6028C54.1984 39.1904 61.3804 37.2724 61.8424 36.6088C61.0304 35.5224 59.622 35.2844 58.2024 35.598C56.7828 35.9116 55.5788 36.9224 55.1644 37.6028Z" fill="#263238"/>
<path d="M57.0208 37.0904C57.7768 38.0424 58.3564 40.6604 56.0884 41.9316C54.6688 40.5176 54.7024 39.7392 54.6688 38.9776C54.6352 38.216 56.192 36.06 57.0208 37.0904Z" fill="#263238"/>
<path d="M55.3604 42.0268C55.5579 42.4668 55.9212 42.811 56.3712 42.9844C56.9704 43.2084 57.326 42.6848 57.2112 42.0912C57.102 41.5564 56.6512 40.7948 56.0352 40.8256C55.8985 40.8341 55.7661 40.8768 55.65 40.9496C55.534 41.0224 55.4381 41.1232 55.371 41.2426C55.3039 41.362 55.2678 41.4964 55.2659 41.6334C55.2641 41.7703 55.2966 41.9056 55.3604 42.0268Z" fill="#7F3E3B"/>
<path d="M60.8316 64.3596C60.8316 64.3596 63.2704 79.796 60.2716 90.3716C58.2612 97.4528 51.7652 111.601 51.7652 111.601L47.4364 111.204C47.4364 111.204 52.6332 96.2516 53.8932 90.3212C56.052 80.174 53.42 63.22 53.42 63.22L60.8316 64.3596Z" fill="#263238"/>
<path opacity="0.2" d="M56.6652 67.1707L54.26 70.4467C54.6472 74.5412 54.793 78.655 54.6968 82.7667C58.1156 77.5167 57.1524 70.1051 56.6652 67.1707Z" fill="black"/>
<path d="M52.384 111.696L47.0164 111.559L47.3272 109.91L52.804 110.168L52.384 111.696Z" fill="#FED5ED"/>
<path d="M58.6196 64.0598C58.6196 64.0598 54.9376 79.4598 50.634 88.3358C47.1564 95.4954 36.4996 104.962 36.4996 104.962L34.2596 102.322C34.2596 102.322 41.6516 92.1774 44.2416 87.4174C50.5892 75.747 46.8036 66.8262 50.7292 62.811L58.6196 64.0598Z" fill="#263238"/>
<path d="M36.7236 105.312L33.8116 102.076L34.9372 100.74L38.0172 104.248L36.7236 105.312Z" fill="#FED5ED"/>
<path d="M50.6648 62.1951L50.0712 63.0351C50.0236 63.0995 50.0964 63.1863 50.214 63.2031L60.812 64.8243C60.9044 64.8243 60.9856 64.8047 60.9996 64.7487L61.2292 63.8583C61.246 63.7967 61.1732 63.7323 61.0752 63.7155L50.8412 62.1503C50.8104 62.1419 50.778 62.1416 50.7471 62.1495C50.7162 62.1573 50.6879 62.1731 50.6648 62.1951Z" fill="#FED5ED"/>
<path d="M51.8632 63.5504L51.5832 63.5084C51.53 63.5084 51.4908 63.4664 51.502 63.4328L51.81 62.2764C51.81 62.2428 51.8716 62.2204 51.9248 62.2288L52.2048 62.2708C52.2608 62.2708 52.2972 62.3156 52.2888 62.3492L51.978 63.5C51.9696 63.5392 51.9192 63.5588 51.8632 63.5504Z" fill="#263238"/>
<path d="M60.028 64.799L59.748 64.757C59.692 64.757 59.6556 64.715 59.664 64.6814L59.972 63.525C59.972 63.4914 60.0336 63.4718 60.0896 63.4802L60.3696 63.5194C60.4256 63.5194 60.462 63.5642 60.4536 63.5978L60.1456 64.7542C60.14 64.7878 60.0812 64.8074 60.028 64.799Z" fill="#263238"/>
<path d="M55.94 64.1747L55.66 64.1327C55.604 64.1327 55.5676 64.0907 55.576 64.0571L55.8868 62.9007C55.8868 62.8671 55.9456 62.8447 56.0016 62.8531L56.2816 62.8951C56.3348 62.8951 56.374 62.9399 56.3628 62.9735L56.0548 64.1299C56.052 64.1635 55.9988 64.1831 55.94 64.1747Z" fill="#263238"/>
<path d="M59.7816 40.1788C59.8068 40.3804 59.9356 40.5288 60.0616 40.512C60.1876 40.4952 60.28 40.3188 60.252 40.1172C60.224 39.9156 60.098 39.7672 59.972 39.784C59.846 39.8008 59.7564 39.98 59.7816 40.1788Z" fill="#263238"/>
<path d="M62.058 39.8846C62.0832 40.0862 62.212 40.2346 62.338 40.2178C62.464 40.201 62.5564 40.0246 62.5284 39.823C62.5004 39.6214 62.3744 39.473 62.2484 39.4898C62.1224 39.5066 62.0328 39.683 62.058 39.8846Z" fill="#263238"/>
<path d="M62.1924 39.5068L62.6572 39.3052C62.6572 39.3052 62.4584 39.7168 62.1924 39.5068Z" fill="#263238"/>
<path d="M61.26 40.3298C61.4997 40.7656 61.7973 41.1668 62.1448 41.5226C62.0519 41.6094 61.941 41.6747 61.82 41.7139C61.6991 41.7531 61.571 41.7652 61.4448 41.7494L61.26 40.3298Z" fill="#630F0F"/>
<path d="M60.4536 42.6372C60.0349 42.6142 59.6407 42.433 59.3504 42.1304C59.3448 42.1257 59.3402 42.1199 59.3371 42.1132C59.3339 42.1066 59.3323 42.0993 59.3322 42.092C59.3322 42.0846 59.3337 42.0774 59.3368 42.0707C59.3399 42.064 59.3443 42.0581 59.3499 42.0533C59.3555 42.0485 59.3621 42.045 59.3692 42.0431C59.3763 42.0411 59.3837 42.0407 59.3909 42.042C59.3982 42.0432 59.4051 42.0459 59.4111 42.0501C59.4172 42.0543 59.4223 42.0597 59.426 42.066C59.6066 42.2475 59.8276 42.3837 60.0709 42.4635C60.3142 42.5433 60.573 42.5645 60.826 42.5252C60.8325 42.524 60.8391 42.5242 60.8455 42.5257C60.8519 42.5272 60.858 42.53 60.8632 42.534C60.8685 42.5379 60.8729 42.5429 60.8761 42.5486C60.8793 42.5543 60.8813 42.5607 60.882 42.5672C60.8832 42.5737 60.883 42.5803 60.8815 42.5867C60.88 42.5931 60.8772 42.5992 60.8733 42.6044C60.8693 42.6097 60.8643 42.6141 60.8586 42.6173C60.8529 42.6206 60.8466 42.6226 60.84 42.6232C60.7119 42.6394 60.5826 42.6441 60.4536 42.6372Z" fill="#263238"/>
<path d="M58.642 39.1539C58.6237 39.1521 58.6063 39.1453 58.5916 39.1343C58.5809 39.127 58.5717 39.1177 58.5646 39.1068C58.5575 39.0959 58.5527 39.0837 58.5503 39.071C58.548 39.0582 58.5482 39.0451 58.5509 39.0324C58.5537 39.0198 58.559 39.0078 58.5664 38.9971C58.6688 38.8421 58.807 38.7139 58.9692 38.6233C59.1315 38.5326 59.3131 38.4822 59.4988 38.4763C59.512 38.4767 59.5251 38.4796 59.5372 38.4851C59.5493 38.4905 59.5602 38.4982 59.5693 38.5078C59.5784 38.5174 59.5855 38.5288 59.5902 38.5411C59.5949 38.5535 59.5972 38.5667 59.5968 38.5799C59.5953 38.6062 59.5837 38.6308 59.5644 38.6486C59.545 38.6664 59.5195 38.6759 59.4932 38.6751C59.3422 38.6839 59.1954 38.728 59.0646 38.8038C58.9338 38.8797 58.8226 38.9852 58.74 39.1119C58.7292 39.1274 58.7143 39.1395 58.697 39.1469C58.6797 39.1544 58.6606 39.1568 58.642 39.1539Z" fill="#263238"/>
<path d="M62.9036 38.4764C62.888 38.4804 62.8716 38.4804 62.856 38.4764C62.7298 38.3897 62.585 38.3339 62.4332 38.3135C62.2815 38.293 62.1271 38.3086 61.9824 38.3588C61.9582 38.3692 61.9309 38.3698 61.9063 38.3604C61.8818 38.351 61.8618 38.3323 61.8508 38.3084C61.8405 38.2846 61.84 38.2577 61.8494 38.2336C61.8589 38.2094 61.8775 38.19 61.9012 38.1796C62.0754 38.1138 62.2628 38.0912 62.4476 38.1136C62.6324 38.1361 62.809 38.2029 62.9624 38.3084C62.9844 38.3227 62.9999 38.3451 63.0057 38.3707C63.0114 38.3963 63.007 38.4232 62.9932 38.4456C62.982 38.4577 62.9679 38.4668 62.9523 38.4722C62.9366 38.4775 62.9199 38.479 62.9036 38.4764Z" fill="#263238"/>
<path d="M52.4484 51.348C52.0284 51.9556 51.5832 52.5772 51.166 53.2016C50.7488 53.826 50.326 54.442 49.9088 55.072C49.4916 55.702 49.108 56.3264 48.7524 56.9564C48.5732 57.27 48.4024 57.5836 48.254 57.8888L48.1476 58.1156L48.1196 58.1716V58.1996C48.1279 58.1751 48.1335 58.1497 48.1364 58.124C48.1407 58.0905 48.1407 58.0567 48.1364 58.0232C48.1464 57.8805 48.1132 57.738 48.0412 57.6144C47.9824 57.5248 47.9572 57.5108 47.9544 57.5108C48.0107 57.5656 48.0761 57.6101 48.1476 57.6424C48.2785 57.708 48.4132 57.766 48.5508 57.816C48.874 57.9272 49.203 58.0207 49.5364 58.096C50.2308 58.2752 50.9644 58.404 51.7036 58.5272C53.182 58.7624 54.7024 58.9612 56.206 59.1348L56.1836 60.4788C54.6215 60.5843 53.0545 60.5974 51.4908 60.518C50.6903 60.4802 49.8922 60.4016 49.0996 60.2828C48.6783 60.2138 48.2613 60.1203 47.8508 60.0028C47.6209 59.9418 47.3954 59.8651 47.176 59.7732C46.8911 59.661 46.6249 59.5061 46.3864 59.314C46.2008 59.1635 46.0442 58.9804 45.9244 58.7736C45.7583 58.483 45.6814 58.15 45.7032 57.816C45.7087 57.7332 45.7199 57.6509 45.7368 57.5696C45.7536 57.4996 45.7732 57.4268 45.7956 57.3568L45.818 57.2924L45.8348 57.2532L45.8628 57.1776L45.9776 56.8724C46.14 56.4776 46.308 56.0996 46.49 55.7356C46.854 55.0104 47.2348 54.3104 47.6436 53.6356C48.0524 52.9608 48.4696 52.2972 48.898 51.6448C49.3264 50.9924 49.7744 50.3568 50.256 49.7212L52.4484 51.348Z" fill="#7F3E3B"/>
<path d="M55.4472 59.4092L57.4968 58.488L57.4268 60.7028C57.4268 60.7028 56.0072 61.1144 55.2288 60.4228L55.4472 59.4092Z" fill="#7F3E3B"/>
<path d="M58.6952 58.726L58.2696 60.6664L57.4268 60.7028L57.4968 58.488L58.6952 58.726Z" fill="#7F3E3B"/>
<path opacity="0.4" d="M52.6864 52.1375L51.5664 53.0643C51.5916 53.9043 51.5972 54.6547 51.5888 55.3491C52.2664 54.8899 52.79 53.0363 52.6864 52.1375Z" fill="#FED5ED"/>
<path d="M51.2416 47.4474C49.9816 47.5846 48.002 51.0454 48.002 51.0454L51.5048 54.6434C51.5048 54.6434 53.6328 51.5298 53.6076 49.8834C53.5852 48.5114 52.86 47.2598 51.2416 47.4474Z" fill="#FED5ED"/>
<path opacity="0.3" d="M51.2416 47.4474C49.9816 47.5846 48.002 51.0454 48.002 51.0454L51.5048 54.6434C51.5048 54.6434 53.6328 51.5298 53.6076 49.8834C53.5852 48.5114 52.86 47.2598 51.2416 47.4474Z" fill="white"/>
<path d="M34.2344 108.328C34.2014 108.328 34.1689 108.32 34.1392 108.306C33.8592 108.185 33.6884 107.622 33.6184 107.295C33.6157 107.285 33.6162 107.275 33.6197 107.266C33.6233 107.257 33.6297 107.25 33.638 107.244C33.6459 107.239 33.6551 107.236 33.6646 107.236C33.6741 107.236 33.6833 107.239 33.6912 107.244C33.7808 107.298 34.548 107.774 34.5536 108.084C34.5544 108.119 34.5459 108.153 34.5292 108.183C34.5125 108.213 34.488 108.238 34.4584 108.255C34.3941 108.304 34.3151 108.33 34.2344 108.328ZM33.7416 107.393C33.8508 107.844 34.0216 108.146 34.1756 108.213C34.213 108.228 34.2537 108.233 34.2935 108.227C34.3333 108.221 34.3709 108.205 34.4024 108.18C34.4182 108.171 34.4314 108.159 34.4408 108.143C34.4501 108.128 34.4552 108.111 34.4556 108.093C34.45 107.9 34.0048 107.564 33.7416 107.393Z" fill="#FED5ED"/>
<path d="M34.408 107.561C34.1369 107.541 33.8736 107.461 33.638 107.325C33.6307 107.321 33.625 107.314 33.6216 107.306C33.6181 107.298 33.617 107.289 33.6184 107.281C33.6185 107.272 33.6212 107.264 33.6262 107.257C33.6312 107.25 33.6383 107.244 33.6464 107.241C33.6744 107.227 34.3268 106.922 34.6572 107.065C34.6983 107.081 34.7352 107.107 34.7652 107.139C34.7953 107.172 34.8177 107.21 34.8308 107.253C34.8503 107.293 34.855 107.34 34.8443 107.384C34.8336 107.427 34.8081 107.466 34.772 107.493C34.6618 107.556 34.5334 107.58 34.408 107.561ZM33.7752 107.281C34.0384 107.415 34.5564 107.519 34.7132 107.404C34.7384 107.384 34.7636 107.353 34.7384 107.272C34.7292 107.243 34.7136 107.217 34.6927 107.195C34.6719 107.174 34.6463 107.157 34.618 107.146C34.394 107.059 33.96 107.216 33.7752 107.292V107.281Z" fill="#FED5ED"/>
<path d="M51.46 114.869C51.1856 114.862 50.9126 114.827 50.6452 114.765C50.6352 114.763 50.6261 114.758 50.619 114.75C50.612 114.743 50.6075 114.733 50.606 114.723C50.6045 114.713 50.6065 114.702 50.6115 114.693C50.6166 114.684 50.6245 114.677 50.634 114.673C50.7572 114.614 51.8408 114.113 52.1124 114.3C52.1374 114.316 52.1574 114.339 52.1703 114.366C52.1832 114.392 52.1883 114.422 52.1852 114.452C52.1832 114.506 52.1688 114.56 52.1431 114.609C52.1174 114.657 52.0811 114.699 52.0368 114.732C51.8635 114.836 51.6619 114.884 51.46 114.869ZM50.816 114.701C51.138 114.76 51.7316 114.838 51.978 114.653C52.0105 114.629 52.0369 114.598 52.0554 114.562C52.0738 114.526 52.0838 114.486 52.0844 114.446C52.0844 114.407 52.0844 114.39 52.0592 114.382C51.9136 114.278 51.2724 114.502 50.8244 114.701H50.816Z" fill="#FED5ED"/>
<path d="M50.6648 114.768C50.6537 114.77 50.6423 114.77 50.6312 114.768C50.6268 114.76 50.6245 114.752 50.6245 114.743C50.6245 114.734 50.6268 114.725 50.6312 114.718C50.6312 114.673 50.886 113.598 51.4712 113.673C51.6196 113.69 51.6588 113.763 51.6672 113.822C51.7036 114.102 51.0204 114.642 50.6928 114.774L50.6648 114.768ZM51.4068 113.757C51.0316 113.757 50.8132 114.379 50.7404 114.628C51.0932 114.443 51.5804 113.998 51.558 113.822C51.558 113.822 51.558 113.771 51.4488 113.76L51.4068 113.757Z" fill="#FED5ED"/>
<path d="M59.916 39.8007L60.3808 39.5991C60.3808 39.5991 60.182 40.0107 59.916 39.8007Z" fill="#263238"/>
<path d="M76.1476 35.517L106.536 39.885C106.682 39.9059 106.822 39.9554 106.948 40.0304C107.075 40.1055 107.185 40.2048 107.273 40.3226C107.362 40.4404 107.426 40.5744 107.462 40.7169C107.498 40.8595 107.506 41.0078 107.485 41.1534L96.54 117.26C96.5191 117.406 96.4696 117.546 96.3946 117.672C96.3195 117.799 96.2202 117.909 96.1024 117.998C95.9846 118.086 95.8506 118.15 95.7081 118.186C95.5655 118.223 95.4172 118.23 95.2716 118.209L64.9 113.855C64.7544 113.834 64.6143 113.785 64.4878 113.71C64.3613 113.635 64.2508 113.536 64.1626 113.418C64.0745 113.3 64.0104 113.166 63.974 113.024C63.9377 112.881 63.9298 112.733 63.9508 112.587L74.8904 36.4662C74.9327 36.1743 75.0885 35.911 75.3239 35.7332C75.5593 35.5555 75.8553 35.4778 76.1476 35.517Z" fill="#FED5ED"/>
<path opacity="0.2" d="M76.1476 35.517L106.536 39.885C106.682 39.9059 106.822 39.9554 106.948 40.0304C107.075 40.1055 107.185 40.2048 107.273 40.3226C107.362 40.4404 107.426 40.5744 107.462 40.7169C107.498 40.8595 107.506 41.0078 107.485 41.1534L96.54 117.26C96.5191 117.406 96.4696 117.546 96.3946 117.672C96.3195 117.799 96.2202 117.909 96.1024 117.998C95.9846 118.086 95.8506 118.15 95.7081 118.186C95.5655 118.223 95.4172 118.23 95.2716 118.209L64.9 113.855C64.7544 113.834 64.6143 113.785 64.4878 113.71C64.3613 113.635 64.2508 113.536 64.1626 113.418C64.0745 113.3 64.0104 113.166 63.974 113.024C63.9377 112.881 63.9298 112.733 63.9508 112.587L74.8904 36.4662C74.9327 36.1743 75.0885 35.911 75.3239 35.7332C75.5593 35.5555 75.8553 35.4778 76.1476 35.517Z" fill="black"/>
<path opacity="0.3" d="M106.393 39.8653L106.536 39.885C106.682 39.9059 106.822 39.9553 106.948 40.0304C107.075 40.1055 107.185 40.2047 107.273 40.3225C107.362 40.4403 107.426 40.5743 107.462 40.7169C107.498 40.8594 107.506 41.0077 107.485 41.1534L96.54 117.26C96.5191 117.406 96.4696 117.546 96.3946 117.672C96.3195 117.799 96.2202 117.909 96.1024 117.998C95.9846 118.086 95.8506 118.15 95.7081 118.186C95.5655 118.222 95.4172 118.23 95.2716 118.209L95.1288 118.19C94.9832 118.169 94.8431 118.119 94.7166 118.044C94.5901 117.969 94.4796 117.87 94.3914 117.752C94.3033 117.634 94.2392 117.5 94.2029 117.358C94.1665 117.215 94.1586 117.067 94.1796 116.921L105.125 40.8202C105.145 40.674 105.194 40.5334 105.269 40.4062C105.344 40.279 105.443 40.1679 105.561 40.0792C105.678 39.9905 105.813 39.9259 105.956 39.8892C106.098 39.8525 106.247 39.8444 106.393 39.8653Z" fill="black"/>
<path d="M106.331 41.3004L77.2613 37.1895L66.6467 112.25L95.7167 116.361L106.331 41.3004Z" fill="white"/>
<path opacity="0.2" d="M77.1612 37.3425L105.441 41.4053L94.7172 116.02L66.3756 112.391L77.1612 37.3425Z" fill="#FED5ED"/>
<path d="M77.1612 37.3425L104.873 40.4057L94.0872 115.454L66.3756 112.391L77.1612 37.3425Z" fill="white"/>
<path opacity="0.2" d="M77.1612 37.3425L104.106 40.2965L93.1352 114.97L66.3756 112.391L77.1612 37.3425Z" fill="#FED5ED"/>
<path d="M77.1612 37.3425L103.834 39.8989L92.774 114.572L66.3756 112.391L77.1612 37.3425Z" fill="white"/>
<path opacity="0.2" d="M77.1612 37.3425L102.75 39.7953L91.892 114.099L66.3756 112.391L77.1612 37.3425Z" fill="#FED5ED"/>
<path d="M77.1612 37.3425L101.922 39.4873L90.94 113.799L66.3756 112.391L77.1612 37.3425Z" fill="white"/>
<path opacity="0.2" d="M77.1612 37.3425L100.144 39.3333L89.1592 113.696L66.3756 112.391L77.1612 37.3425Z" fill="#FED5ED"/>
<path d="M82.9089 34.6465L82.8887 34.9426L84.7268 35.0679L84.747 34.7718L82.9089 34.6465Z" fill="#FED5ED"/>
<path d="M86.5044 34.8919L86.4842 35.188L91.9148 35.5582L91.935 35.2621L86.5044 34.8919Z" fill="#FED5ED"/>
<path d="M98.0716 36.721L73.7956 35.069C73.3958 35.043 73.0008 35.1687 72.6895 35.4209C72.3781 35.6731 72.1732 36.0333 72.1156 36.4298L61.3076 111.607C61.2767 111.824 61.2908 112.045 61.349 112.256C61.4072 112.467 61.5083 112.664 61.646 112.834C61.7837 113.004 61.955 113.144 62.1492 113.245C62.3434 113.346 62.5564 113.406 62.7748 113.421L87.0508 115.076C87.451 115.102 87.8464 114.976 88.1578 114.723C88.4692 114.471 88.6738 114.11 88.7308 113.713L99.536 38.5382C99.5669 38.3215 99.5529 38.1008 99.4949 37.8897C99.4369 37.6787 99.336 37.4818 99.1987 37.3114C99.0614 37.141 98.8904 37.0006 98.6965 36.899C98.5026 36.7975 98.2899 36.7369 98.0716 36.721Z" fill="#FED5ED"/>
<path opacity="0.2" d="M85.3232 112.755H85.256L63.6708 111.285C63.5337 111.275 63.4001 111.237 63.2783 111.174C63.1565 111.11 63.049 111.022 62.9627 110.915C62.8763 110.808 62.8128 110.685 62.7761 110.552C62.7395 110.42 62.7304 110.281 62.7496 110.145L73.1712 37.6394C73.2099 37.3926 73.3398 37.1693 73.5353 37.0137C73.7308 36.8581 73.9776 36.7816 74.2268 36.7994L95.812 38.2694C95.9494 38.2784 96.0834 38.3157 96.2056 38.3791C96.3279 38.4424 96.4356 38.5304 96.5222 38.6374C96.6087 38.7445 96.6722 38.8683 96.7085 39.0011C96.7448 39.1339 96.7532 39.2728 96.7332 39.409L86.3144 111.895C86.2795 112.134 86.1603 112.351 85.9784 112.509C85.7965 112.667 85.564 112.754 85.3232 112.755ZM74.1596 37.0766C73.991 37.0774 73.8283 37.1386 73.7009 37.249C73.5736 37.3595 73.4899 37.5118 73.4652 37.6786L63.0436 110.199C63.0307 110.294 63.0376 110.392 63.0637 110.485C63.0898 110.578 63.1347 110.664 63.1955 110.739C63.2564 110.814 63.3319 110.876 63.4175 110.921C63.5031 110.965 63.5969 110.992 63.6932 110.999L85.2756 112.469C85.4524 112.48 85.6268 112.424 85.7645 112.313C85.9023 112.201 85.9935 112.042 86.0204 111.867L96.4392 39.3642C96.4534 39.2688 96.4475 39.1714 96.4219 39.0784C96.3964 38.9853 96.3517 38.8986 96.2908 38.8238C96.2301 38.7484 96.1545 38.6864 96.0688 38.6416C95.983 38.5968 95.8889 38.5702 95.7924 38.5634L74.2072 37.0934L74.1596 37.0766Z" fill="white"/>
</svg>
