<svg width="141" height="141" viewBox="0 0 141 141" fill="none" xmlns="http://www.w3.org/2000/svg">
<path d="M136.446 67.1624C136.446 67.1624 135.146 44.2248 115.446 28.0072C95.7448 11.7896 68.9656 9.37882 47.26 6.85882C25.5544 4.33882 9.19399 15.6592 7.12759 33.8872C5.06119 52.1152 21.7548 58.32 31.244 79.6504C40.7332 100.981 40.1032 107.81 59.426 121.597C78.7488 135.384 108.3 128.958 123.361 107.718C138.422 86.4768 136.446 67.1624 136.446 67.1624Z" fill="#FED5ED"/>
<path opacity="0.7" d="M136.446 67.1624C136.446 67.1624 135.146 44.2248 115.446 28.0072C95.7448 11.7896 68.9656 9.37882 47.26 6.85882C25.5544 4.33882 9.19399 15.6592 7.12759 33.8872C5.06119 52.1152 21.7548 58.32 31.244 79.6504C40.7332 100.981 40.1032 107.81 59.426 121.597C78.7488 135.384 108.3 128.958 123.361 107.718C138.422 86.4768 136.446 67.1624 136.446 67.1624Z" fill="white"/>
<path d="M125.1 86.46H98.8724V127.421H125.1V86.46Z" fill="#545D62" stroke="#263238" stroke-linecap="round" stroke-linejoin="round"/>
<path d="M125.103 86.46H108.664V127.421H125.103V86.46Z" fill="#263238" stroke="#263238" stroke-linecap="round" stroke-linejoin="round"/>
<path d="M123.825 96.1702C124.403 92.5924 121.972 89.2233 118.394 88.6451C114.816 88.0669 111.447 90.4985 110.869 94.0763C110.291 97.6541 112.722 101.023 116.3 101.601C119.878 102.18 123.247 99.748 123.825 96.1702Z" fill="#545D62"/>
<path d="M118.639 97.0093C119.556 96.0919 119.556 94.6044 118.639 93.687C117.721 92.7696 116.234 92.7696 115.317 93.687C114.399 94.6044 114.399 96.0919 115.317 97.0093C116.234 97.9267 117.721 97.9267 118.639 97.0093Z" fill="#263238"/>
<path d="M119.452 126.045C122.799 124.681 124.406 120.862 123.042 117.516C121.679 114.169 117.86 112.561 114.513 113.925C111.167 115.289 109.559 119.107 110.923 122.454C112.287 125.801 116.105 127.408 119.452 126.045Z" fill="#545D62"/>
<path d="M119.261 120.532C119.56 119.27 118.779 118.004 117.517 117.705C116.254 117.406 114.988 118.187 114.689 119.449C114.39 120.712 115.171 121.978 116.433 122.277C117.696 122.576 118.962 121.795 119.261 120.532Z" fill="#263238"/>
<path d="M118.226 110.276C119.877 109.586 120.656 107.689 119.967 106.038C119.277 104.387 117.38 103.608 115.729 104.297C114.078 104.987 113.299 106.884 113.988 108.535C114.678 110.186 116.575 110.965 118.226 110.276Z" fill="#545D62"/>
<path d="M118.139 107.292C118.139 107.522 118.071 107.748 117.943 107.939C117.815 108.131 117.632 108.28 117.419 108.368C117.206 108.456 116.972 108.479 116.746 108.434C116.52 108.389 116.313 108.278 116.15 108.115C115.987 107.951 115.876 107.744 115.832 107.518C115.787 107.291 115.81 107.057 115.899 106.844C115.988 106.632 116.137 106.45 116.329 106.322C116.521 106.194 116.747 106.127 116.977 106.127C117.13 106.127 117.281 106.157 117.423 106.216C117.564 106.274 117.692 106.36 117.8 106.469C117.908 106.577 117.993 106.705 118.052 106.846C118.11 106.988 118.14 107.139 118.139 107.292Z" fill="#263238"/>
<path d="M40.2544 86.46H14.0268V127.421H40.2544V86.46Z" fill="#545D62" stroke="#263238" stroke-linecap="round" stroke-linejoin="round"/>
<path d="M40.2544 86.46H23.8156V127.421H40.2544V86.46Z" fill="#263238" stroke="#263238" stroke-linecap="round" stroke-linejoin="round"/>
<path d="M36.9579 99.7692C39.3943 97.1 39.2056 92.9611 36.5365 90.5247C33.8673 88.0883 29.7284 88.277 27.292 90.9461C24.8556 93.6153 25.0443 97.7542 27.7134 100.191C30.3826 102.627 34.5214 102.438 36.9579 99.7692Z" fill="#545D62"/>
<path d="M33.8647 96.933C34.741 95.9763 34.6759 94.4903 33.7192 93.6139C32.7625 92.7376 31.2764 92.8027 30.4001 93.7594C29.5237 94.7161 29.5889 96.2021 30.5456 97.0785C31.5023 97.9549 32.9883 97.8897 33.8647 96.933Z" fill="#263238"/>
<path d="M38.4826 121.568C39.3465 118.059 37.2021 114.514 33.6929 113.65C30.1838 112.786 26.6387 114.931 25.7748 118.44C24.9109 121.949 27.0554 125.494 30.5645 126.358C34.0737 127.222 37.6187 125.078 38.4826 121.568Z" fill="#545D62"/>
<path d="M34.4118 120.55C34.7213 119.29 33.9507 118.018 32.6907 117.709C31.4308 117.399 30.1585 118.17 29.849 119.43C29.5395 120.69 30.31 121.962 31.57 122.271C32.83 122.581 34.1023 121.81 34.4118 120.55Z" fill="#263238"/>
<path d="M34.421 109.584C35.6862 108.319 35.6862 106.268 34.421 105.003C33.1559 103.738 31.1047 103.738 29.8395 105.003C28.5744 106.268 28.5744 108.319 29.8395 109.584C31.1047 110.85 33.1559 110.85 34.421 109.584Z" fill="#545D62"/>
<path d="M33.2936 107.292C33.2936 107.522 33.2253 107.748 33.0973 107.939C32.9693 108.131 32.7874 108.28 32.5745 108.368C32.3617 108.456 32.1275 108.479 31.9015 108.434C31.6756 108.389 31.4681 108.279 31.3052 108.116C31.1423 107.953 31.0313 107.745 30.9864 107.519C30.9414 107.293 30.9645 107.059 31.0527 106.846C31.1408 106.633 31.2901 106.452 31.4817 106.324C31.6732 106.196 31.8984 106.127 32.1288 106.127C32.2819 106.127 32.4335 106.157 32.575 106.215C32.7165 106.274 32.845 106.359 32.9533 106.468C33.0615 106.576 33.1473 106.704 33.2057 106.846C33.2641 106.987 33.294 107.139 33.2936 107.292Z" fill="#263238"/>
<path d="M40.2544 45.7676H14.0268V86.7288H40.2544V45.7676Z" fill="#545D62" stroke="#263238" stroke-linecap="round" stroke-linejoin="round"/>
<path d="M40.2544 45.7676H23.8156V86.7288H40.2544V45.7676Z" fill="#263238" stroke="#263238" stroke-linecap="round" stroke-linejoin="round"/>
<path d="M38.484 56.2274C39.3479 52.7182 37.2035 49.1732 33.6943 48.3093C30.1852 47.4454 26.6401 49.5898 25.7762 53.099C24.9124 56.6081 27.0568 60.1532 30.5659 61.0171C34.0751 61.881 37.6201 59.7365 38.484 56.2274Z" fill="#545D62"/>
<path d="M34.4106 55.2146C34.7201 53.9546 33.9496 52.6823 32.6896 52.3728C31.4296 52.0634 30.1573 52.8339 29.8478 54.0939C29.5384 55.3538 30.3089 56.6261 31.5689 56.9356C32.8288 57.2451 34.1011 56.4746 34.4106 55.2146Z" fill="#263238"/>
<path d="M32.1288 85.8467C35.7427 85.8467 38.6724 82.9171 38.6724 79.3031C38.6724 75.6892 35.7427 72.7595 32.1288 72.7595C28.5149 72.7595 25.5852 75.6892 25.5852 79.3031C25.5852 82.9171 28.5149 85.8467 32.1288 85.8467Z" fill="#545D62"/>
<path d="M34.4104 79.8589C34.7199 78.5989 33.9494 77.3266 32.6894 77.0171C31.4294 76.7076 30.1571 77.4782 29.8476 78.7381C29.5381 79.9981 30.3087 81.2704 31.5687 81.5799C32.8286 81.8894 34.1009 81.1188 34.4104 79.8589Z" fill="#263238"/>
<path d="M35.2826 67.337C35.6902 65.5948 34.6084 63.8521 32.8663 63.4445C31.1242 63.0368 29.3815 64.1186 28.9738 65.8607C28.5662 67.6029 29.648 69.3456 31.3901 69.7533C33.1322 70.1609 34.8749 69.0791 35.2826 67.337Z" fill="#545D62"/>
<path d="M33.2936 66.5996C33.2936 66.83 33.2253 67.0552 33.0973 67.2467C32.9693 67.4383 32.7874 67.5876 32.5745 67.6758C32.3617 67.7639 32.1275 67.787 31.9015 67.742C31.6756 67.6971 31.4681 67.5862 31.3052 67.4233C31.1423 67.2604 31.0313 67.0528 30.9864 66.8269C30.9414 66.6009 30.9645 66.3667 31.0527 66.1539C31.1408 65.941 31.2901 65.7591 31.4817 65.6311C31.6732 65.5031 31.8984 65.4348 32.1288 65.4348C32.4377 65.4348 32.734 65.5575 32.9524 65.776C33.1709 65.9944 33.2936 66.2907 33.2936 66.5996Z" fill="#263238"/>
<path d="M71.5556 51.1549C71.5556 51.1549 67.4228 53.1149 66.7452 53.9353C66.0676 54.7557 66.6696 56.4161 66.6696 57.8553C66.6696 59.2945 65.9948 63.4917 65.9948 63.4917L60.056 68.0641C59.5254 68.2685 58.968 68.3949 58.4012 68.4393C57.7264 68.4393 57.0488 70.0941 57.0488 70.0941C57.494 70.1943 57.956 70.1943 58.4012 70.0941C59.3056 69.9429 59.6052 69.4165 59.6052 69.4165L60.1316 69.0413C60.1316 69.0413 59.3784 69.9429 59.8292 69.9429C60.28 69.9429 61.1844 68.5905 61.1844 68.5905L66.8824 65.8101C67.2731 65.6149 67.5738 65.2771 67.7224 64.8665L68.9908 61.3749L68.6156 67.5349C68.6156 67.5349 63.1304 74.2241 62.002 77.2313C60.8736 80.2385 59.8964 83.9205 59.8964 84.9733C59.8964 86.0261 59.972 95.3333 59.972 95.3333L62.1532 95.4089L63.5812 83.9093C63.5812 83.9093 70.052 75.5065 70.5 75.2041C70.8186 75.0205 71.187 74.9421 71.5528 74.9801C71.5528 74.9801 73.2804 83.2457 73.6584 83.9233C74.0364 84.6009 78.7684 94.9721 78.7684 94.9721H80.4204L78.242 83.1729L78.3176 66.6361L79.5944 58.1437C79.5944 58.1437 80.1964 52.6557 79.068 51.6785C77.9396 50.7013 75.0108 51.0037 74.1092 51.0793C73.2076 51.1549 71.5556 51.1549 71.5556 51.1549Z" fill="#808080" stroke="#263238" stroke-linecap="round" stroke-linejoin="round"/>
<path d="M78.3036 68.5149L78.3204 66.6361L79.5972 58.1437C79.5972 58.1437 80.1992 52.6557 79.0708 51.6785C77.9424 50.7013 75.0136 51.0037 74.112 51.0793C73.2104 51.1549 71.5556 51.1549 71.5556 51.1549C71.5556 51.1549 67.4228 53.1149 66.7452 53.9353C66.0676 54.7557 66.6696 56.4161 66.6696 57.8553C66.6696 58.1885 66.6332 58.6813 66.5744 59.2329L69.0748 59.7341L68.9992 61.3861L68.624 67.5461C68.624 67.5461 68.3944 67.8261 68.0248 68.2909C68.8424 68.7081 70.5252 69.3269 73.2832 69.2765C74.984 69.258 76.6739 69.0016 78.3036 68.5149Z" fill="#263238" stroke="#263238" stroke-linecap="round" stroke-linejoin="round"/>
<path d="M71.62 52.5073C71.62 52.5073 72.0708 53.5573 72.74 53.5573C73.4092 53.5573 74.77 51.7541 74.77 51.0793L73.65 47.7725L71.62 52.5073Z" fill="white" stroke="#263238" stroke-linecap="round" stroke-linejoin="round"/>
<path d="M67.42 47.7726C67.42 47.7726 69.38 51.6058 70.0492 52.205C70.7184 52.8042 71.4016 53.1066 72.3788 52.205C73.356 51.3034 73.4988 49.349 73.4988 49.349C73.4988 49.349 74.3248 48.299 74.3248 47.1706C74.3248 46.0422 73.7228 45.5914 73.4232 45.2106C73.1236 44.8298 67.42 44.9166 67.42 47.7726Z" fill="white" stroke="#263238" stroke-linecap="round" stroke-linejoin="round"/>
<path d="M69.8392 49.4077C69.8392 49.4077 70.0016 50.4465 70.2956 50.5277C70.5896 50.6089 70.8836 50.2309 70.9508 50.0461" stroke="#263238" stroke-linecap="round" stroke-linejoin="round"/>
<path d="M70.2844 51.1129C70.2844 51.1129 71.6396 51.3453 71.6396 50.0881" stroke="#263238" stroke-linecap="round" stroke-linejoin="round"/>
<path d="M70.4804 48.8896L70.6288 49.2984C70.7679 49.3253 70.9118 49.3116 71.0434 49.259C71.1749 49.2063 71.2886 49.117 71.3708 49.0016" stroke="#263238" stroke-linecap="round" stroke-linejoin="round"/>
<path d="M68.3356 48.7666C68.4474 48.6599 68.5939 48.5973 68.7483 48.5901C68.9026 48.5829 69.0544 48.6316 69.1756 48.7274" stroke="#263238" stroke-linecap="round" stroke-linejoin="round"/>
<path d="M70.304 48.3801C70.304 48.3801 70.528 47.9377 71.3792 47.9741" stroke="#263238" stroke-linecap="round" stroke-linejoin="round"/>
<path d="M68.68 49.3376L68.8284 49.7436C68.9671 49.7717 69.111 49.7586 69.2424 49.7058C69.3737 49.6531 69.4868 49.5631 69.5676 49.4468" stroke="#263238" stroke-linecap="round" stroke-linejoin="round"/>
<path d="M69.226 42.1333C69.226 42.1333 67.8736 42.0605 67.196 42.0605C66.5184 42.0605 67.798 43.1105 67.798 43.1105C67.2753 43.2806 66.7729 43.5078 66.3 43.7881C65.5496 44.2389 65.2472 45.2917 65.2472 45.2917L66.0004 45.2161C66.0004 45.2161 65.096 46.4173 65.474 47.1761C65.852 47.9349 65.6224 48.3773 65.6224 48.3773L67.728 47.6269V48.4669C67.728 48.4669 70.2844 48.1673 70.9592 47.4897C71.634 46.8121 71.62 46.4201 71.62 46.4201L72.5972 47.6241C72.5972 47.6241 72.7456 46.1205 73.4372 46.0449C74.1288 45.9693 74.1148 46.3473 74.1148 46.3473C74.1148 46.3473 74.1876 43.5641 73.5128 42.6625C72.838 41.7609 71.0292 41.0833 69.226 42.1333Z" fill="#263238" stroke="#263238" stroke-linecap="round" stroke-linejoin="round"/>
<path d="M59.9804 95.3472C59.9804 95.3472 55.9232 97.0748 55.9232 97.4528C55.9232 97.8308 62.2344 97.4528 62.2344 97.4528L62.1616 95.4228L59.9804 95.3472Z" stroke="#263238" stroke-linecap="round" stroke-linejoin="round"/>
<path d="M78.7712 94.9722L77.7184 96.6998C77.7184 96.6998 76.7412 97.1506 76.7412 97.5258C76.7412 97.901 79.446 97.7526 79.6728 97.7526C79.8996 97.7526 80.7928 96.7754 80.7928 96.4758C80.7035 95.9661 80.5771 95.4635 80.4148 94.9722H78.7712Z" stroke="#263238" stroke-linecap="round" stroke-linejoin="round"/>
<path d="M70.2788 68.0642C70.2788 68.0642 68.9236 68.7418 68.6996 69.2682C68.6996 69.2682 68.8508 69.719 70.2788 68.9658C70.2788 68.9658 70.8024 67.9802 70.2788 68.0642Z" stroke="#263238" stroke-linecap="round" stroke-linejoin="round"/>
<path d="M77.7184 56.038L78.6592 63.038C78.6592 63.038 71.7068 66.9244 71.0992 67.238C70.4916 67.5516 69.7468 68.666 69.6712 68.89C69.5956 69.114 69.0692 69.6432 69.7468 69.73C70.4244 69.8168 71.6256 68.89 71.6256 68.89C71.6256 68.89 72.376 68.4392 72.6028 67.9128C72.8296 67.3864 72.9024 67.1624 72.9024 67.1624C72.9024 67.1624 80.0816 64.8524 80.608 64.6284C81.1344 64.4044 81.5096 63.8024 81.5852 63.0492C81.6608 62.296 81.0952 55.5116 80.4932 53.7084C79.8912 51.9052 79.6672 51.0792 77.262 51.2276" fill="#263238"/>
<path d="M77.7184 56.038L78.6592 63.038C78.6592 63.038 71.7068 66.9244 71.0992 67.238C70.4916 67.5516 69.7468 68.666 69.6712 68.89C69.5956 69.114 69.0692 69.6432 69.7468 69.73C70.4244 69.8168 71.6256 68.89 71.6256 68.89C71.6256 68.89 72.376 68.4392 72.6028 67.9128C72.8296 67.3864 72.9024 67.1624 72.9024 67.1624C72.9024 67.1624 80.0816 64.8524 80.608 64.6284C81.1344 64.4044 81.5096 63.8024 81.5852 63.0492C81.6608 62.296 81.0952 55.5116 80.4932 53.7084C79.8912 51.9052 79.6672 51.0792 77.262 51.2276" stroke="#263238" stroke-linecap="round" stroke-linejoin="round"/>
<path d="M73.3952 67.0225C73.3952 67.0225 80.0872 64.8525 80.6136 64.6285C81.14 64.4045 81.5152 63.8025 81.5908 63.0493C81.6384 62.5733 81.4508 59.3141 81.1288 56.9845C80.0361 56.8695 78.9334 57.0697 77.9508 57.5613L78.2924 62.2429C78.2924 62.2429 71.7068 66.9357 71.1048 67.2381C70.5028 67.5405 69.7524 68.6661 69.6768 68.8901C69.6012 69.1141 69.0748 69.6433 69.7524 69.7301C70.43 69.8169 71.6312 68.8901 71.6312 68.8901C71.6312 68.8901 72.3816 68.4393 72.6084 67.9129C72.7907 67.554 73.0615 67.2475 73.3952 67.0225Z" fill="white" stroke="#263238" stroke-linecap="round" stroke-linejoin="round"/>
<path d="M65.9948 63.4804L60.056 68.064C59.5254 68.2684 58.968 68.3948 58.4012 68.4392C57.7264 68.4392 57.0488 70.094 57.0488 70.094C57.494 70.1942 57.956 70.1942 58.4012 70.094C59.3056 69.9428 59.6052 69.4164 59.6052 69.4164L60.1316 69.0412C60.1316 69.0412 59.3784 69.9428 59.8292 69.9428C60.28 69.9428 61.1844 68.5904 61.1844 68.5904L66.8824 65.81C67.2731 65.6148 67.5738 65.277 67.7224 64.8664L68.7584 62.0132L69.0664 59.7228L66.5828 59.0508C66.4148 60.8596 65.9948 63.4804 65.9948 63.4804Z" fill="white" stroke="#263238" stroke-linecap="round" stroke-linejoin="round"/>
<path d="M72.5104 55.7104H47.582V57.0741H72.5104V55.7104Z" fill="#FED5ED" stroke="#263238" stroke-linecap="round" stroke-linejoin="round"/>
<path d="M72.5104 57.0742L77.486 59.6418V58.4322L72.5104 55.7134V57.0742Z" fill="#FED5ED" stroke="#263238" stroke-linecap="round" stroke-linejoin="round"/>
<path d="M77.486 59.6416H52.23L47.582 57.074H72.5104L77.486 59.6416Z" fill="#808080" stroke="#263238" stroke-linecap="round" stroke-linejoin="round"/>
<path d="M54.316 57.3484L57.7656 59.6752" stroke="#263238" stroke-width="2" stroke-linecap="round" stroke-linejoin="round"/>
<path d="M66.0032 57.3484L69.4528 59.6752" stroke="#263238" stroke-width="2" stroke-linecap="round" stroke-linejoin="round"/>
<path d="M56.6456 58.9866V68.473" stroke="#263238" stroke-width="2" stroke-linecap="round" stroke-linejoin="round"/>
<path d="M68.33 58.9866V68.473" stroke="#263238" stroke-width="2" stroke-linecap="round" stroke-linejoin="round"/>
<path d="M50.0264 71.5894L74.6412 97.7302" stroke="#263238" stroke-width="3" stroke-linecap="round" stroke-linejoin="round"/>
<path d="M74.6412 71.5894L50.0264 97.7302" stroke="#263238" stroke-width="3" stroke-linecap="round" stroke-linejoin="round"/>
<path d="M77.9256 66.9133H44.9724V69.5005H77.9256V66.9133Z" fill="#FED5ED" stroke="#263238" stroke-linecap="round" stroke-linejoin="round"/>
<path d="M75.288 72.0289H47.6072L44.9724 69.4417H77.9256L75.288 72.0289Z" fill="#808080" stroke="#263238" stroke-linecap="round" stroke-linejoin="round"/>
<path d="M77.9256 66.9133L81.84 69.3437V71.6229L77.9256 69.4417V66.9133Z" fill="white" stroke="#263238" stroke-linecap="round" stroke-linejoin="round"/>
<path d="M75.288 72.0288H80.37L81.84 71.6228L77.7884 69.3716L75.288 72.0288Z" fill="#808080" stroke="#263238" stroke-linecap="round" stroke-linejoin="round"/>
<path d="M54.9516 49.3993C54.9516 49.6313 55.0204 49.8581 55.1493 50.0511C55.2782 50.244 55.4615 50.3944 55.6758 50.4832C55.8902 50.572 56.1261 50.5952 56.3537 50.5499C56.5813 50.5047 56.7903 50.3929 56.9544 50.2289C57.1184 50.0648 57.2302 49.8557 57.2755 49.6282C57.3207 49.4006 57.2975 49.1647 57.2087 48.9503C57.1199 48.7359 56.9695 48.5527 56.7766 48.4238C56.5837 48.2949 56.3568 48.2261 56.1248 48.2261C55.8139 48.2268 55.5159 48.3507 55.296 48.5705C55.0762 48.7904 54.9523 49.0884 54.9516 49.3993Z" fill="#263238" stroke="#263238" stroke-linecap="round" stroke-linejoin="round"/>
<path d="M56.2452 49.4609C56.2318 49.5722 56.1963 49.6796 56.1407 49.7769C56.0852 49.8742 56.0107 49.9594 55.9218 50.0275C55.8328 50.0956 55.7311 50.1452 55.6227 50.1734C55.5143 50.2016 55.4013 50.2078 55.2904 50.1917L51.0708 49.5001C50.9292 49.4806 50.8005 49.4076 50.7109 49.2962C50.6214 49.1848 50.5779 49.0434 50.5892 48.9009C50.6033 48.7554 50.6722 48.6207 50.7819 48.524C50.8916 48.4273 51.0339 48.3759 51.18 48.3801L55.4528 48.5621C55.5642 48.5682 55.6732 48.5963 55.7736 48.645C55.874 48.6936 55.9637 48.7617 56.0374 48.8454C56.1112 48.9291 56.1676 49.0266 56.2032 49.1323C56.2389 49.2379 56.2532 49.3497 56.2452 49.4609Z" fill="white" stroke="#263238" stroke-linecap="round" stroke-linejoin="round"/>
<path d="M53.3892 48.5874V51.7738L40.5036 65.0934" stroke="#263238" stroke-width="2" stroke-linecap="round" stroke-linejoin="round"/>
<path d="M44.0512 61.4028V97.9596" stroke="#263238" stroke-width="2" stroke-linecap="round" stroke-linejoin="round"/>
<path d="M108.446 97.0386H33.4756V127.522H108.446V97.0386Z" fill="#545D62" stroke="#263238" stroke-linecap="round" stroke-linejoin="round"/>
<path d="M91.6848 97.0386H29.8832V127.522H91.6848V97.0386Z" fill="#263238" stroke="#263238" stroke-linecap="round" stroke-linejoin="round"/>
<path d="M81.0084 96.162C81.0084 96.162 81.0868 99.6788 81.3556 101.115C81.6244 102.552 81.714 110.187 81.714 110.187C81.714 110.187 80.0984 113.34 79.3788 115.86C78.6592 118.38 77.3124 122.86 77.3124 122.86L80.5464 123.49C80.5464 123.49 82.4336 118.638 83.7804 116.302C85.1272 113.967 86.2052 111.542 86.4768 110.103C86.7484 108.664 88.4508 100.043 88.4508 100.043L89.8004 99.326C89.8004 99.326 95.8176 100.852 97.5256 100.942C99.2336 101.031 100.046 101.031 100.046 101.031C100.046 101.031 98.9676 103.728 98.7884 105.973C98.6092 108.219 97.0804 112.973 97.0804 112.973L99.3204 113.782L102.375 105.78C102.375 105.78 104.71 101.11 104.895 100.3C104.948 100.069 104.95 99.8288 104.902 99.5964C104.854 99.364 104.756 99.1448 104.615 98.9536C104.615 98.9536 98.8668 95.63 96.442 94.8236C95.1289 94.3672 93.7777 94.0289 92.4044 93.8128L91.9256 93.0596L81.2604 95.0924L81.0084 96.162Z" fill="white" stroke="#263238" stroke-linecap="round" stroke-linejoin="round"/>
<path d="M82.428 75.8199C82.428 75.8199 77.752 77.8191 76.8588 79.0791C75.9656 80.3391 78.06 83.9707 78.9 86.3871C79.74 88.8035 81 92.0627 81 92.0627V96.1619C83.1542 96.5479 85.369 96.4213 87.4652 95.7923C90.8252 94.7423 92.1944 93.4291 92.1944 93.4291C92.1944 93.4291 90.7748 90.7495 90.7216 90.4863C90.6684 90.2231 89.6716 85.8075 89.6716 85.8075L89.1984 78.2475C89.1984 78.2475 92.7712 72.0455 93.2976 70.7323C93.824 69.4191 91.7212 59.3279 91.7212 59.3279C91.7212 59.3279 91.668 57.9111 91.1444 57.5947C90.6208 57.2783 88.462 57.3315 88.2016 57.7515C87.9412 58.1715 87.7284 59.2243 88.1484 59.5379C88.5684 59.8515 89.8284 59.6975 89.8284 59.6975C90.0498 60.0444 90.1772 60.4429 90.198 60.8539C90.3016 61.6939 90.2512 69.9427 90.2512 69.9427L86.74 74.0895L82.428 75.8199Z" fill="white" stroke="#263238" stroke-linecap="round" stroke-linejoin="round"/>
<path d="M89.68 85.8076L89.2068 78.2476C89.2068 78.2476 89.9796 76.9064 90.8588 75.3412C89.0724 74.5768 88.2912 73.4708 87.9496 72.6672L86.7372 74.0952L82.428 75.82C82.428 75.82 77.752 77.8192 76.8588 79.0792C75.9656 80.3392 78.06 83.9708 78.9 86.3872C79.74 88.8036 81 92.0628 81 92.0628V96.162C83.1542 96.548 85.369 96.4214 87.4652 95.7924C90.8252 94.7424 92.1944 93.4292 92.1944 93.4292C92.1944 93.4292 90.7748 90.7496 90.7216 90.4864C90.6684 90.2232 89.68 85.8076 89.68 85.8076Z" fill="#263238" stroke="#263238" stroke-linecap="round" stroke-linejoin="round"/>
<path d="M80.0648 73.6696L81.4312 76.2456C81.4312 76.2456 82.3748 78.3988 83.5312 78.1888C84.6876 77.9788 84.6344 75.4028 84.6344 75.4028L83.7412 73.5632L80.0648 73.6696Z" fill="white" stroke="#263238" stroke-linecap="round" stroke-linejoin="round"/>
<path d="M82.3244 67.2575C82.3244 67.2575 80.1684 65.5243 79.6952 65.4711C79.222 65.4179 77.3824 65.9975 76.3352 67.4675C75.288 68.9375 75.3356 70.8275 75.5456 71.1075C75.7556 71.3875 78.3848 73.2635 78.3848 73.2635C78.4813 73.3002 78.5843 73.3169 78.6875 73.3128C78.7907 73.3087 78.892 73.2839 78.9853 73.2397C79.0787 73.1955 79.1621 73.1329 79.2307 73.0557C79.2993 72.9785 79.3515 72.8882 79.3844 72.7903C79.6448 72.0539 80.9608 69.8475 81.854 69.3743C82.7472 68.9011 82.6912 68.3607 82.3244 67.2575Z" fill="white" stroke="#263238" stroke-linecap="round" stroke-linejoin="round"/>
<path d="M83.8168 69.1616C83.8168 69.1616 84.8444 71.5668 84.9508 72.5216C85.0572 73.4764 85.004 74.7812 83.5312 74.938C82.0584 75.0948 80.4848 74.3612 80.0116 74.0448L79.5384 73.7312C79.5384 73.7312 79.2752 74.2044 78.382 74.2044C77.4888 74.2044 77.8052 73.1012 78.4884 72.838C78.4884 72.838 79.0652 69.9456 80.0648 69.1056C81.0644 68.2656 81.588 68.0024 82.7444 68.1088C83.9008 68.2152 83.8168 69.1616 83.8168 69.1616Z" fill="white" stroke="#263238" stroke-linecap="round" stroke-linejoin="round"/>
<path d="M80.6696 70.5364C80.7615 70.3247 80.9054 70.1398 81.088 69.9988C81.2707 69.8578 81.486 69.7653 81.714 69.73" stroke="#263238" stroke-linecap="round" stroke-linejoin="round"/>
<path d="M82.7556 69.4472C82.7556 69.4472 82.8508 69.0188 83.562 69.2568" stroke="#263238" stroke-linecap="round" stroke-linejoin="round"/>
<path d="M82.3776 69.3044C82.4073 69.4133 82.4677 69.5113 82.5516 69.5868C82.6355 69.6623 82.7394 69.712 82.8508 69.73C83.2316 69.7776 83.8952 69.6824 83.8952 70.01C83.8395 70.3432 83.7268 70.6643 83.562 70.9592" stroke="#263238" stroke-linecap="round" stroke-linejoin="round"/>
<path d="M83.8336 71.4548C83.3351 71.7068 82.7783 71.8209 82.2208 71.7852C82.1864 71.78 82.1513 71.7857 82.1203 71.8013C82.0892 71.817 82.0638 71.8419 82.0475 71.8726C82.0312 71.9034 82.0249 71.9384 82.0293 71.9729C82.0338 72.0074 82.0488 72.0396 82.0724 72.0652C82.3524 72.3816 82.8032 72.7876 83.2316 72.8156C83.7272 72.8492 83.968 72.0988 84.0716 71.6424C84.0798 71.6112 84.0787 71.5784 84.0685 71.5479C84.0583 71.5173 84.0394 71.4905 84.0141 71.4705C83.9889 71.4506 83.9583 71.4385 83.9262 71.4357C83.8942 71.4329 83.862 71.4395 83.8336 71.4548Z" fill="#263238"/>
<path d="M78.172 73.0199C78.172 73.0199 78.5836 71.9335 79.1268 70.6959C79.6308 69.5507 80.2468 68.2767 80.7508 67.6159C81.8008 66.2439 84.4608 65.1967 85.0264 66.0815C85.592 66.9663 83.8168 69.1475 83.8168 69.1475C83.8168 69.1475 83.2568 68.3411 82.6072 68.3411C81.9576 68.3411 80.3896 69.4611 80.0256 70.1135C79.3452 71.3399 78.172 73.0199 78.172 73.0199Z" fill="#263238" stroke="#263238" stroke-linecap="round" stroke-linejoin="round"/>
<path d="M79.6952 77.9255L82.428 78.6619L81.588 83.2343C80.7414 83.229 79.8974 83.1408 79.068 82.9711C78.5837 82.8663 78.141 82.621 77.7954 82.2659C77.4498 81.9108 77.2165 81.4617 77.1248 80.9747" fill="#263238"/>
<path d="M79.6952 77.9255L82.428 78.6619L81.588 83.2343C80.7414 83.229 79.8974 83.1408 79.068 82.9711C78.5837 82.8663 78.141 82.621 77.7954 82.2659C77.4498 81.9108 77.2165 81.4617 77.1248 80.9747" stroke="#263238" stroke-linecap="round" stroke-linejoin="round"/>
<path d="M86.5804 70.2199C86.5804 70.4226 86.5203 70.6207 86.4077 70.7892C86.2951 70.9577 86.135 71.0891 85.9478 71.1667C85.7605 71.2442 85.5545 71.2645 85.3557 71.225C85.1569 71.1854 84.9743 71.0878 84.8309 70.9445C84.6876 70.8012 84.59 70.6186 84.5505 70.4198C84.5109 70.221 84.5312 70.015 84.6088 69.8277C84.6864 69.6404 84.8177 69.4804 84.9862 69.3678C85.1548 69.2552 85.3529 69.1951 85.5556 69.1951C85.8274 69.1951 86.088 69.303 86.2802 69.4952C86.4724 69.6874 86.5804 69.9481 86.5804 70.2199Z" fill="#263238" stroke="#263238" stroke-linecap="round" stroke-linejoin="round"/>
<path d="M85.4492 70.2815C85.4597 70.3798 85.4901 70.4748 85.5387 70.5609C85.5872 70.6469 85.6528 70.7221 85.7315 70.7819C85.8102 70.8417 85.9002 70.8848 85.9961 70.9085C86.092 70.9322 86.1918 70.9361 86.2892 70.9199L89.974 70.3263C90.0966 70.3065 90.2076 70.2421 90.2856 70.1454C90.3636 70.0488 90.4032 69.9268 90.3968 69.8027C90.3889 69.671 90.3296 69.5477 90.2317 69.4592C90.1338 69.3707 90.0051 69.3241 89.8732 69.3295L86.1436 69.4863C86.0447 69.4896 85.9475 69.5133 85.858 69.5557C85.7686 69.5982 85.6889 69.6586 85.6238 69.7331C85.5586 69.8077 85.5095 69.8949 85.4795 69.9892C85.4495 70.0835 85.4392 70.183 85.4492 70.2815Z" fill="#263238" stroke="#263238" stroke-linecap="round" stroke-linejoin="round"/>
<path d="M87.8852 68.9964C87.7073 69.011 87.5367 69.0733 87.3913 69.1768C87.2459 69.2803 87.1312 69.4211 87.0592 69.5844C86.8912 69.9736 86.7176 70.4608 86.8072 70.6372C86.964 70.9536 87.3168 73.1964 87.3168 73.1964C87.3168 73.1964 80.748 79.712 80.2216 80.3C79.6952 80.888 79.9584 83.296 81.798 83.1364C83.6376 82.9768 88.4704 73.468 88.4704 73.468C88.6687 72.8513 88.8102 72.2177 88.8932 71.5752C88.9019 71.0485 88.8068 70.5252 88.6132 70.0352C88.7365 69.7472 88.9231 69.4907 89.1592 69.2848C89.4 69.114 88.3304 68.9628 87.8852 68.9964Z" fill="white" stroke="#263238" stroke-linecap="round" stroke-linejoin="round"/>
<path d="M87.58 69.1475C87.3685 69.5533 87.2337 69.9947 87.1824 70.4495" stroke="#263238" stroke-linecap="round" stroke-linejoin="round"/>
<path d="M88.14 69.0999C87.8315 69.4822 87.6679 69.9611 87.678 70.4523" stroke="#263238" stroke-linecap="round" stroke-linejoin="round"/>
<path d="M88.7 69.1475C88.7 69.1475 88.1568 69.4919 88.1232 70.4495" stroke="#263238" stroke-linecap="round" stroke-linejoin="round"/>
<path d="M80.384 123.378C80.384 123.378 82.1872 125.231 83.016 125.766C83.8448 126.301 85.5024 126.497 84.9172 127.18C84.332 127.863 81.1176 127.326 79.8968 127.228C78.676 127.13 78.0964 126.206 77.024 125.621C75.9516 125.035 77.304 122.854 77.304 122.854L80.384 123.378Z" fill="white" stroke="#263238" stroke-linecap="round" stroke-linejoin="round"/>
<path d="M97.0748 112.973C97.1 112.609 95.7336 115.095 96.1256 115.437C96.5176 115.779 98.024 116.263 98.5616 116.75C99.0992 117.237 100.121 117.531 101.289 117.677C102.456 117.823 102.899 117.873 102.899 117.288C102.899 116.703 101.728 116.448 101.728 116.448L99.3204 113.771L97.0748 112.973Z" fill="white" stroke="#263238" stroke-linecap="round" stroke-linejoin="round"/>
<path d="M88.4424 56.5728H88.4312C88.2379 56.5728 88.0812 56.7295 88.0812 56.9228V57.956C88.0812 58.1493 88.2379 58.306 88.4312 58.306H88.4424C88.6357 58.306 88.7924 58.1493 88.7924 57.956V56.9228C88.7924 56.7295 88.6357 56.5728 88.4424 56.5728Z" fill="white" stroke="#263238" stroke-linecap="round" stroke-linejoin="round"/>
<path d="M89.1704 56.4719H89.1592C88.9659 56.4719 88.8092 56.6286 88.8092 56.8219V57.8551C88.8092 58.0484 88.9659 58.2051 89.1592 58.2051H89.1704C89.3637 58.2051 89.5204 58.0484 89.5204 57.8551V56.8219C89.5204 56.6286 89.3637 56.4719 89.1704 56.4719Z" fill="white" stroke="#263238" stroke-linecap="round" stroke-linejoin="round"/>
<path d="M89.8508 56.623H89.8396C89.6463 56.623 89.4896 56.7797 89.4896 56.973V58.0062C89.4896 58.1995 89.6463 58.3562 89.8396 58.3562H89.8508C90.0441 58.3562 90.2008 58.1995 90.2008 58.0062V56.973C90.2008 56.7797 90.0441 56.623 89.8508 56.623Z" fill="white" stroke="#263238" stroke-linecap="round" stroke-linejoin="round"/>
<path d="M87.6237 58.529L87.6226 58.5401C87.6035 58.7325 87.744 58.9039 87.9364 58.9229L88.9646 59.0246C89.1569 59.0436 89.3283 58.9031 89.3473 58.7108L89.3484 58.6996C89.3675 58.5073 89.227 58.3359 89.0346 58.3169L88.0064 58.2151C87.8141 58.1961 87.6427 58.3366 87.6237 58.529Z" fill="white" stroke="#263238" stroke-linecap="round" stroke-linejoin="round"/>
<path d="M90.604 56.7966H90.5928C90.3995 56.7966 90.2428 56.9533 90.2428 57.1466V58.1798C90.2428 58.3731 90.3995 58.5298 90.5928 58.5298H90.604C90.7973 58.5298 90.954 58.3731 90.954 58.1798V57.1466C90.954 56.9533 90.7973 56.7966 90.604 56.7966Z" fill="white" stroke="#263238" stroke-linecap="round" stroke-linejoin="round"/>
<path d="M90.072 127.519H111.702V117.548H94.5716L90.072 127.519Z" fill="#5A6368" stroke="#263238" stroke-linecap="round" stroke-linejoin="round"/>
<path d="M111.702 117.548H97.5676V127.522H111.702V117.548Z" fill="#263238" fill-opacity="0.7" stroke="#263238" stroke-linecap="round" stroke-linejoin="round"/>
<path d="M22.914 88.2856L28.6708 88.728L26.2348 89.9824C26.2348 89.9824 22.6928 91.0156 21.8836 90.5732C21.0744 90.1308 21.4384 88.434 22.914 88.2856Z" fill="white" stroke="#263238" stroke-linecap="round" stroke-linejoin="round"/>
<path d="M21.094 80.5801L24.02 88.1401L21.3488 89.1817C21.3488 89.1817 20.898 81.1653 21.094 80.5801Z" fill="#263238" stroke="#263238" stroke-linecap="round" stroke-linejoin="round"/>
<path d="M12.0668 96.9936L12.1088 97.31L14.2956 110.82C14.2956 110.82 13.4864 114.807 13.4864 116.946C13.4864 119.086 12.8956 124.767 12.8956 124.767H15.1832C15.1832 124.767 18.2072 111.047 18.504 109.566C18.8008 108.084 18.42 100.536 18.42 100.536C18.42 100.536 23.2248 108.754 24.6276 110.82C24.6276 110.82 23.446 111.708 23.2276 115.02C23.0092 118.332 22.2252 124.294 22.2252 124.294L24.1432 124.663C24.1432 124.663 26.2544 117.383 26.8452 115.832C27.436 114.281 28.7632 110.232 28.7632 109.336C28.7632 108.44 22.0432 96.988 22.0432 96.988L12.0668 96.9936Z" fill="#2F3A40"/>
<mask id="mask0_25_247" style="mask-type:luminance" maskUnits="userSpaceOnUse" x="12" y="96" width="17" height="29">
<path d="M12.0668 96.9936L12.1088 97.31L14.2956 110.82C14.2956 110.82 13.4864 114.807 13.4864 116.946C13.4864 119.086 12.8956 124.767 12.8956 124.767H15.1832C15.1832 124.767 18.2072 111.047 18.504 109.566C18.8008 108.084 18.42 100.536 18.42 100.536C18.42 100.536 23.2248 108.754 24.6276 110.82C24.6276 110.82 23.446 111.708 23.2276 115.02C23.0092 118.332 22.2252 124.294 22.2252 124.294L24.1432 124.663C24.1432 124.663 26.2544 117.383 26.8452 115.832C27.436 114.281 28.7632 110.232 28.7632 109.336C28.7632 108.44 22.0432 96.988 22.0432 96.988L12.0668 96.9936Z" fill="white"/>
</mask>
<g mask="url(#mask0_25_247)">
<path opacity="0.3" d="M12.0668 96.9936L12.1088 97.31L14.2956 110.82C14.2956 110.82 13.4864 114.807 13.4864 116.946C13.4864 119.086 12.8956 124.767 12.8956 124.767H15.1832C15.1832 124.767 18.2072 111.047 18.504 109.566C18.8008 108.084 18.42 100.536 18.42 100.536C18.42 100.536 23.2248 108.754 24.6276 110.82C24.6276 110.82 23.446 111.708 23.2276 115.02C23.0092 118.332 22.2252 124.294 22.2252 124.294L24.1432 124.663C24.1432 124.663 26.2544 117.383 26.8452 115.832C27.436 114.281 28.7632 110.232 28.7632 109.336C28.7632 108.44 22.0432 96.988 22.0432 96.988L12.0668 96.9936Z" fill="white"/>
</g>
<path d="M12.0668 96.9936L12.1088 97.31L14.2956 110.82C14.2956 110.82 13.4864 114.807 13.4864 116.946C13.4864 119.086 12.8956 124.767 12.8956 124.767H15.1832C15.1832 124.767 18.2072 111.047 18.504 109.566C18.8008 108.084 18.42 100.536 18.42 100.536C18.42 100.536 23.2248 108.754 24.6276 110.82C24.6276 110.82 23.446 111.708 23.2276 115.02C23.0092 118.332 22.2252 124.294 22.2252 124.294L24.1432 124.663C24.1432 124.663 26.2544 117.383 26.8452 115.832C27.436 114.281 28.7632 110.232 28.7632 109.336C28.7632 108.44 22.0432 96.988 22.0432 96.988L12.0668 96.9936Z" stroke="#263238" stroke-linecap="round" stroke-linejoin="round"/>
<path d="M17.2496 74.5825C17.2496 74.5825 15.6844 77.9061 15.424 78.0377C15.1636 78.1693 11.3164 78.8189 11.056 79.8605C10.7956 80.9021 10.4708 97.5901 10.4708 97.5901C10.4708 97.5901 15.4884 97.9149 18.0952 97.9793C19.6297 98.0254 21.1638 97.8729 22.6592 97.5257C22.6592 97.5257 23.1156 94.3309 22.592 92.3093C22.0684 90.2877 21.4188 81.6217 21.094 80.5773C20.7692 79.5329 19.008 78.4941 18.9436 78.2309C18.8792 77.9677 20.1168 75.8201 20.1168 75.8201L17.2496 74.5825Z" fill="#263238" stroke="#263238" stroke-linecap="round" stroke-linejoin="round"/>
<path d="M19.9712 79.1549C19.4644 78.7125 18.9772 78.3681 18.9436 78.2309C18.8792 77.9705 20.1168 75.8201 20.1168 75.8201L17.2496 74.5825C17.2496 74.5825 15.6844 77.9061 15.424 78.0377C15.3428 78.0769 14.9172 78.1665 14.3628 78.3037C14.3376 79.0765 14.4636 81.2773 16.6616 81.4901C18.308 81.6525 19.386 80.2525 19.9712 79.1549Z" fill="white" stroke="#263238" stroke-linecap="round" stroke-linejoin="round"/>
<path d="M22.592 70.4749C23.109 70.4216 23.615 70.2904 24.0928 70.0857C24.8096 69.7581 24.8096 68.3917 24.4176 67.8681C24.0256 67.3445 22.8524 68.3245 22.2028 67.7393C21.5532 67.1541 21.0296 65.9137 20.2428 66.1741C19.456 66.4345 18.616 67.4201 18.616 67.4201C18.616 67.4201 16.46 66.3001 15.424 67.4789C14.388 68.6577 14.1864 70.2201 14.7072 71.0601C15.228 71.9001 15.5472 73.1461 15.1636 73.6025C14.78 74.0589 14.9676 74.8401 16.0764 74.9045C17.1852 74.9689 17.3784 74.3193 17.3784 74.3193C17.3784 74.3193 18.5516 74.7113 19.204 74.2549C19.8564 73.7985 20.3772 71.6453 21.164 71.0601C21.5709 70.7267 22.0682 70.5229 22.592 70.4749Z" fill="#263238" stroke="#263238" stroke-linecap="round" stroke-linejoin="round"/>
<path d="M17.706 73.4093C17.706 73.4093 17.118 71.9757 16.4012 72.8213C15.6844 73.6669 16.2052 74.4509 16.726 74.7813C17.0912 74.993 17.487 75.1469 17.8992 75.2377C17.8992 75.2377 18.1596 75.7585 20.0524 76.6713C21.9452 77.5841 21.7324 76.1505 22.0124 75.5513C22.2924 74.9521 22.34 73.4093 22.34 73.4093C22.34 73.4093 22.7964 73.8013 22.8608 73.4737C22.9252 73.1461 22.6004 70.4749 22.6004 70.4749C22.6004 70.4749 21.1668 69.5649 20.5816 70.2145C19.9964 70.8641 19.9292 71.5193 19.4084 71.7153C18.8876 71.9113 18.6244 71.9757 18.4956 72.2361C18.3668 72.4965 18.2912 73.6054 17.706 73.4093Z" fill="white" stroke="#263238" stroke-linecap="round" stroke-linejoin="round"/>
<path d="M21.6484 74.6806C21.6484 74.6806 20.9008 74.521 20.688 73.989" stroke="#263238" stroke-linecap="round" stroke-linejoin="round"/>
<path d="M21.1668 71.4325C21.4291 71.3112 21.7225 71.2741 22.0068 71.3261" stroke="#263238" stroke-linecap="round" stroke-linejoin="round"/>
<path d="M21.808 71.8582V72.8186L21.1136 72.7122" stroke="#263238" stroke-linecap="round" stroke-linejoin="round"/>
<path d="M12.4896 79.5357C12.4896 79.5357 10.7312 79.4041 10.0788 80.2525C9.42641 81.1009 6.43881 88.3333 6.43881 88.3333L10.804 88.5293L12.89 82.5989" fill="#263238"/>
<path d="M12.4896 79.5357C12.4896 79.5357 10.7312 79.4041 10.0788 80.2525C9.42641 81.1009 6.43881 88.3333 6.43881 88.3333L10.804 88.5293L12.89 82.5989" stroke="#263238" stroke-linecap="round" stroke-linejoin="round"/>
<path d="M22.9196 88.857C22.7656 88.9774 22.0796 89.697 22.6592 90.4866L21.4188 91.3266C21.4188 91.3266 22.4632 93.1522 23.8324 93.5442C25.2016 93.9362 25.266 94.9778 24.5492 95.367C23.8324 95.7562 21.7492 95.1738 20.5732 95.6274C19.3972 96.081 17.1824 99.2142 14.9732 99.343C12.764 99.4718 10.6724 96.7362 10.0844 94.1938C9.49641 91.6514 11.3892 89.0446 13.1476 88.6554C14.906 88.2662 16.6672 89.4954 18.3612 89.3078C20.0552 89.1202 21.36 86.4378 23.1212 86.5694C24.8824 86.701 23.572 88.3334 22.9196 88.857Z" fill="#FED5ED" stroke="#263238" stroke-linecap="round" stroke-linejoin="round"/>
<path d="M21.4188 91.332C21.4188 91.332 20.5536 92.7124 22.1776 93.4516C23.8016 94.1908 23.74 94.706 22.62 94.6304C21.5 94.5548 19.82 94.0396 18.9296 95.2968C18.0392 96.554 16.4096 97.3604 14.5756 96.624C12.7416 95.8876 12.4364 91.6792 13.7664 91.458C15.0964 91.2368 15.3008 91.9032 16.8464 92.0488C18.392 92.1944 21.4188 91.332 21.4188 91.332Z" fill="white" stroke="#263238" stroke-linecap="round" stroke-linejoin="round"/>
<path d="M15.6844 93.1577L36.8664 84.7493L37.1912 85.6621L16.2052 94.2665L15.6844 93.1577Z" fill="#787878" stroke="#263238" stroke-linecap="round" stroke-linejoin="round"/>
<path d="M10.2104 88.465C10.2104 88.465 16.4012 92.0602 16.8576 92.0602C17.314 92.0602 18.3556 91.5394 18.616 91.5394C18.8764 91.5394 20.3128 92.581 20.3128 92.8442C20.3128 93.1074 20.2456 93.3006 19.8564 93.3006C19.4672 93.3006 19.1396 93.8214 18.8792 94.0818C18.6188 94.3422 17.1824 94.0174 16.9892 93.8214C16.796 93.6254 16.1492 93.0374 16.1492 93.0374C16.6168 93.3174 10.762 91.4218 7.08841 89.4534C6.80841 89.2994 6.5676 88.997 6.828 88.4118C7.0884 87.8266 10.2104 88.465 10.2104 88.465Z" fill="white" stroke="#263238" stroke-linecap="round" stroke-linejoin="round"/>
<path d="M36.8664 84.7494L36.9364 83.5622L42.3964 82.9714C42.3964 82.9714 42.8388 83.9318 42.1752 84.2258C41.9835 84.3107 41.7724 84.342 41.5643 84.3163C41.3562 84.2907 41.159 84.2091 40.9936 84.0802C40.9936 84.0802 39.5936 85.259 39.0756 85.4802C38.5576 85.7014 37.1912 85.6622 37.1912 85.6622L36.8664 84.7494Z" fill="white" stroke="#263238" stroke-linecap="round" stroke-linejoin="round"/>
<path d="M15.1832 124.764C15.1832 124.764 16.8044 125.946 18.2072 126.315C19.61 126.685 20.2008 127.2 19.7584 127.435C19.316 127.671 12.526 127.435 12.526 127.435C12.526 127.435 12.7472 126.108 12.8956 124.778L15.1832 124.764Z" fill="white" stroke="#263238" stroke-linecap="round" stroke-linejoin="round"/>
<path d="M28.08 88.6554C28.08 88.6554 28.1556 89.8342 28.598 89.7754C29.0404 89.7166 30.3676 89.2574 30.5888 88.8906C30.81 88.5238 30.6644 87.6362 30.0008 87.6362C29.3372 87.6362 28.08 88.6554 28.08 88.6554Z" fill="white" stroke="#263238" stroke-linecap="round" stroke-linejoin="round"/>
<path d="M22.2224 124.299C22.2224 124.299 21.4468 126.195 21.3824 126.405C21.318 126.615 22.1328 127.158 23.3928 127.307C24.4492 127.456 25.5128 127.55 26.5792 127.587C27.3884 127.587 27.5396 127.645 27.66 127.556C27.7804 127.466 27.6292 126.926 27.5396 126.836C27.45 126.747 25.798 126.276 25.196 125.814C24.7731 125.463 24.4084 125.047 24.1152 124.582L22.2224 124.299Z" fill="white" stroke="#263238" stroke-linecap="round" stroke-linejoin="round"/>
<path d="M31.0228 127.519H52.6528V117.549H35.5196L31.0228 127.519Z" fill="#5A6368" stroke="#263238" stroke-linecap="round" stroke-linejoin="round"/>
<path d="M52.6528 117.549H38.5184V127.522H52.6528V117.549Z" fill="#263238" fill-opacity="0.5" stroke="#263238" stroke-linecap="round" stroke-linejoin="round"/>
<path d="M131.879 16.0093H21.3488" stroke="#263238" stroke-width="4" stroke-linecap="round" stroke-linejoin="round"/>
<path d="M35.0968 13.6487H28.8192V20.2119H35.0968V13.6487Z" fill="#263238"/>
<path d="M81.9016 13.6487H75.624V20.2119H81.9016V13.6487Z" fill="#263238"/>
<path d="M58.0143 12.7001L52.207 15.0842L54.6996 21.1557L60.5069 18.7716L58.0143 12.7001Z" fill="#263238"/>
<path d="M103.107 12.6991L97.2993 15.0833L99.7919 21.1547L105.599 18.7706L103.107 12.6991Z" fill="#263238"/>
</svg>
