<svg width="141" height="141" viewBox="0 0 141 141" fill="none" xmlns="http://www.w3.org/2000/svg">
<path d="M70.5 120.217C100.483 120.217 124.789 118.798 124.789 117.047C124.789 115.297 100.483 113.878 70.5 113.878C40.5169 113.878 16.2108 115.297 16.2108 117.047C16.2108 118.798 40.5169 120.217 70.5 120.217Z" fill="#F5F5F5"/>
<path d="M72.4615 85.3289C98.0629 84.023 118.013 67.197 117.021 47.747C116.028 28.297 94.4702 13.5882 68.8688 14.8941C43.2675 16.1999 23.3177 33.0259 24.3099 52.476C25.302 71.926 46.8602 86.6348 72.4615 85.3289Z" fill="#FED5ED"/>
<path opacity="0.6" d="M72.4615 85.3289C98.0629 84.023 118.013 67.197 117.021 47.747C116.028 28.297 94.4702 13.5882 68.8688 14.8941C43.2675 16.1999 23.3177 33.0259 24.3099 52.476C25.302 71.926 46.8602 86.6348 72.4615 85.3289Z" fill="white"/>
<path opacity="0.2" d="M114.704 60.277L96.2236 58.9218L116.204 55.895C116.702 53.9429 116.984 51.9419 117.044 49.9282L95.7644 56.9702L116.647 44.3702C116.253 42.1729 115.594 40.0313 114.687 37.9918L94.5744 55.3518L111.478 32.4198C110.045 30.4457 108.411 28.6253 106.603 26.9878L92.8692 54.2962L100.709 22.547C98.4025 21.1092 95.9773 19.8708 93.46 18.8454L90.8896 53.9798L85.1692 16.2246C82.1046 15.5237 78.9883 15.0724 75.8508 14.875L88.938 54.4474L65.2052 15.1214C61.503 15.5241 57.8469 16.274 54.2852 17.3614L87.3252 55.6234L42.5 22.589C38.9076 24.7259 35.6395 27.366 32.7952 30.429L86.264 57.3398L25.6272 42.343C24.5466 45.5808 24.0775 48.9913 24.244 52.4006C24.2832 53.2098 24.3644 54.0078 24.4736 54.8002L85.9476 59.3166L29.8468 67.8118C32.468 71.3511 35.6903 74.4028 39.3668 76.8278L86.4068 61.2682L51.1576 82.5398C54.6912 83.7023 58.3312 84.5117 62.0244 84.9562L87.594 62.8866L71.0236 85.3678C71.4828 85.3566 71.942 85.3398 72.4012 85.3174C74.5778 85.2092 76.7471 84.9858 78.9 84.6482L89.316 63.9422L84.4832 83.4946C86.3547 83.0119 88.2004 82.4344 90.0132 81.7642L91.2984 64.2558L93.7176 80.2354C95.1886 79.5634 96.6044 78.8354 97.9652 78.0514L93.236 63.7798L100.779 76.279C102.018 75.4502 103.214 74.5596 104.363 73.6106L94.86 62.6122L106.824 71.4294C107.945 70.3441 108.999 69.1921 109.98 67.9798L95.9044 60.8986L112.22 64.9306C113.174 63.4503 114.005 61.8938 114.704 60.277Z" fill="#FED5ED"/>
<path d="M105.402 37.8602L105.374 37.8826C107.578 34.2566 99.8048 34.8922 95.014 41.601C94.65 38.4874 87.5996 43.6002 86.7596 46.7334L107.919 44.0594C108.484 43.9877 109.021 43.7705 109.476 43.4291C109.932 43.0878 110.291 42.6339 110.518 42.112C110.746 41.5901 110.834 41.018 110.774 40.4519C110.714 39.8857 110.508 39.3448 110.176 38.8822L109.983 38.6022C109.473 37.8977 108.704 37.424 107.846 37.2849C106.987 37.1458 106.108 37.3527 105.402 37.8602Z" fill="white"/>
<path d="M47.9012 44.6C48.7412 42.5 48.086 40.75 42.5 44.8268C43.9896 42.542 41.086 43.4268 38.3 45.3868C37.7148 45.0536 36.3148 45.2468 33.9544 46.9688C35.6008 44.4488 29.6172 47.4364 28.3544 50.2056L47.3132 47.82C47.3132 47.82 51.8856 45.4708 47.9012 44.6Z" fill="white"/>
<path d="M60.2464 61.6575C61.54 59.8683 59.244 57.4295 52.1852 62.5815C54.0696 59.6947 50.4016 60.8203 46.8876 63.3039C46.1484 62.8811 44.3676 63.1247 41.394 65.3031C43.4744 62.1167 35.9144 65.8939 34.2988 69.3911L58.2668 66.3615C58.2668 66.3615 65.8436 60.0895 60.2464 61.6575Z" fill="white"/>
<path d="M80.342 58.0202C80.5352 58.6082 80.7844 59.2774 81.0476 59.9382C81.3108 60.599 81.6076 61.2766 81.9044 61.943C82.5036 63.2814 83.1728 64.5946 83.8644 65.863C84.2172 66.4902 84.584 67.1006 84.9648 67.6802C85.3456 68.2598 85.7292 68.817 86.1268 69.3182C86.4841 69.7745 86.8754 70.2031 87.2972 70.6006C87.5455 70.8343 87.8166 71.0425 88.1064 71.2222L87.44 71.0934C87.1705 71.0743 86.8999 71.1056 86.642 71.1858C86.4525 71.2404 86.2736 71.3266 86.1128 71.4406C85.8832 71.6142 85.8916 71.6702 85.928 71.6562C86.1566 71.4478 86.3463 71.2004 86.488 70.9254C86.7008 70.5474 86.922 70.105 87.132 69.6346C87.342 69.1642 87.5324 68.6602 87.7284 68.1478C87.9244 67.6354 88.1092 67.109 88.2884 66.5742C88.4676 66.0394 88.6552 65.4962 88.826 64.9502L89.8704 61.649L89.8872 61.5958C90.0201 61.155 90.3039 60.7751 90.6889 60.5226C91.0739 60.2701 91.5354 60.1612 91.9927 60.215C92.4499 60.2687 92.8736 60.4818 93.1895 60.8167C93.5054 61.1516 93.6934 61.587 93.7204 62.0466C93.8033 63.2936 93.8192 64.5442 93.768 65.793C93.74 66.4146 93.7064 67.039 93.6504 67.6662C93.5944 68.2934 93.5216 68.9262 93.432 69.5646C93.3424 70.203 93.2192 70.8442 93.0708 71.505C92.9221 72.1994 92.7275 72.8831 92.4884 73.5518C92.1978 74.3888 91.7906 75.1806 91.2788 75.9038C90.8772 76.4652 90.3761 76.9483 89.8004 77.329C89.3875 77.6001 88.9364 77.8077 88.462 77.945C87.9162 78.0993 87.3475 78.1561 86.782 78.113C86.602 78.1018 86.4237 78.0718 86.25 78.0234L86.1156 77.9842C84.8981 77.6327 83.758 77.0542 82.7556 76.279C81.9468 75.6586 81.197 74.965 80.5156 74.207C79.8877 73.5189 79.2952 72.7993 78.7404 72.051C78.2028 71.3202 77.71 70.5782 77.2396 69.8334C76.7692 69.0886 76.3324 68.3326 75.9236 67.5682C75.5148 66.8038 75.1144 66.031 74.7532 65.2414C74.392 64.4518 74.0392 63.6594 73.7256 62.8334C73.3892 61.9784 73.0976 61.1064 72.852 60.221C72.6498 59.2609 72.815 58.2599 73.3149 57.4157C73.8149 56.5714 74.6133 55.9454 75.5524 55.6612C76.4915 55.377 77.5031 55.4553 78.3872 55.8807C79.2714 56.306 79.9639 57.0475 80.328 57.9586L80.342 58.0202Z" fill="#FFB573"/>
<path opacity="0.1" d="M80.342 58.0202C80.5352 58.6082 80.7844 59.2774 81.0476 59.9382C81.3108 60.599 81.6076 61.2766 81.9044 61.943C82.5036 63.2814 83.1728 64.5946 83.8644 65.863C84.2172 66.4902 84.584 67.1006 84.9648 67.6802C85.3456 68.2598 85.7292 68.817 86.1268 69.3182C86.4841 69.7745 86.8754 70.2031 87.2972 70.6006C87.5455 70.8343 87.8166 71.0425 88.1064 71.2222L87.44 71.0934C87.1705 71.0743 86.8999 71.1056 86.642 71.1858C86.4525 71.2404 86.2736 71.3266 86.1128 71.4406C85.8832 71.6142 85.8916 71.6702 85.928 71.6562C86.1566 71.4478 86.3463 71.2004 86.488 70.9254C86.7008 70.5474 86.922 70.105 87.132 69.6346C87.342 69.1642 87.5324 68.6602 87.7284 68.1478C87.9244 67.6354 88.1092 67.109 88.2884 66.5742C88.4676 66.0394 88.6552 65.4962 88.826 64.9502L89.8704 61.649L89.8872 61.5958C90.0201 61.155 90.3039 60.7751 90.6889 60.5226C91.0739 60.2701 91.5354 60.1612 91.9927 60.215C92.4499 60.2687 92.8736 60.4818 93.1895 60.8167C93.5054 61.1516 93.6934 61.587 93.7204 62.0466C93.8033 63.2936 93.8192 64.5442 93.768 65.793C93.74 66.4146 93.7064 67.039 93.6504 67.6662C93.5944 68.2934 93.5216 68.9262 93.432 69.5646C93.3424 70.203 93.2192 70.8442 93.0708 71.505C92.9221 72.1994 92.7275 72.8831 92.4884 73.5518C92.1978 74.3888 91.7906 75.1806 91.2788 75.9038C90.8772 76.4652 90.3761 76.9483 89.8004 77.329C89.3875 77.6001 88.9364 77.8077 88.462 77.945C87.9162 78.0993 87.3475 78.1561 86.782 78.113C86.602 78.1018 86.4237 78.0718 86.25 78.0234L86.1156 77.9842C84.8981 77.6327 83.758 77.0542 82.7556 76.279C81.9468 75.6586 81.197 74.965 80.5156 74.207C79.8877 73.5189 79.2952 72.7993 78.7404 72.051C78.2028 71.3202 77.71 70.5782 77.2396 69.8334C76.7692 69.0886 76.3324 68.3326 75.9236 67.5682C75.5148 66.8038 75.1144 66.031 74.7532 65.2414C74.392 64.4518 74.0392 63.6594 73.7256 62.8334C73.3892 61.9784 73.0976 61.1064 72.852 60.221C72.6498 59.2609 72.815 58.2599 73.3149 57.4157C73.8149 56.5714 74.6133 55.9454 75.5524 55.6612C76.4915 55.377 77.5031 55.4553 78.3872 55.8807C79.2714 56.306 79.9639 57.0475 80.328 57.9586L80.342 58.0202Z" fill="black"/>
<path d="M93.936 55.5815L92.158 54.8871C91.9655 54.8119 91.76 54.7759 91.5534 54.7813C91.3469 54.7866 91.1434 54.8332 90.9551 54.9182C90.7668 55.0032 90.5974 55.125 90.4568 55.2764C90.3162 55.4278 90.2072 55.6058 90.1364 55.7999L89.1676 58.4599L89.5176 62.9231L92.0684 63.8947C94.2496 63.6343 94.4232 59.5547 94.4232 59.5547L94.8908 57.3623C94.97 57.0004 94.9174 56.6221 94.7423 56.2956C94.5672 55.969 94.2813 55.7158 93.936 55.5815Z" fill="#FFB573"/>
<path opacity="0.1" d="M93.936 55.5815L92.158 54.8871C91.9655 54.8119 91.76 54.7759 91.5534 54.7813C91.3469 54.7866 91.1434 54.8332 90.9551 54.9182C90.7668 55.0032 90.5974 55.125 90.4568 55.2764C90.3162 55.4278 90.2072 55.6058 90.1364 55.7999L89.1676 58.4599L89.5176 62.9231L92.0684 63.8947C94.2496 63.6343 94.4232 59.5547 94.4232 59.5547L94.8908 57.3623C94.97 57.0004 94.9174 56.6221 94.7423 56.2956C94.5672 55.969 94.2813 55.7158 93.936 55.5815Z" fill="black"/>
<path d="M72.4348 57.7207C74.518 53.2827 80.65 53.2575 85.7684 63.3207C84.206 68.4251 77.262 72.3283 77.262 72.3283C77.262 72.3283 69.94 63.0547 72.4348 57.7207Z" fill="#FED5ED"/>
<path opacity="0.3" d="M72.4348 57.7207C74.518 53.2827 80.65 53.2575 85.7684 63.3207C84.206 68.4251 77.262 72.3283 77.262 72.3283C77.262 72.3283 69.94 63.0547 72.4348 57.7207Z" fill="black"/>
<path d="M103.487 108.86C102.815 103.24 81.6804 92.3764 81.6804 92.3764L64.0712 91.5364C60.3528 101.132 63.276 105.399 67.3052 106.704C64.4056 107.181 61.5515 107.902 58.7736 108.86C56.4552 109.658 55.4864 112.514 56.9984 114.46C57.4108 115.017 57.9922 115.426 58.656 115.625C58.656 115.625 105.34 124.372 103.487 108.86Z" fill="#263238"/>
<path opacity="0.4" d="M103.487 108.86C102.815 103.24 81.6804 92.3764 81.6804 92.3764L64.0712 91.5364C60.3528 101.132 63.276 105.399 67.3052 106.704C64.4056 107.181 61.5515 107.902 58.7736 108.86C56.4552 109.658 55.4864 112.514 56.9984 114.46C57.4108 115.017 57.9922 115.426 58.656 115.625C58.656 115.625 105.34 124.372 103.487 108.86Z" fill="black"/>
<path d="M50.62 114.922L52.5408 110.82C52.6058 110.746 52.6405 110.65 52.6379 110.551C52.6353 110.453 52.5956 110.359 52.5268 110.288L49.5756 107.269C49.311 107.067 49.0086 106.92 48.6861 106.836C48.3637 106.752 48.0277 106.734 47.6981 106.782C47.3685 106.831 47.0519 106.945 46.767 107.117C46.482 107.29 46.2346 107.518 46.0392 107.787C45.1292 109.028 44.6392 110.344 43.1664 111.472C40.8256 113.273 41.6292 112.547 38.2496 113.317C36.2084 113.785 36.3176 115.938 37.236 115.927C41.408 115.874 45.1796 115.907 49.3824 115.367C49.8266 115.329 50.2532 115.175 50.62 114.922Z" fill="#FED5ED"/>
<path d="M95.8232 110.022C95.1484 104.402 71.1328 93.5719 71.1328 93.5719L54.82 91.5251C51.1016 101.121 54.0248 105.388 58.054 106.693C55.1544 107.17 52.3003 107.891 49.5224 108.849C47.204 109.647 47.176 111.929 47.5988 114.001C47.8424 115.185 48.7664 115.426 49.4048 115.6C49.3964 115.6 97.6768 125.534 95.8232 110.022Z" fill="#263238"/>
<path opacity="0.1" d="M68.3132 113.539C62.6821 113.523 57.058 113.141 51.4768 112.393C51.4616 112.391 51.447 112.386 51.4339 112.379C51.4207 112.371 51.4092 112.361 51.4001 112.348C51.391 112.336 51.3844 112.322 51.3807 112.307C51.3771 112.292 51.3764 112.277 51.3788 112.262C51.3808 112.247 51.3859 112.232 51.3936 112.219C51.4014 112.206 51.4117 112.194 51.424 112.185C51.4362 112.176 51.4502 112.17 51.465 112.166C51.4799 112.162 51.4953 112.162 51.5104 112.164C51.7176 112.195 72.138 115.174 85.2196 111.394C78.872 110.428 57.1048 104.335 57.802 97.7075C57.8062 97.6771 57.8218 97.6494 57.8458 97.6301C57.8697 97.6108 57.9001 97.6015 57.9308 97.6039C57.9615 97.6074 57.9896 97.6229 58.009 97.647C58.0284 97.6711 58.0375 97.7019 58.0344 97.7327C57.662 101.255 64.0236 104.531 69.4248 106.656C75.9264 109.215 83.03 110.901 85.7824 111.237C85.808 111.241 85.8316 111.254 85.8492 111.273C85.8668 111.293 85.8776 111.317 85.8799 111.343C85.8821 111.369 85.8757 111.395 85.8616 111.417C85.8475 111.439 85.8265 111.455 85.802 111.464C80.6164 113.06 74.196 113.539 68.3132 113.539Z" fill="white"/>
<path d="M77.85 55.0412C72.6896 53.7868 69.9708 53.4508 66.5996 53.3024C64.9938 53.2323 63.3919 53.5098 61.9034 54.1161C60.4148 54.7223 59.0748 55.6428 57.9748 56.8148C56.8749 57.9868 56.0411 59.3825 55.5305 60.9064C55.0198 62.4304 54.8443 64.0467 55.016 65.6448C56.514 79.9472 54.4952 88.8064 54.26 91.9984C63.9536 98.36 79.3508 95.7616 81.9436 93.1576C84.8052 81.4116 83.8644 68.442 83.3968 62.7636C83.1448 59.692 81.0616 55.8224 77.85 55.0412Z" fill="#FED5ED"/>
<path opacity="0.2" d="M77.85 55.0412C72.6896 53.7868 69.9708 53.4508 66.5996 53.3024C64.9938 53.2323 63.3919 53.5098 61.9034 54.1161C60.4148 54.7223 59.0748 55.6428 57.9748 56.8148C56.8749 57.9868 56.0411 59.3825 55.5305 60.9064C55.0198 62.4304 54.8443 64.0467 55.016 65.6448C56.514 79.9472 54.4952 88.8064 54.26 91.9984C63.9536 98.36 79.3508 95.7616 81.9436 93.1576C84.8052 81.4116 83.8644 68.442 83.3968 62.7636C83.1448 59.692 81.0616 55.8224 77.85 55.0412Z" fill="black"/>
<path opacity="0.3" d="M76.1196 93.9275H76.1C76.0847 93.9261 76.0699 93.9216 76.0564 93.9143C76.0429 93.907 76.0311 93.897 76.0217 93.8849C76.0122 93.8729 76.0053 93.859 76.0015 93.8441C75.9976 93.8293 75.9968 93.8138 75.9992 93.7987C77.2592 82.9711 77.9592 64.8607 75.9208 60.4395C75.9084 60.4112 75.9077 60.3792 75.9187 60.3504C75.9297 60.3216 75.9516 60.2983 75.9796 60.2855C76.0078 60.2731 76.0398 60.2724 76.0686 60.2834C76.0974 60.2944 76.1207 60.3162 76.1336 60.3443C78.3876 65.2359 77.3096 84.5643 76.2288 93.8267C76.2255 93.8537 76.2127 93.8787 76.1927 93.8971C76.1727 93.9156 76.1468 93.9263 76.1196 93.9275Z" fill="#263238"/>
<path d="M66.7228 45.1094C67.0028 50.071 66.3784 52.0002 65.5384 54.3942C66.0508 56.3178 70.8164 58.555 75.1172 59.115C76.6656 57.477 76.436 55.853 76.0384 55.1222C74.784 54.635 73.5968 53.1174 74.5152 50.8662L66.7228 45.1094Z" fill="#FFB573"/>
<path opacity="0.2" d="M72.0204 48.814L70.3712 48.1448C70.3367 48.8063 70.4565 49.4667 70.7212 50.074C71.186 51.0652 72.9864 52.0648 74.2016 52.1768C74.2355 51.7275 74.3423 51.2868 74.518 50.872L72.0204 48.814Z" fill="black"/>
<path d="M75.8452 32.5906C79.6532 34.4918 79.9388 36.4938 78.5752 38.577C73.86 36.0374 75.8452 32.5906 75.8452 32.5906Z" fill="#263238"/>
<path d="M65.0624 41.1C66.762 45.734 67.5236 48.5368 70.6316 50.2252C75.3048 52.7676 80.482 48.8084 80.1964 43.746C79.9416 39.1876 77.2032 32.3752 72.026 31.9188C66.9216 31.4764 63.3628 36.4716 65.0624 41.1Z" fill="#FFB573"/>
<path d="M80.2076 29.7235C79.8299 30.3022 79.2877 30.7546 78.6508 31.0227C78.3708 29.1047 75.0108 26.1675 69.0832 26.1675C69.6553 26.454 70.1967 26.7984 70.6988 27.1951C70.2673 27.3207 69.8835 27.5731 69.5974 27.9197C69.3113 28.2662 69.136 28.6908 69.0944 29.1383C69.0944 29.1383 63.108 29.7851 61.498 33.4167C61.1984 32.6159 60.938 31.5575 61.1396 30.6363C60.3836 31.3307 59.3952 34.8167 60.6692 36.4183C58.1492 37.3899 59.6024 39.6971 59.6024 39.6971C59.6024 39.6971 59.65 38.8571 59.832 38.6723C60.5292 39.5123 60.0644 42.5755 62.3128 43.5583C61.6156 46.2967 67.2212 48.5199 67.3528 46.5291C67.4844 44.5383 67.49 43.4267 67.49 43.4267C68.022 43.3623 69.0972 42.7407 69.086 42.5587C68.9824 41.1587 67.2548 40.3187 66.8292 39.5011C68.2768 39.7503 69.5256 39.1259 69.73 38.5379C68.792 38.8655 67.7364 38.4371 67.0616 38.0199C67.2184 36.0039 71.2616 35.1331 75.3636 35.3655C75.58 35.3766 75.7968 35.3766 76.0132 35.3655C76.0206 35.3641 76.0282 35.3641 76.0356 35.3655C76.8812 35.3634 77.7013 35.0752 78.3624 34.5479C80.1488 33.3467 80.3392 31.1851 80.2076 29.7235Z" fill="#263238"/>
<path d="M63.9788 44.7931C64.3151 45.2719 64.7428 45.6795 65.2372 45.9924C65.7317 46.3052 66.2832 46.5171 66.86 46.6159C68.4112 46.8679 69.0272 45.4371 68.4616 44.0623C67.952 42.8275 66.5324 41.2035 65.04 41.5787C63.5476 41.9539 63.1584 43.5975 63.9788 44.7931Z" fill="#FFB573"/>
<path d="M76.4276 39.2966C76.4276 39.2966 77.8276 41.3546 79.0372 42.2226C78.4772 43.029 77.2424 43.001 77.2424 43.001L76.4276 39.2966Z" fill="#ED893E"/>
<path d="M75.4224 44.8491C74.9754 44.8978 74.5231 44.8539 74.0938 44.7199C73.6646 44.586 73.2676 44.365 72.9276 44.0707C72.9165 44.0599 72.9077 44.0469 72.9017 44.0327C72.8957 44.0185 72.8925 44.0032 72.8924 43.9877C72.8922 43.9722 72.8952 43.9569 72.901 43.9425C72.9068 43.9282 72.9153 43.9151 72.9262 43.9041C72.937 43.8931 72.9499 43.8843 72.9642 43.8782C72.9784 43.8722 72.9937 43.869 73.0092 43.8689C73.0246 43.8688 73.04 43.8717 73.0543 43.8775C73.0687 43.8833 73.0817 43.8919 73.0928 43.9027C73.4765 44.2215 73.9303 44.4449 74.4169 44.5549C74.9035 44.6649 75.4092 44.6582 75.8928 44.5355C75.9232 44.5288 75.9551 44.5345 75.9813 44.5513C76.0076 44.5681 76.0261 44.5947 76.0328 44.6251C76.0395 44.6559 76.0339 44.6881 76.0171 44.7148C76.0004 44.7415 75.9738 44.7606 75.9432 44.7679C75.7715 44.8063 75.5976 44.8334 75.4224 44.8491Z" fill="#263238"/>
<path d="M70.864 38.969C70.824 38.9694 70.7845 38.9598 70.7492 38.941C70.7219 38.9264 70.6979 38.9065 70.6783 38.8825C70.6588 38.8585 70.6442 38.8309 70.6353 38.8012C70.6265 38.7716 70.6236 38.7404 70.6268 38.7097C70.63 38.6789 70.6392 38.649 70.654 38.6218C70.8242 38.2863 71.0725 37.9964 71.378 37.7767C71.6835 37.557 72.0373 37.4137 72.4096 37.359C72.4401 37.3564 72.4709 37.3597 72.5001 37.369C72.5293 37.3783 72.5564 37.3932 72.5799 37.413C72.6033 37.4328 72.6226 37.457 72.6366 37.4843C72.6506 37.5115 72.6591 37.5413 72.6616 37.5718C72.6663 37.6344 72.6464 37.6963 72.6061 37.7444C72.5658 37.7926 72.5084 37.8231 72.446 37.8294C72.1528 37.878 71.8751 37.9951 71.6358 38.1712C71.3964 38.3474 71.202 38.5776 71.0684 38.843C71.0483 38.8801 71.0189 38.9112 70.983 38.9333C70.9471 38.9555 70.9061 38.9678 70.864 38.969Z" fill="#263238"/>
<path d="M72.978 40.5399C72.9467 40.5344 72.917 40.522 72.8912 40.5035C72.8536 40.4728 72.8297 40.4286 72.8244 40.3804C72.8192 40.3322 72.8331 40.2839 72.8632 40.2459C73.04 40.0133 73.2695 39.826 73.5329 39.6994C73.7962 39.5729 74.0859 39.5106 74.378 39.5179C74.4018 39.52 74.425 39.5268 74.4461 39.538C74.4673 39.5492 74.486 39.5645 74.5011 39.583C74.5162 39.6016 74.5275 39.6229 74.5342 39.6459C74.541 39.6689 74.5431 39.6929 74.5404 39.7167C74.5382 39.7406 74.5314 39.7639 74.5203 39.7852C74.5091 39.8065 74.4939 39.8254 74.4754 39.8407C74.4569 39.8561 74.4355 39.8676 74.4126 39.8747C74.3896 39.8818 74.3655 39.8842 74.3416 39.8819C74.1104 39.8803 73.8821 39.9329 73.6749 40.0355C73.4678 40.1381 73.2875 40.2878 73.1488 40.4727C73.1286 40.4978 73.1022 40.5172 73.0723 40.529C73.0423 40.5408 73.0098 40.5445 72.978 40.5399Z" fill="#263238"/>
<path d="M79.2416 39.1736C79.2705 39.1591 79.2948 39.1368 79.3116 39.1092C79.3246 39.0891 79.3336 39.0667 79.338 39.0432C79.3424 39.0197 79.3422 38.9955 79.3372 38.9721C79.3323 38.9487 79.3228 38.9265 79.3092 38.9068C79.2957 38.8871 79.2784 38.8702 79.2584 38.8572C79.0175 38.692 78.7406 38.5868 78.4508 38.5503C78.161 38.5138 77.8667 38.547 77.5924 38.6472C77.5481 38.6668 77.5134 38.7031 77.4955 38.7481C77.4777 38.7931 77.4783 38.8434 77.4972 38.888C77.5174 38.9324 77.5542 38.9672 77.5997 38.985C77.6451 39.0028 77.6958 39.0021 77.7408 38.9832C77.9587 38.9067 78.1916 38.8832 78.4203 38.9143C78.6491 38.9455 78.8673 39.0305 79.0568 39.1624C79.0838 39.1806 79.1151 39.1912 79.1476 39.1932C79.1801 39.1952 79.2126 39.1884 79.2416 39.1736Z" fill="#263238"/>
<path d="M79.236 37.1519C79.1993 37.1648 79.1601 37.1687 79.1216 37.1634C79.0832 37.158 79.0465 37.1435 79.0148 37.1211C78.7808 36.9372 78.5058 36.8127 78.2133 36.7581C77.9207 36.7035 77.6193 36.7204 77.3348 36.8075C77.2761 36.8291 77.2113 36.8264 77.1546 36.8001C77.0979 36.7739 77.0539 36.7262 77.0324 36.6675C77.0108 36.6089 77.0135 36.544 77.0398 36.4873C77.066 36.4306 77.1137 36.3867 77.1724 36.3651C77.5282 36.2524 77.9061 36.2274 78.2737 36.2923C78.6413 36.3571 78.9877 36.5099 79.2836 36.7375C79.3337 36.7749 79.3671 36.8306 79.3765 36.8924C79.386 36.9542 79.3707 37.0173 79.334 37.0679C79.3094 37.1041 79.2755 37.1331 79.236 37.1519Z" fill="#263238"/>
<path d="M64.8356 58.4823C65.1031 59.0106 65.4131 59.5162 65.7624 59.9943C66.1811 60.5671 66.6307 61.1167 67.1092 61.6407C67.6104 62.1867 68.1368 62.7383 68.6996 63.2703C69.2624 63.8023 69.8476 64.3203 70.4468 64.8327C71.046 65.3451 71.6704 65.8323 72.306 66.3055C72.9416 66.7787 73.5772 67.2407 74.2296 67.6691C74.882 68.0975 75.54 68.5091 76.1896 68.8591C76.7715 69.1869 77.3748 69.475 77.9956 69.7215L77.3712 69.5955C77.6424 69.6625 77.9259 69.6625 78.1972 69.5955C78.662 69.4925 79.1117 69.3307 79.5356 69.1139C80.0658 68.8482 80.5775 68.547 81.0672 68.2123C81.588 67.8567 82.1032 67.4535 82.6184 67.0279C83.1336 66.6023 83.6516 66.1487 84.1528 65.6699C84.654 65.1911 85.1664 64.7039 85.6592 64.1971C86.152 63.6903 86.6476 63.1723 87.1264 62.6403C87.3728 62.3771 87.6136 62.1111 87.8488 61.8451L88.546 61.0611L88.616 60.9827C88.9296 60.6504 89.3495 60.4381 89.803 60.3825C90.2566 60.3269 90.7153 60.4315 91.0999 60.6783C91.4845 60.925 91.7708 61.2984 91.9093 61.7339C92.0478 62.1694 92.0298 62.6395 91.8584 63.0631C91.682 63.4663 91.5224 63.8023 91.346 64.1663C91.1696 64.5303 90.9904 64.8691 90.8056 65.2163C90.4304 65.9079 90.0412 66.5939 89.6212 67.2659C89.2012 67.9379 88.7616 68.6043 88.2884 69.2567C87.8152 69.9091 87.314 70.5475 86.7792 71.1803C86.2289 71.8232 85.6447 72.4364 85.0292 73.0171C84.3753 73.6415 83.671 74.2109 82.9236 74.7195C82.0846 75.3033 81.1723 75.774 80.2104 76.1195C79.0613 76.5363 77.837 76.7052 76.618 76.6151C76.4685 76.6031 76.3205 76.5778 76.1756 76.5395L75.9964 76.4891C74.9592 76.2014 73.9462 75.8325 72.9668 75.3859C72.0512 74.9771 71.1944 74.5151 70.3572 74.0419C69.52 73.5687 68.7108 73.0647 67.9184 72.5383C67.126 72.0119 66.3616 71.4491 65.6084 70.8583C64.0646 69.6748 62.6231 68.3635 61.2992 66.9383C60.5953 66.1821 59.9406 65.3815 59.3392 64.5415C58.6699 63.6062 58.1065 62.5995 57.6592 61.5399C57.2755 60.6044 57.2695 59.5566 57.6424 58.6168C58.0154 57.677 58.7383 56.9184 59.6591 56.5006C60.5799 56.0828 61.6268 56.0384 62.5797 56.3767C63.5325 56.7149 64.3171 57.4095 64.7684 58.3143L64.8356 58.4823Z" fill="#FFB573"/>
<path d="M87.916 63.1387L87.566 58.6587L92.8216 59.7563C92.8216 59.7563 92.6508 63.8359 90.4668 64.0935L87.916 63.1387Z" fill="#FFB573"/>
<path d="M90.5592 55.1139L92.3344 55.8083C92.6774 55.9423 92.9617 56.1938 93.1366 56.5179C93.3114 56.842 93.3655 57.2177 93.2892 57.5779L92.8216 59.7703L87.58 58.6727L88.5516 56.0239C88.6228 55.8318 88.7315 55.6556 88.8712 55.5057C89.0109 55.3557 89.179 55.2349 89.3656 55.1503C89.5523 55.0657 89.7539 55.0189 89.9588 55.0127C90.1636 55.0064 90.3677 55.0409 90.5592 55.1139Z" fill="#FFB573"/>
<path d="M58.0428 60.165C59.062 56.329 64.8972 53.2434 70.7828 63.9226C70.1332 68.5314 65.1828 72.1574 65.1828 72.1574C65.1828 72.1574 56.738 65.0734 58.0428 60.165Z" fill="white"/>
<path d="M56.78 59.7703C57.9 55.2903 64.06 51.0231 70.1444 62.2679C69.408 67.5571 64.1692 72.3227 64.1692 72.3227C64.1692 72.3227 55.3576 65.4851 56.78 59.7703Z" fill="#FED5ED"/>
<path opacity="0.2" d="M56.78 59.7703C57.9 55.2903 64.06 51.0231 70.1444 62.2679C69.408 67.5571 64.1692 72.3227 64.1692 72.3227C64.1692 72.3227 55.3576 65.4851 56.78 59.7703Z" fill="black"/>
</svg>
